<?xml version="1.0" encoding="UTF-8" standalone="no"?>
<svg
   xmlns:dc="http://purl.org/dc/elements/1.1/"
   xmlns:cc="http://creativecommons.org/ns#"
   xmlns:rdf="http://www.w3.org/1999/02/22-rdf-syntax-ns#"
   xmlns:svg="http://www.w3.org/2000/svg"
   xmlns="http://www.w3.org/2000/svg"
   viewBox="0 0 227.5 100"
   height="100"
   width="227.5"
   xml:space="preserve"
   version="1.1"
   id="svg2"><metadata
     id="metadata8"><rdf:RDF><cc:Work
         rdf:about=""><dc:format>image/svg+xml</dc:format><dc:type
           rdf:resource="http://purl.org/dc/dcmitype/StillImage" /></cc:Work></rdf:RDF></metadata><defs
     id="defs6"><clipPath
       id="clipPath18"
       clipPathUnits="userSpaceOnUse"><path
         id="path20"
         d="M 0,0 182,0 182,80 0,80 0,0 Z" /></clipPath><clipPath
       id="clipPath28"
       clipPathUnits="userSpaceOnUse"><path
         id="path30"
         d="M 0,80 182,80 182,0 0,0 0,80 Z" /></clipPath><clipPath
       id="clipPath34"
       clipPathUnits="userSpaceOnUse"><path
         id="path36"
         d="m 2.995845,74.67281 317.494155,0 0,-71.089107 -317.494155,0 0,71.089107 z" /></clipPath><clipPath
       id="clipPath40"
       clipPathUnits="userSpaceOnUse"><path
         id="path42"
         d="M 7,7 182,7 182,72 7,72 7,7 Z" /></clipPath></defs><g
     transform="matrix(1.25,0,0,-1.25,0,100)"
     id="g10"><g
       id="g12" /><g
       id="g14"><g
         clip-path="url(#clipPath18)"
         id="g16"><path
           id="path22"
           style="fill:#000000;fill-opacity:0;fill-rule:nonzero;stroke:none"
           d="M 0,80 182,80 182,0 0,0 0,80 Z" /></g></g><g
       id="g24"><g
         clip-path="url(#clipPath28)"
         id="g26"><g
           clip-path="url(#clipPath34)"
           id="g32"><g
             clip-path="url(#clipPath40)"
             id="g38"><path
               id="path44"
               style="fill:#a3a510;fill-opacity:1;fill-rule:evenodd;stroke:none"
               d="m 190.1974,22.76585 c -0.3719,0 -0.8028,0.03624 -1.3291,0.03624 -0.1915,0 -0.3357,-0.04805 -0.3357,-0.14338 0,-0.0843 0.0599,-0.14417 0.3002,-0.20483 0.5271,-0.13157 0.7296,-0.33404 0.754,-0.74212 0.0244,-0.30961 0.0244,-1.01707 0.0244,-2.14285 0,-2.37053 -0.0598,-3.25604 -0.0969,-3.62788 -0.011,-0.15599 -0.0346,-0.43094 -0.6815,-0.58693 -0.193,-0.04726 -0.3238,-0.14338 -0.3238,-0.23949 0,-0.0709 0.0961,-0.12054 0.334,-0.12054 0.253,0 0.9479,0.07327 1.4261,0.07327 0.4547,0 0.8258,-0.03624 1.137,-0.03624 0.2277,0 0.3364,0.07091 0.3364,0.14417 0,0.10714 -0.1087,0.18987 -0.2876,0.22689 -0.7784,0.14417 -0.8036,0.38288 -0.8139,0.75394 -0.0126,0.34821 -0.0606,2.02468 -0.0496,2.25236 0.0126,0.04648 0.0599,0.14338 0.0969,0.14338 0.2514,0.03466 0.8265,0.03466 1.0542,0.03466 0.2403,0 0.6713,-0.03466 0.8021,-0.05908 0.2277,-0.06067 0.3719,-0.11896 0.4917,-0.57432 0.0464,-0.16701 0.1197,-0.2521 0.178,-0.2521 0.119,0 0.1797,0.14338 0.1797,0.27495 0,0.26313 -0.0237,0.37185 -0.0237,0.94695 0,0.21507 0.0607,0.59795 0.0607,0.75472 0,0.1426 -0.0236,0.26313 -0.1079,0.26313 -0.1088,0 -0.1553,-0.12053 -0.227,-0.28834 -0.1686,-0.40651 -0.2765,-0.51444 -0.6476,-0.55068 -0.2868,-0.02363 -1.2567,-0.01181 -1.7247,-0.01181 -0.0583,0 -0.1198,0.11974 -0.1198,0.44432 0,0.7886 0.0244,2.35793 0.0473,2.64548 0,0.03466 0.0725,0.14259 0.1922,0.1552 0.2514,0.02285 1.4498,0.03624 1.8563,-0.02364 0.3963,-0.05987 0.5279,-0.16859 0.7194,-0.75472 0.0717,-0.2395 0.167,-0.37106 0.2631,-0.37106 0.1088,0 0.1789,0.16702 0.1687,0.323 -0.0142,0.40809 -0.0599,0.82642 -0.0371,1.17384 0,0.0717 -0.0835,0.13157 -0.1434,0.11975 -0.0969,0 -1.1968,-0.03624 -1.9162,-0.03624 l -1.5569,0 z" /><path
               id="path46"
               style="fill:#a3a510;fill-opacity:1;fill-rule:evenodd;stroke:none"
               d="m 200.094,22.98053 c -0.8375,0 -1.8681,-0.35845 -2.4543,-0.83744 -0.9108,-0.72952 -1.5577,-1.74816 -1.5577,-3.2198 0,-1.03046 0.3601,-1.99947 0.9943,-2.70692 0.7312,-0.83745 1.891,-1.36528 3.1138,-1.36528 0.6107,0 1.6042,0.16859 2.359,0.69564 0.8746,0.62237 1.6995,1.79463 1.6995,3.47189 0,2.2752 -1.8555,3.96191 -4.1546,3.96191 m -0.2632,-0.39469 c 0.5508,0 1.3048,-0.25132 1.7957,-0.64601 0.8864,-0.71927 1.4489,-1.97584 1.4489,-3.27967 0,-1.42673 -0.5373,-2.39574 -1.018,-2.82667 -0.1307,-0.14338 -0.5869,-0.57432 -1.5813,-0.57432 -1.9146,0 -3.2319,2.04753 -3.2319,3.83114 0,1.40073 0.4065,2.29805 0.9336,2.81486 0.4192,0.41754 1.1496,0.68067 1.653,0.68067" /><path
               id="path48"
               style="fill:#a3a510;fill-opacity:1;fill-rule:evenodd;stroke:none"
               d="m 212.0141,20.82634 c 0,0.5751 -0.2876,1.17305 -0.6823,1.49605 -0.4798,0.3947 -1.126,0.50342 -1.9516,0.50342 -0.6477,0 -1.4963,-0.05988 -1.9398,-0.05988 l -0.6706,0 c -0.2631,0 -0.323,-0.05987 -0.323,-0.14338 0,-0.09533 0.1056,-0.15678 0.286,-0.20326 0.5389,-0.13156 0.6477,-0.15677 0.6942,-0.59952 0.0488,-0.46796 0.0724,-1.55593 0.0724,-3.39942 0,-0.71927 -0.0472,-1.98765 -0.0724,-2.35871 -0.0347,-0.45614 -0.2514,-0.52783 -0.7777,-0.69643 -0.1568,-0.05829 -0.2632,-0.08272 -0.2632,-0.17804 0,-0.11975 0.156,-0.16781 0.3112,-0.16781 0.1324,0 0.7549,0.04806 0.9692,0.04806 0.8147,0 1.0432,-0.07327 1.545,-0.07327 0.0606,0 0.2884,0.03703 0.2884,0.15678 0,0.05987 -0.0852,0.14417 -0.2884,0.20325 -0.5625,0.13157 -0.6941,0.29937 -0.7185,0.802 -0.0355,0.69406 -0.0599,2.21612 -0.0465,2.41937 0,0.03467 0.0591,0.1426 0.1426,0.1426 0.3593,0 0.8029,-0.10793 0.8502,-0.15441 0.0724,-0.04885 0.3112,-0.34743 0.479,-0.59953 0.4791,-0.75394 1.0905,-1.67489 1.508,-2.25078 0.3475,-0.44275 1.0313,-0.77757 1.5932,-0.77757 0.2521,0 0.5153,0.02363 0.6595,0.0835 0.0717,0.03624 0.1662,0.08272 0.1662,0.15599 0,0.04727 -0.0945,0.14338 -0.1907,0.16702 -0.5263,0.10793 -0.8493,0.32458 -1.1739,0.70745 -0.7297,0.81224 -1.7358,2.42883 -1.8563,2.71717 -0.0237,0.04806 0.0126,0.15599 0.048,0.17962 0.0843,0.05988 0.3112,0.16623 0.3711,0.20326 0.5878,0.35924 0.9707,1.03046 0.9707,1.67647 m -1.066,-0.02364 c 0,-0.75394 -0.4665,-1.28177 -0.7896,-1.48503 -0.1685,-0.10793 -0.8036,-0.31118 -1.4977,-0.31118 -0.0717,0 -0.1678,0.0835 -0.1915,0.17962 -0.0362,0.20325 0,2.51391 0.0363,2.93381 0,0.04806 0.0835,0.22611 0.1434,0.25132 0.1316,0.05987 0.5153,0.08272 0.5752,0.08272 0.3821,0 0.899,-0.17805 1.185,-0.45457 0.3474,-0.34585 0.5389,-0.90993 0.5389,-1.19669" /><path
               id="path50"
               style="fill:#a3a510;fill-opacity:1;fill-rule:evenodd;stroke:none"
               d="m 217.9519,22.69393 c 0,-0.08273 0.1087,-0.17963 0.3364,-0.22847 0.5263,-0.11896 0.6705,-0.28598 1.2323,-1.125 0.5759,-0.87368 1.3189,-2.08298 1.5222,-2.51391 0.0363,-0.09611 0.108,-0.37106 0.108,-0.43093 0,-0.69407 0,-1.98766 -0.0371,-2.47768 -0.0119,-0.1678 -0.1308,-0.43251 -0.7776,-0.57589 -0.253,-0.04648 -0.3357,-0.14338 -0.3357,-0.21428 0,-0.07169 0.0961,-0.13314 0.2986,-0.13314 0.1805,0 0.9573,0.07248 1.6775,0.07248 0.2742,0 0.8619,-0.04806 1.0407,-0.04806 0.2396,0 0.3601,0.03703 0.3601,0.13156 0,0.08351 -0.0842,0.15678 -0.323,0.21508 -0.6713,0.1678 -0.8036,0.31276 -0.8501,0.56407 -0.0481,0.38288 -0.0734,1.86791 -0.0734,2.53755 0,0.15598 0.1687,0.53886 0.3003,0.7303 0.4073,0.58771 1.0306,1.64023 1.5931,2.34768 0.3948,0.4916 0.7422,0.78939 1.3056,0.93277 0.2033,0.06066 0.3112,0.11896 0.3112,0.21587 0,0.07169 -0.1205,0.11974 -0.2529,0.11974 -0.1907,0 -0.8864,-0.04805 -1.3292,-0.04805 -0.2742,0 -0.4664,0.01339 -0.7769,0.01339 -0.1331,0 -0.2773,-0.02521 -0.2773,-0.10872 0,-0.0843 0.0725,-0.19223 0.2521,-0.23871 0.468,-0.10872 0.5988,-0.2521 0.3483,-0.68303 -0.3002,-0.4916 -1.211,-1.98765 -1.5451,-2.46586 -0.0237,-0.04963 -0.0954,-0.06145 -0.1198,-0.02521 -0.5397,0.87448 -1.4253,2.34611 -1.5687,2.62263 -0.1686,0.31119 -0.2521,0.45457 0.1797,0.55147 0.1788,0.04648 0.2631,0.1426 0.2631,0.22768 0,0.06933 -0.0717,0.13156 -0.2631,0.13156 -0.4799,0 -0.5752,-0.0252 -0.9101,-0.0252 -0.5634,0 -1.1866,0.05987 -1.3662,0.05987 -0.2033,0 -0.323,-0.04648 -0.323,-0.13156" /><path
               id="path52"
               style="fill:#a3a510;fill-opacity:1;fill-rule:evenodd;stroke:none"
               d="m 230.7238,22.98053 c -0.8391,0 -1.8681,-0.35845 -2.456,-0.83744 -0.9091,-0.72952 -1.5561,-1.74816 -1.5561,-3.2198 0,-1.03046 0.3586,-1.99947 0.9928,-2.70692 0.7312,-0.83745 1.8934,-1.36528 3.113,-1.36528 0.6122,0 1.605,0.16859 2.3605,0.69564 0.873,0.62237 1.6988,1.79463 1.6988,3.47189 0,2.2752 -1.8556,3.96191 -4.153,3.96191 m -0.2633,-0.39469 c 0.5493,0 1.3033,-0.25132 1.7941,-0.64601 0.8881,-0.71927 1.4497,-1.97584 1.4497,-3.27967 0,-1.42673 -0.538,-2.39574 -1.0187,-2.82667 -0.1307,-0.14338 -0.5846,-0.57432 -1.579,-0.57432 -1.9162,0 -3.2335,2.04753 -3.2335,3.83114 0,1.40073 0.4058,2.29805 0.9336,2.81486 0.4201,0.41754 1.1488,0.68067 1.6538,0.68067" /><path
               id="path54"
               style="fill:#a3a510;fill-opacity:1;fill-rule:evenodd;stroke:none"
               d="m 237.027,22.65895 c 0,-0.10793 0.1307,-0.16781 0.2758,-0.20484 0.4537,-0.09611 0.6231,-0.28597 0.6461,-0.51444 0.0126,-0.15441 0.0473,-1.11318 0.0473,-2.83849 0,-2.0105 0.2867,-2.88497 0.9573,-3.51916 0.2898,-0.26313 1.0911,-0.70746 2.1682,-0.70746 0.5263,0 1.1747,0.07327 1.7255,0.38446 0.8613,0.47741 1.4372,1.53308 1.497,3.61606 0.023,0.62237 0.0939,1.95141 0.1065,2.46585 0.0244,0.75394 0.2646,0.95877 0.7784,1.10216 0.1678,0.05987 0.2631,0.14259 0.2631,0.21586 0,0.09532 -0.108,0.13156 -0.2986,0.13156 -0.3357,0 -0.5861,-0.02442 -1.0771,-0.02442 -0.3829,0 -0.72,0.03624 -1.0188,0.03624 -0.2047,0 -0.2756,-0.04806 -0.2756,-0.11975 0,-0.08508 0.1308,-0.19144 0.2513,-0.21665 0.6704,-0.15441 0.754,-0.323 0.7911,-0.77757 0.0117,-0.14338 0.0487,-0.76575 0.0487,-1.5449 0,-1.36528 -0.1196,-2.37053 -0.2647,-3.00472 -0.2986,-1.31722 -1.46,-1.67647 -2.2399,-1.67647 -0.6225,0 -1.401,0.28755 -1.735,0.65783 -0.3703,0.42069 -0.6706,0.93513 -0.6706,2.28859 0,1.69853 -0.0125,2.94327 0.0473,3.33954 0.0725,0.47821 0.3003,0.59795 0.7296,0.68304 0.2277,0.04648 0.3601,0.13156 0.3601,0.22768 0,0.09532 -0.1427,0.13156 -0.3711,0.13156 -0.2631,0 -0.7186,-0.02442 -1.1613,-0.02442 -0.442,0 -0.7312,0.03624 -1.2331,0.03624 -0.1923,0 -0.3475,-0.04806 -0.3475,-0.14338" /><path
               id="path56"
               style="fill:#a3a510;fill-opacity:1;fill-rule:evenodd;stroke:none"
               d="m 251.0416,22.74238 c -1.5309,0 -2.4898,0.03624 -2.801,0.07169 -0.1797,0.01103 -0.3703,0.19143 -0.4074,0.22767 -0.1308,0.10872 -0.1308,0.19223 -0.1907,0.19223 -0.0724,0 -0.1804,-0.10872 -0.1804,-0.19223 0,-0.70745 -0.2261,-1.35346 -0.2261,-1.57956 0,-0.11896 0.0465,-0.27495 0.1197,-0.27495 0.0466,0 0.1175,-0.01181 0.2262,0.23792 0.2033,0.3947 0.3467,0.58771 0.3955,0.62316 0.1789,0.20247 0.4294,0.27416 0.8864,0.27416 0.1915,0 1.2449,-0.02284 1.4852,-0.05987 0.0354,0 0.0954,-0.05988 0.0954,-0.15441 l 0,-1.42201 c 0,-0.92095 -0.06,-3.35923 -0.0828,-4.06511 -0.037,-0.89575 -0.0599,-1.10058 -0.9006,-1.29044 -0.1063,-0.02521 -0.2261,-0.11975 -0.2261,-0.20483 0,-0.07012 0.1198,-0.14338 0.3585,-0.14338 0.1552,0 0.7682,0.08508 1.3654,0.08508 0.5271,0 1.2694,-0.05988 1.3647,-0.05988 0.1198,0 0.3356,0.01182 0.3356,0.14339 0,0.08272 -0.1678,0.17962 -0.323,0.21428 -0.7438,0.16702 -0.8038,0.31198 -0.862,0.84927 -0.048,0.44275 -0.048,1.5772 -0.048,2.96454 l 0,2.92909 c 0,0.02284 0.048,0.14259 0.1062,0.15441 0.1451,0.03703 1.4743,0.03703 1.6776,0.02521 0.7414,-0.03703 0.899,-0.0969 0.9707,-0.7177 0.0354,-0.30016 0.0835,-0.38288 0.1678,-0.38288 0.0953,0 0.1899,0.11975 0.2032,0.22611 0.071,0.62316 0.1435,0.99421 0.2632,1.36528 0.0599,0.16701 0.0111,0.27494 -0.0488,0.27494 -0.0465,0 -0.0835,-0.02363 -0.1663,-0.07326 -0.1678,-0.11818 -0.3837,-0.18987 -0.8162,-0.21429 -0.4893,-0.01182 -2.1188,-0.02363 -2.7419,-0.02363" /><path
               id="path58"
               style="fill:#a3a510;fill-opacity:1;fill-rule:evenodd;stroke:none"
               d="m 258.6883,19.46113 c -0.0126,0.20405 0,1.7844 0.0354,2.17909 0.0371,0.50263 0.0709,0.68225 0.6359,0.79097 0.2505,0.04648 0.3459,0.10793 0.3459,0.22768 0,0.07011 -0.1308,0.13156 -0.383,0.13156 -0.2757,0 -0.6342,-0.02442 -1.1393,-0.02442 -0.3088,0 -0.754,0.02442 -1.0873,0.02442 -0.193,0 -0.3467,-0.04805 -0.3467,-0.13156 0,-0.09612 0.0836,-0.1812 0.3341,-0.22768 0.5035,-0.10872 0.5736,-0.27495 0.5988,-0.68303 0.0244,-0.52784 0,-1.62841 0,-1.8427 0,-1.95299 -0.0725,-3.30645 -0.1079,-3.79726 -0.0481,-0.46638 -0.145,-0.58613 -0.754,-0.74291 -0.1324,-0.03466 -0.2758,-0.10635 -0.2758,-0.2261 0,-0.07169 0.0953,-0.11975 0.3585,-0.11975 0.4065,0 0.9116,0.04806 1.1865,0.04806 0.4311,0 1.1622,-0.04806 1.245,-0.04806 0.1575,0 0.36,0.02443 0.3466,0.11975 -0.0126,0.11975 -0.0953,0.1678 -0.3585,0.23949 -0.5019,0.1552 -0.6342,0.37185 -0.6468,0.93356 0,0.34664 -0.0245,1.87973 0,2.1917 0,0.09454 0.0953,0.20247 0.1308,0.20247 0.2403,0.02363 2.5993,-0.01103 4.4556,-0.01103 0.0969,0 0.1426,-0.03545 0.1426,-0.2521 0,-0.59874 -0.0229,-1.42437 -0.0457,-1.92778 -0.037,-0.84848 -0.0969,-0.98162 -0.7438,-1.17305 -0.1308,-0.03546 -0.2632,-0.10872 -0.2632,-0.21508 0,-0.10793 0.119,-0.13314 0.2987,-0.13314 0.2403,0 1.1377,0.07327 1.4024,0.07327 0.3704,0 0.8029,-0.03703 0.992,-0.03703 0.2277,0 0.3372,0.03703 0.3372,0.13157 0,0.0835 -0.1095,0.16859 -0.2757,0.22846 -0.5382,0.15599 -0.658,0.20326 -0.6831,0.67122 0,0.17805 -0.0473,1.24475 -0.0473,1.771 0,2.0365 0.0354,3.34112 0.0969,3.95246 0.0228,0.34585 0.1181,0.56093 0.6216,0.68067 0.2522,0.06145 0.3475,0.14496 0.3475,0.20483 0,0.09533 -0.1426,0.14339 -0.3356,0.14339 -0.1309,0 -0.6831,-0.03545 -1.0905,-0.03545 -0.2986,0 -1.0653,0.02363 -1.2221,0.02363 -0.2505,0 -0.3711,-0.04806 -0.3711,-0.13157 0,-0.10793 0.1324,-0.17962 0.3002,-0.22767 0.539,-0.14338 0.6217,-0.24029 0.6587,-0.68304 0.0355,-0.46638 0.0355,-2.0365 0.0229,-2.19091 -0.0229,-0.23949 -0.0599,-0.31118 -0.1308,-0.31118 -2.1187,0 -3.7481,-0.03624 -4.4533,-0.03624 -0.0843,0 -0.1197,0.01103 -0.1323,0.23949" /><path
               id="path60"
               style="fill:#a3a510;fill-opacity:1;fill-rule:evenodd;stroke:none"
               d="m 191.3593,42.35853 c -0.8383,0 -1.4018,-0.25131 -1.7728,-0.58613 -0.4066,-0.35925 -0.658,-0.8989 -0.658,-1.4614 0,-1.01785 0.7179,-1.71192 1.7366,-2.37052 1.2575,-0.80279 1.4971,-1.34086 1.4971,-1.84349 0,-0.86186 -0.6225,-1.45036 -1.4507,-1.45036 -0.4537,0 -1.2448,0.30015 -1.5568,0.95955 -0.167,0.37106 -0.3458,0.68225 -0.442,0.68225 -0.0473,0 -0.167,-0.17962 -0.167,-0.22847 0,-0.19064 0.1197,-0.71691 0.1781,-1.12499 0,-0.04806 0.1567,-0.31119 0.2765,-0.38288 0.3711,-0.17962 1.1849,-0.31119 1.5679,-0.31119 0.5405,0 1.2457,0.17962 1.6286,0.43094 0.6461,0.4199 0.9833,1.08876 0.9833,1.68828 0,1.07694 -0.7311,1.69931 -1.6546,2.32247 -1.0535,0.70667 -1.6632,1.07773 -1.6632,1.92778 0,0.80278 0.5751,1.40073 1.3772,1.40073 0.3459,0 0.6343,-0.10714 0.8494,-0.27573 0.1197,-0.0709 0.4444,-0.43014 0.5878,-0.86187 0.0457,-0.16701 0.1906,-0.25131 0.286,-0.25131 0.0851,0 0.0851,0.11975 0.0851,0.32379 0,0.04727 -0.0962,0.74133 -0.1206,0.9698 0,0.02363 -0.071,0.20326 -0.1426,0.22768 -0.2167,0.03545 -0.8391,0.21507 -1.4253,0.21507" /><path
               id="path62"
               style="fill:#a3a510;fill-opacity:1;fill-rule:evenodd;stroke:none"
               d="m 195.7505,42.03537 c 0,-0.10793 0.1316,-0.1678 0.275,-0.20325 0.4562,-0.09612 0.6232,-0.28756 0.6477,-0.51524 0.0118,-0.1552 0.0457,-1.11396 0.0457,-2.8377 0,-2.0105 0.2891,-2.88497 0.9596,-3.51916 0.2876,-0.2647 1.0889,-0.70746 2.1675,-0.70746 0.5264,0 1.1732,0.07169 1.724,0.38288 0.862,0.47899 1.4371,1.53309 1.497,3.61606 0.0228,0.62237 0.0961,1.95142 0.1079,2.46744 0.0229,0.75393 0.2632,0.9564 0.7777,1.10136 0.1686,0.05987 0.264,0.14338 0.264,0.21507 0,0.09611 -0.108,0.13156 -0.2995,0.13156 -0.3364,0 -0.5869,-0.02363 -1.077,-0.02363 -0.3837,0 -0.7194,0.03545 -1.0188,0.03545 -0.2033,0 -0.275,-0.04727 -0.275,-0.11975 0,-0.08351 0.1316,-0.19143 0.2514,-0.21507 0.6705,-0.15598 0.7548,-0.323 0.791,-0.77914 0.0119,-0.14339 0.0465,-0.76576 0.0465,-1.54412 0,-1.36449 -0.1189,-2.37132 -0.2631,-3.00551 -0.2994,-1.31722 -1.46,-1.67489 -2.2393,-1.67489 -0.6224,0 -1.4009,0.28598 -1.7365,0.65783 -0.3711,0.41911 -0.6705,0.93356 -0.6705,2.28702 0,1.7001 -0.0126,2.94485 0.0473,3.33954 0.0725,0.47977 0.3002,0.59952 0.7312,0.68224 0.2276,0.04885 0.36,0.13236 0.36,0.22847 0,0.09611 -0.1426,0.13156 -0.3719,0.13156 -0.2631,0 -0.7193,-0.02363 -1.1613,-0.02363 -0.4436,0 -0.7296,0.03545 -1.2339,0.03545 -0.1907,0 -0.3467,-0.04727 -0.3467,-0.14338" /><path
               id="path64"
               style="fill:#a3a510;fill-opacity:1;fill-rule:evenodd;stroke:none"
               d="m 210.9908,39.8562 c 0,-1.3771 -0.8856,-1.9396 -1.5206,-1.9396 l -0.2995,0 c -0.0961,0 -0.1426,-0.05987 -0.1426,-0.10792 0,-0.07169 0.0599,-0.13156 0.2033,-0.19145 0.1915,-0.07168 0.5019,-0.0835 0.6343,-0.0835 0.5145,0 1.0652,0.26313 1.3764,0.52626 0.3482,0.29937 0.84,0.79096 0.84,1.85608 0,0.3947 -0.1206,1.07694 -0.695,1.62842 -0.4444,0.41911 -1.1503,0.70588 -2.24,0.70588 -0.5988,0 -1.5214,-0.09533 -1.9989,-0.09533 -0.1087,0 -0.3112,0.01181 -0.3963,0 -0.1545,-0.01182 -0.275,-0.0709 -0.275,-0.1678 0,-0.0717 0.1316,-0.14339 0.3711,-0.17962 0.6713,-0.09533 0.6579,-0.26313 0.6713,-0.69407 0.0118,-0.38366 0.0354,-2.92199 0.0354,-3.31669 0,-0.59953 -0.0236,-1.59138 -0.0606,-2.16728 -0.0363,-0.50262 -0.1671,-0.73109 -0.8368,-0.88628 -0.1197,-0.03467 -0.2403,-0.10793 -0.2403,-0.19066 0,-0.10871 0.1316,-0.16859 0.3349,-0.16859 0.3719,0 0.8627,0.04806 1.2086,0.04806 0.5279,0 0.9589,-0.04806 1.2591,-0.04806 0.1796,0 0.394,0.03702 0.394,0.14338 0,0.10794 -0.0946,0.16781 -0.3224,0.22769 -0.6113,0.17961 -0.7074,0.27494 -0.7193,1.05408 0,0.29937 -0.0236,1.30541 -0.0236,2.39495 0.0118,1.37632 0.0118,2.86055 0.0236,3.11266 0.0119,0.28756 0.0725,0.43094 0.1198,0.46717 0.0968,0.05987 0.2159,0.10714 0.3475,0.10714 1.1259,0 1.9516,-0.94537 1.9516,-2.03492" /><path
               id="path66"
               style="fill:#a3a510;fill-opacity:1;fill-rule:evenodd;stroke:none"
               d="m 219.0953,39.8562 c 0,-1.3771 -0.8856,-1.9396 -1.5222,-1.9396 l -0.2979,0 c -0.0969,0 -0.1426,-0.05987 -0.1426,-0.10792 0,-0.07169 0.0583,-0.13156 0.2033,-0.19145 0.1907,-0.07168 0.5019,-0.0835 0.6334,-0.0835 0.5146,0 1.0661,0.26313 1.3773,0.52626 0.3467,0.29937 0.8376,0.79096 0.8376,1.85608 0,0.3947 -0.1206,1.07694 -0.6942,1.62842 -0.4436,0.41911 -1.1495,0.70588 -2.24,0.70588 -0.598,0 -1.5199,-0.09533 -1.9997,-0.09533 -0.1064,0 -0.3104,0.01181 -0.3939,0 -0.1569,-0.01182 -0.2766,-0.0709 -0.2766,-0.1678 0,-0.0717 0.1324,-0.14339 0.3711,-0.17962 0.6713,-0.09533 0.6595,-0.26313 0.6713,-0.69407 0.0126,-0.38366 0.0362,-2.92199 0.0362,-3.31669 0,-0.59953 -0.0236,-1.59138 -0.0598,-2.16728 -0.0363,-0.50262 -0.1679,-0.73109 -0.8392,-0.88628 -0.1197,-0.03467 -0.2387,-0.10793 -0.2387,-0.19066 0,-0.10871 0.1324,-0.16859 0.3357,-0.16859 0.371,0 0.8619,0.04806 1.2078,0.04806 0.5279,0 0.9597,-0.04806 1.2575,-0.04806 0.1805,0 0.3963,0.03702 0.3963,0.14338 0,0.10794 -0.0961,0.16781 -0.3222,0.22769 -0.6122,0.17961 -0.7083,0.27494 -0.7202,1.05408 0,0.29937 -0.0236,1.30541 -0.0236,2.39495 0.0126,1.37632 0.0126,2.86055 0.0236,3.11266 0.0119,0.28756 0.0725,0.43094 0.1198,0.46717 0.0969,0.05987 0.2167,0.10714 0.3474,0.10714 1.1268,0 1.9525,-0.94537 1.9525,-2.03492" /><path
               id="path68"
               style="fill:#a3a510;fill-opacity:1;fill-rule:evenodd;stroke:none"
               d="m 227.0074,42.35853 c -0.8383,0 -1.8681,-0.36003 -2.4559,-0.83744 -0.9092,-0.7311 -1.5561,-1.74816 -1.5561,-3.22137 0,-1.03046 0.3593,-1.99947 0.9943,-2.70536 0.7304,-0.83902 1.8926,-1.36527 3.1131,-1.36527 0.6106,0 1.6049,0.16701 2.3589,0.69406 0.8746,0.62316 1.7003,1.79621 1.7003,3.47189 0,2.27521 -1.8563,3.96349 -4.1546,3.96349 m -0.2632,-0.39469 c 0.5492,0 1.304,-0.25132 1.7957,-0.6468 0.8848,-0.71848 1.4482,-1.97505 1.4482,-3.28045 0,-1.42516 -0.5374,-2.39574 -1.0172,-2.8251 -0.1316,-0.14496 -0.5862,-0.57589 -1.5806,-0.57589 -1.9154,0 -3.2327,2.04752 -3.2327,3.83192 0,1.39995 0.4058,2.29884 0.9336,2.81407 0.42,0.41833 1.1488,0.68225 1.653,0.68225" /><path
               id="path70"
               style="fill:#a3a510;fill-opacity:1;fill-rule:evenodd;stroke:none"
               d="m 239.3861,40.20315 c 0,0.57511 -0.2876,1.17306 -0.6831,1.49685 -0.4791,0.39548 -1.1251,0.50262 -1.9517,0.50262 -0.6476,0 -1.497,-0.05908 -1.9421,-0.05908 l -0.669,0 c -0.2631,0 -0.3214,-0.05988 -0.3214,-0.14496 0,-0.09454 0.1055,-0.15441 0.286,-0.20326 0.5381,-0.13156 0.6461,-0.15519 0.6941,-0.59795 0.0473,-0.46717 0.0709,-1.55671 0.0709,-3.40099 0,-0.71691 -0.0465,-1.98765 -0.0709,-2.35871 -0.0354,-0.45457 -0.2513,-0.52626 -0.7776,-0.69406 -0.1568,-0.05988 -0.2632,-0.08351 -0.2632,-0.17963 0,-0.12053 0.1544,-0.16859 0.3096,-0.16859 0.1324,0 0.7556,0.04806 0.9707,0.04806 0.8147,0 1.0424,-0.0709 1.5451,-0.0709 0.0607,0 0.2884,0.03466 0.2884,0.15441 0,0.06145 -0.0851,0.14496 -0.2884,0.20483 -0.5625,0.13156 -0.6941,0.29858 -0.7185,0.80278 -0.0355,0.69406 -0.0615,2.21376 -0.0473,2.4178 0,0.03545 0.0599,0.14417 0.1426,0.14417 0.3601,0 0.8036,-0.10872 0.8509,-0.15677 0.0709,-0.04727 0.3112,-0.34664 0.4791,-0.59717 0.4782,-0.75472 1.0896,-1.67646 1.508,-2.25078 0.3475,-0.44511 1.0298,-0.77993 1.5924,-0.77993 0.2529,0 0.5161,0.02521 0.6602,0.0835 0.071,0.03703 0.1663,0.08509 0.1663,0.15678 0,0.04806 -0.0953,0.14338 -0.1923,0.1678 -0.5263,0.10714 -0.8493,0.32301 -1.1723,0.70667 -0.7298,0.81381 -1.7374,2.42962 -1.8564,2.71717 -0.0244,0.04727 0.0126,0.15599 0.0481,0.17962 0.0843,0.05908 0.3104,0.1678 0.3711,0.20404 0.5878,0.35924 0.9707,1.02889 0.9707,1.67568 m -1.0668,-0.02363 c 0,-0.75473 -0.4672,-1.28099 -0.7903,-1.48503 -0.1662,-0.10793 -0.8021,-0.31198 -1.4962,-0.31198 -0.0725,0 -0.1678,0.08509 -0.1923,0.18041 -0.037,0.20405 0,2.51471 0.0371,2.93303 0,0.04885 0.0827,0.22847 0.1434,0.25131 0.1307,0.05988 0.5137,0.08509 0.5736,0.08509 0.3829,0 0.9005,-0.17962 1.1865,-0.45614 0.3475,-0.34664 0.5382,-0.90914 0.5382,-1.19669" /><path
               id="path72"
               style="fill:#a3a510;fill-opacity:1;fill-rule:evenodd;stroke:none"
               d="m 245.8125,42.11888 c -1.5325,0 -2.4898,0.03624 -2.8026,0.07248 -0.1781,0.01103 -0.3703,0.19144 -0.4058,0.22689 -0.1323,0.10872 -0.1323,0.19143 -0.1922,0.19143 -0.0725,0 -0.1789,-0.10714 -0.1789,-0.19143 0,-0.70589 -0.2277,-1.35189 -0.2277,-1.57957 0,-0.11817 0.0465,-0.27416 0.1198,-0.27416 0.048,0 0.1206,-0.0126 0.2277,0.23871 0.2033,0.3947 0.3467,0.58613 0.3939,0.62159 0.1805,0.20325 0.4326,0.27494 0.8864,0.27494 0.1931,0 1.2449,-0.02442 1.4852,-0.05909 0.0355,0 0.0954,-0.05987 0.0954,-0.15598 l 0,-1.422 c 0,-0.92096 -0.0599,-3.35924 -0.0828,-4.06512 -0.0354,-0.89574 -0.0598,-1.099 -0.8974,-1.29044 -0.1095,-0.02364 -0.2293,-0.12053 -0.2293,-0.20325 0,-0.0717 0.1198,-0.14339 0.3601,-0.14339 0.1552,0 0.7666,0.08351 1.3655,0.08351 0.5263,0 1.2693,-0.05987 1.3646,-0.05987 0.1182,0 0.3356,0.01182 0.3356,0.14338 0,0.08429 -0.1678,0.17962 -0.323,0.21586 -0.7438,0.16702 -0.8021,0.3104 -0.862,0.84769 -0.0496,0.44275 -0.0496,1.57877 -0.0496,2.96533 l 0,2.9283 c 0,0.02442 0.0496,0.14338 0.1095,0.15598 0.1434,0.03467 1.471,0.03467 1.6759,0.02364 0.743,-0.03624 0.8974,-0.09611 0.9691,-0.7177 0.0371,-0.29779 0.0835,-0.38209 0.1678,-0.38209 0.097,0 0.1923,0.11896 0.2033,0.22689 0.0725,0.62158 0.145,0.99265 0.2648,1.36371 0.0583,0.1678 0.0126,0.27495 -0.0489,0.27495 -0.0481,0 -0.0835,-0.02364 -0.1678,-0.0717 -0.1678,-0.11975 -0.3821,-0.19144 -0.8147,-0.21507 -0.4909,-0.01182 -2.1187,-0.02442 -2.7419,-0.02442" /><path
               id="path74"
               style="fill:#a3a510;fill-opacity:1;fill-rule:evenodd;stroke:none"
               d="m 257.8618,42.35853 c -0.8383,0 -1.4017,-0.25131 -1.7727,-0.58613 -0.4083,-0.35925 -0.6587,-0.8989 -0.6587,-1.4614 0,-1.01785 0.7185,-1.71192 1.7357,-2.37052 1.2575,-0.80279 1.4978,-1.34086 1.4978,-1.84349 0,-0.86186 -0.6233,-1.45036 -1.4482,-1.45036 -0.4554,0 -1.2465,0.30015 -1.5576,0.95955 -0.1663,0.37106 -0.3459,0.68225 -0.4429,0.68225 -0.0481,0 -0.1678,-0.17962 -0.1678,-0.22847 0,-0.19064 0.1197,-0.71691 0.1797,-1.12499 0,-0.04806 0.156,-0.31119 0.2758,-0.38288 0.3726,-0.17962 1.1865,-0.31119 1.5679,-0.31119 0.5405,0 1.2464,0.17962 1.6293,0.43094 0.6469,0.4199 0.9826,1.08876 0.9826,1.68828 0,1.07694 -0.7313,1.69931 -1.653,2.32247 -1.0543,0.70667 -1.6634,1.07773 -1.6634,1.92778 0,0.80278 0.5736,1.40073 1.3757,1.40073 0.3475,0 0.635,-0.10714 0.8494,-0.27573 0.1198,-0.0709 0.4428,-0.43014 0.5877,-0.86187 0.049,-0.16701 0.1923,-0.25131 0.2861,-0.25131 0.0851,0 0.0851,0.11975 0.0851,0.32379 0,0.04727 -0.0962,0.74133 -0.119,0.9698 0,0.02363 -0.0725,0.20326 -0.1442,0.22768 -0.2158,0.03545 -0.8391,0.21507 -1.4253,0.21507" /><path
               id="path76"
               style="fill:#a3a510;fill-opacity:1;fill-rule:evenodd;stroke:none"
               d="m 264.0343,42.14346 c -0.8037,0 -1.2693,0.04805 -1.8311,0.04805 -0.1694,0 -0.3372,-0.06066 -0.3372,-0.1678 0,-0.09611 0.0969,-0.14338 0.3474,-0.20404 0.5263,-0.11975 0.6469,-0.26392 0.6713,-0.79018 0.0229,-0.34743 0.0126,-0.59874 0.0126,-2.02389 0,-1.48424 -0.0607,-2.89679 -0.0969,-3.39942 -0.0465,-0.64601 -0.2742,-0.73109 -0.8746,-0.87447 -0.1906,-0.04806 -0.334,-0.10793 -0.334,-0.19144 0,-0.13314 0.1308,-0.15677 0.3577,-0.15677 0.457,0 0.7201,0.06066 1.3536,0.06066 1.9532,0 3.7599,-0.09533 3.8922,-0.09533 0.0599,0 0.1694,0.09533 0.2041,0.14339 0.0835,0.10793 0.4192,1.18487 0.431,1.28019 0.0236,0.13157 -0.0118,0.32458 -0.0969,0.32458 -0.0717,0 -0.1426,-0.07327 -0.275,-0.33639 -0.2884,-0.5625 -0.6114,-0.78939 -0.9927,-0.88551 -0.2632,-0.07169 -0.9944,-0.0835 -1.1386,-0.0835 -0.479,0 -0.8864,0.04805 -1.0897,0.0835 -0.0834,0.02364 -0.1804,0.11975 -0.2261,0.26313 -0.0741,0.19302 -0.1205,0.64758 -0.1205,0.99422 0,0.51366 -0.0118,1.62841 0.0354,1.87973 0,0.02442 0.0583,0.10792 0.108,0.10792 0.323,0 0.8021,0 1.185,-0.02363 0.7312,-0.03703 0.78,-0.07248 0.9463,-0.62237 0.037,-0.13156 0.1197,-0.26313 0.2048,-0.26313 0.0828,0 0.1426,0.13157 0.1308,0.34585 -0.0126,0.2395 -0.0354,0.40809 -0.0354,0.73109 0,0.28755 0.011,0.52626 0.0354,0.86265 0.0118,0.09454 -0.0126,0.26313 -0.0953,0.26313 -0.0725,0 -0.145,-0.07169 -0.2175,-0.2521 -0.2151,-0.55068 -0.2631,-0.59873 -1.3875,-0.59873 l -0.7792,0 c -0.0599,0 -0.0702,0.07248 -0.0844,0.11974 -0.0228,0.17963 0.0142,2.43041 0.0371,2.73056 0.0244,0.27416 0.1568,0.33482 0.1797,0.33482 0.5263,0.02443 1.3882,0 1.6994,-0.04805 0.383,-0.05987 0.6477,-0.17883 0.8029,-0.81381 0.0229,-0.12054 0.0851,-0.28755 0.1907,-0.28755 0.1095,0 0.1804,0.14338 0.1804,0.31197 0,0.23949 -0.0228,0.58535 -0.0228,1.13681 -0.0126,0.05988 -0.0725,0.14417 -0.108,0.13157 -0.1804,-0.02364 -0.7083,-0.03545 -1.1022,-0.03545 l -1.7602,0 z" /><path
               id="path78"
               style="fill:#a3a510;fill-opacity:1;fill-rule:evenodd;stroke:none"
               d="m 275.225,40.20315 c 0,0.57511 -0.2892,1.17306 -0.6847,1.49685 -0.479,0.39548 -1.1251,0.50262 -1.95,0.50262 -0.6477,0 -1.497,-0.05908 -1.9407,-0.05908 l -0.6704,0 c -0.2633,0 -0.3231,-0.05988 -0.3231,-0.14496 0,-0.09454 0.1071,-0.15441 0.286,-0.20326 0.5398,-0.13156 0.6477,-0.15519 0.6958,-0.59795 0.0473,-0.46717 0.0709,-1.55671 0.0709,-3.40099 0,-0.71691 -0.0465,-1.98765 -0.0709,-2.35871 -0.0356,-0.45457 -0.2514,-0.52626 -0.7793,-0.69406 -0.1552,-0.05988 -0.2631,-0.08351 -0.2631,-0.17963 0,-0.12053 0.156,-0.16859 0.3128,-0.16859 0.1308,0 0.754,0.04806 0.9675,0.04806 0.8147,0 1.0439,-0.0709 1.5451,-0.0709 0.0607,0 0.2884,0.03466 0.2884,0.15441 0,0.06145 -0.0851,0.14496 -0.2884,0.20483 -0.561,0.13156 -0.6934,0.29858 -0.7187,0.80278 -0.0353,0.69406 -0.0583,2.21376 -0.0456,2.4178 0,0.03545 0.0599,0.14417 0.1426,0.14417 0.3585,0 0.8021,-0.10872 0.8509,-0.15677 0.0709,-0.04727 0.3113,-0.34664 0.4776,-0.59717 0.4797,-0.75472 1.0911,-1.67646 1.5096,-2.25078 0.3474,-0.44511 1.0298,-0.77993 1.5923,-0.77993 0.2529,0 0.516,0.02521 0.6586,0.0835 0.0726,0.03703 0.1663,0.08509 0.1663,0.15678 0,0.04806 -0.0937,0.14338 -0.1891,0.1678 -0.5263,0.10714 -0.8509,0.32301 -1.1756,0.70667 -0.728,0.81381 -1.7357,2.42962 -1.8547,2.71717 -0.0244,0.04727 0.0111,0.15599 0.0481,0.17962 0.0828,0.05908 0.3105,0.1678 0.3726,0.20404 0.5863,0.35924 0.9692,1.02889 0.9692,1.67568 m -1.0669,-0.02363 c 0,-0.75473 -0.4671,-1.28099 -0.7901,-1.48503 -0.168,-0.10793 -0.8038,-0.31198 -1.4979,-0.31198 -0.0709,0 -0.1679,0.08509 -0.1906,0.18041 -0.0356,0.20405 0,2.51471 0.037,2.93303 0,0.04885 0.0827,0.22847 0.1434,0.25131 0.1307,0.05988 0.5137,0.08509 0.5736,0.08509 0.3828,0 0.8989,-0.17962 1.185,-0.45614 0.3475,-0.34664 0.5396,-0.90914 0.5396,-1.19669" /><path
               id="path80"
               style="fill:#a3a510;fill-opacity:1;fill-rule:evenodd;stroke:none"
               d="m 277.1101,42.04727 c 0,-0.10794 0.1324,-0.15599 0.2758,-0.20326 0.5263,-0.15677 0.7769,-0.45536 1.0171,-1.05409 0.1781,-0.43094 1.3182,-3.32852 1.7248,-4.41806 0.3475,-0.87368 0.5491,-1.60478 0.6217,-1.95141 0.0244,-0.13157 0.1197,-0.22768 0.1906,-0.22768 0.1205,0 0.2049,0.14417 0.2514,0.27573 0.2781,0.90914 0.4325,1.2093 1.1259,2.89758 0.7312,1.80803 1.0314,2.32168 1.5805,3.51995 0.2529,0.52705 0.5161,0.81381 1.0424,0.94616 0.1686,0.03467 0.312,0.10714 0.312,0.20326 0,0.10793 -0.1812,0.15599 -0.3475,0.15599 -0.2513,0 -0.7311,-0.04806 -1.0794,-0.04806 -0.4058,0 -0.6815,0.02363 -0.9549,0.02363 -0.1946,0 -0.3483,-0.05987 -0.3483,-0.14338 0,-0.07248 0.0954,-0.1678 0.2632,-0.21665 0.5137,-0.15441 0.8391,-0.29858 0.5523,-0.96822 -0.5413,-1.29359 -1.8445,-4.37079 -1.9422,-4.6221 -0.0347,-0.0843 -0.0953,-0.01181 -0.1197,0.01182 -0.4294,1.02888 -1.7248,4.38181 -1.9265,5.00419 -0.0496,0.19144 -0.0724,0.45457 0.5618,0.57431 0.2277,0.03703 0.286,0.13235 0.286,0.21665 0,0.08351 -0.1308,0.14338 -0.286,0.14338 -0.2742,0 -0.7666,-0.02363 -1.1834,-0.02363 -0.5878,0 -1.0204,0.05909 -1.2575,0.05909 -0.1812,0 -0.3601,-0.05909 -0.3601,-0.1552" /><path
               id="path82"
               style="fill:#a3a510;fill-opacity:1;fill-rule:evenodd;stroke:none"
               d="m 287.6176,38.34785 c 0,-1.01785 -0.026,-2.2626 -0.0614,-2.68171 -0.0465,-0.56329 -0.097,-0.74291 -0.6926,-0.87448 -0.2403,-0.04805 -0.3601,-0.11974 -0.3601,-0.20325 0,-0.0843 0.0812,-0.16781 0.3104,-0.16781 0.4436,0 0.5532,0.02285 0.9085,0.02285 0.3246,0 1.1755,-0.0709 1.7862,-0.0709 0.1434,0 0.3222,0.05987 0.3222,0.15441 0,0.08508 -0.0945,0.16859 -0.3096,0.20483 -0.7785,0.1552 -0.8383,0.38288 -0.8738,1.02888 -0.0237,0.38288 -0.0355,1.12579 -0.0355,1.7844 0,2.3469 0.0118,3.12526 0.071,3.51995 0.0488,0.32379 0.0338,0.62237 0.7288,0.76733 0.1938,0.03467 0.3143,0.10714 0.3143,0.20326 0,0.09532 -0.1095,0.14338 -0.3017,0.14338 -0.4184,0 -0.6926,-0.03545 -1.2804,-0.03545 -0.3955,0 -0.9943,0.03545 -1.3063,0.03545 -0.1678,0 -0.2987,-0.04806 -0.2987,-0.14338 0,-0.0843 0.0726,-0.16859 0.3357,-0.21587 0.6705,-0.11974 0.6705,-0.29858 0.7044,-0.84926 0.026,-0.39548 0.0386,-1.88051 0.0386,-2.62263" /><path
               id="path84"
               style="fill:#a3a510;fill-opacity:1;fill-rule:evenodd;stroke:none"
               d="m 296.4353,42.35853 c -1.1015,0 -2.2163,-0.26313 -3.2453,-1.10136 -0.5036,-0.41833 -1.3159,-1.50866 -1.3159,-2.87395 0,-1.36527 0.5492,-2.22636 1.0062,-2.75419 0.4759,-0.5625 1.7097,-1.39994 3.3999,-1.39994 1.017,0 1.9877,0.25131 2.1769,0.33482 0.1205,0.05987 0.3253,0.20325 0.3726,0.31118 0.1694,0.27495 0.4436,0.91071 0.4783,1.21008 0.0236,0.13157 0.0126,0.3947 -0.1071,0.3947 -0.0465,0 -0.0938,-0.05988 -0.2513,-0.31119 -0.2877,-0.50262 -0.5847,-0.8855 -1.1142,-1.16202 -0.4909,-0.28677 -1.0755,-0.32301 -1.3048,-0.32301 -0.9691,0 -2.3589,0.53965 -3.0286,1.91597 -0.2664,0.52625 -0.42,1.17305 -0.42,1.97583 0,1.80803 1.233,3.4002 3.1626,3.4002 0.6461,0 1.2575,-0.13156 1.9154,-0.62237 0.1545,-0.12053 0.3837,-0.47978 0.4917,-0.89889 0.0583,-0.17884 0.1307,-0.31119 0.1891,-0.31119 0.0969,0 0.1938,0.14417 0.1812,0.39548 -0.0229,0.26313 -0.0843,0.79018 -0.0843,1.04149 0,0.27574 -0.1205,0.35924 -0.1789,0.35924 -0.1812,0.02443 -0.5988,0.17963 -0.9124,0.22768 -0.4522,0.10793 -0.9943,0.19144 -1.4111,0.19144" /><path
               id="path86"
               style="fill:#a3a510;fill-opacity:1;fill-rule:evenodd;stroke:none"
               d="m 303.6496,42.14346 c -0.8037,0 -1.2678,0.04805 -1.8327,0.04805 -0.1663,0 -0.3357,-0.06066 -0.3357,-0.1678 0,-0.09611 0.097,-0.14338 0.3475,-0.20404 0.5263,-0.11975 0.6469,-0.26392 0.6697,-0.79018 0.026,-0.34743 0.0142,-0.59874 0.0142,-2.02389 0,-1.48424 -0.0606,-2.89679 -0.0953,-3.39942 -0.0512,-0.64601 -0.2758,-0.73109 -0.8746,-0.87447 -0.1938,-0.04806 -0.3372,-0.10793 -0.3372,-0.19144 0,-0.13314 0.1324,-0.15677 0.3601,-0.15677 0.4562,0 0.7193,0.06066 1.3544,0.06066 1.95,0 3.7599,-0.09533 3.8906,-0.09533 0.0615,0 0.1663,0.09533 0.2041,0.14339 0.0819,0.10793 0.4192,1.18487 0.4294,1.28019 0.0252,0.13157 -0.0102,0.32458 -0.0953,0.32458 -0.0709,0 -0.1426,-0.07327 -0.275,-0.33639 -0.2868,-0.5625 -0.6114,-0.78939 -0.9943,-0.88551 -0.2632,-0.07169 -0.9944,-0.0835 -1.137,-0.0835 -0.479,0 -0.8848,0.04805 -1.0897,0.0835 -0.0835,0.02364 -0.1788,0.11975 -0.2292,0.26313 -0.0694,0.19302 -0.1174,0.64758 -0.1174,0.99422 0,0.51366 -0.0134,1.62841 0.0354,1.87973 0,0.02442 0.0583,0.10792 0.108,0.10792 0.3214,0 0.8021,0 1.185,-0.02363 0.7312,-0.03703 0.7769,-0.07248 0.9463,-0.62237 0.0354,-0.13156 0.1197,-0.26313 0.2032,-0.26313 0.0844,0 0.1458,0.13157 0.1308,0.34585 -0.0126,0.2395 -0.0354,0.40809 -0.0354,0.73109 0,0.28755 0.0126,0.52626 0.0354,0.86265 0.015,0.09454 -0.0126,0.26313 -0.0937,0.26313 -0.0725,0 -0.1434,-0.07169 -0.2159,-0.2521 -0.2167,-0.55068 -0.2632,-0.59873 -1.3891,-0.59873 l -0.7777,0 c -0.0614,0 -0.0732,0.07248 -0.0843,0.11974 -0.0228,0.17963 0.0111,2.43041 0.0355,2.73056 0.0228,0.27416 0.1536,0.33482 0.1796,0.33482 0.5264,0.02443 1.3898,0 1.6995,-0.04805 0.3829,-0.05987 0.6461,-0.17883 0.8045,-0.81381 0.0228,-0.12054 0.0819,-0.28755 0.1891,-0.28755 0.1079,0 0.182,0.14338 0.182,0.31197 0,0.23949 -0.026,0.58535 -0.026,1.13681 -0.0126,0.05988 -0.0709,0.14417 -0.1064,0.13157 -0.1804,-0.02364 -0.7067,-0.03545 -1.1022,-0.03545 l -1.7602,0 z" /><path
               id="path88"
               style="fill:#a3a510;fill-opacity:1;fill-rule:evenodd;stroke:none"
               d="m 312.1812,42.35853 c -0.8384,0 -1.4002,-0.25131 -1.7713,-0.58613 -0.4097,-0.35925 -0.6619,-0.8989 -0.6619,-1.4614 0,-1.01785 0.7202,-1.71192 1.7374,-2.37052 1.2576,-0.80279 1.4978,-1.34086 1.4978,-1.84349 0,-0.86186 -0.6233,-1.45036 -1.4482,-1.45036 -0.4554,0 -1.2448,0.30015 -1.5576,0.95955 -0.1679,0.37106 -0.3475,0.68225 -0.4412,0.68225 -0.0512,0 -0.1694,-0.17962 -0.1694,-0.22847 0,-0.19064 0.1182,-0.71691 0.1796,-1.12499 0,-0.04806 0.156,-0.31119 0.2758,-0.38288 0.371,-0.17962 1.1833,-0.31119 1.5662,-0.31119 0.5422,0 1.2465,0.17962 1.631,0.43094 0.647,0.4199 0.9809,1.08876 0.9809,1.68828 0,1.07694 -0.7279,1.69931 -1.653,2.32247 -1.0525,0.70667 -1.6632,1.07773 -1.6632,1.92778 0,0.80278 0.5736,1.40073 1.3772,1.40073 0.3475,0 0.6336,-0.10714 0.851,-0.27573 0.1197,-0.0709 0.4412,-0.43014 0.5847,-0.86187 0.0487,-0.16701 0.1922,-0.25131 0.289,-0.25131 0.082,0 0.082,0.11975 0.082,0.32379 0,0.04727 -0.0946,0.74133 -0.1205,0.9698 0,0.02363 -0.0694,0.20326 -0.1426,0.22768 -0.2128,0.03545 -0.836,0.21507 -1.4237,0.21507" /><path
               id="path90"
               style="fill:#a3a510;fill-opacity:1;fill-rule:evenodd;stroke:none"
               d="m 193.2391,61.73574 c -1.1015,0 -2.2164,-0.26313 -3.2446,-1.10137 -0.5035,-0.4199 -1.3174,-1.50866 -1.3174,-2.87315 0,-1.36527 0.5492,-2.22794 1.0054,-2.75419 0.4798,-0.56251 1.7121,-1.40152 3.4006,-1.40152 1.0187,0 1.9879,0.25131 2.1785,0.3356 0.1206,0.05987 0.3239,0.20405 0.3719,0.31119 0.1686,0.27573 0.4436,0.90992 0.4791,1.20929 0.0236,0.13156 0.0126,0.39469 -0.1072,0.39469 -0.0488,0 -0.0953,-0.05987 -0.2521,-0.31118 -0.2868,-0.50263 -0.5862,-0.8855 -1.1141,-1.16045 -0.4893,-0.28754 -1.0771,-0.32379 -1.3056,-0.32379 -0.9683,0 -2.3574,0.53808 -3.0287,1.91517 -0.2632,0.52784 -0.4192,1.17385 -0.4192,1.97662 0,1.80804 1.2339,3.40021 3.1619,3.40021 0.6461,0 1.2575,-0.13235 1.9154,-0.62238 0.156,-0.12053 0.3845,-0.47899 0.4917,-0.89888 0.0598,-0.17962 0.1308,-0.31119 0.1922,-0.31119 0.0953,0 0.1899,0.14417 0.1781,0.39548 -0.0229,0.26392 -0.0828,0.79018 -0.0828,1.04149 0,0.27574 -0.1205,0.36003 -0.1804,0.36003 -0.1796,0.02285 -0.5988,0.17961 -0.9092,0.22689 -0.4554,0.10793 -0.9944,0.19144 -1.4135,0.19144" /><path
               id="path92"
               style="fill:#a3a510;fill-opacity:1;fill-rule:evenodd;stroke:none"
               d="m 202.7916,61.73574 c -0.8383,0 -1.8681,-0.35925 -2.4551,-0.83824 -0.91,-0.73029 -1.5553,-1.74815 -1.5553,-3.22057 0,-1.02967 0.3577,-1.99947 0.9935,-2.70615 0.7296,-0.83744 1.8918,-1.36527 3.1138,-1.36527 0.6091,0 1.6034,0.16858 2.3574,0.69485 0.8746,0.62237 1.7003,1.79543 1.7003,3.47268 0,2.27442 -1.8547,3.9627 -4.1546,3.9627 m -0.2631,-0.39548 c 0.5499,0 1.304,-0.25131 1.7956,-0.64601 0.8864,-0.71849 1.4497,-1.97584 1.4497,-3.28124 0,-1.42437 -0.5389,-2.39417 -1.0187,-2.8251 -0.1316,-0.14339 -0.5862,-0.57432 -1.5806,-0.57432 -1.9153,0 -3.2327,2.04674 -3.2327,3.83113 0,1.40153 0.4073,2.29885 0.9336,2.81329 0.42,0.41912 1.1504,0.68225 1.6531,0.68225" /><path
               id="path94"
               style="fill:#a3a510;fill-opacity:1;fill-rule:evenodd;stroke:none"
               d="m 209.5542,61.41257 c 0,-0.10713 0.1316,-0.16701 0.275,-0.20404 0.4562,-0.09532 0.6232,-0.28677 0.6476,-0.51444 0.0119,-0.1552 0.0472,-1.11318 0.0472,-2.83771 0,-2.01128 0.2869,-2.88576 0.9574,-3.51995 0.2891,-0.26313 1.0897,-0.70667 2.1683,-0.70667 0.5264,0 1.1732,0.07248 1.7239,0.38368 0.8621,0.47819 1.4372,1.5315 1.4971,3.61606 0.0243,0.62237 0.0953,1.95141 0.1079,2.46586 0.0229,0.75472 0.2631,0.95876 0.7785,1.10214 0.1669,0.05987 0.2631,0.1426 0.2631,0.21507 0,0.09612 -0.1079,0.13157 -0.2994,0.13157 -0.3348,0 -0.5862,-0.02364 -1.0771,-0.02364 -0.3829,0 -0.7193,0.03624 -1.0195,0.03624 -0.2032,0 -0.2742,-0.04805 -0.2742,-0.11974 0,-0.08429 0.1308,-0.19144 0.2513,-0.21665 0.6706,-0.15441 0.754,-0.32301 0.791,-0.77757 0.012,-0.14417 0.0466,-0.76654 0.0466,-1.5449 0,-1.36528 -0.1197,-2.37054 -0.2631,-3.00473 -0.2979,-1.31722 -1.46,-1.67646 -2.2392,-1.67646 -0.6233,0 -1.401,0.28755 -1.7366,0.65861 -0.3711,0.41834 -0.6689,0.93356 -0.6689,2.28623 0,1.70089 -0.0126,2.94564 0.0456,3.34112 0.0733,0.479 0.3003,0.59874 0.7312,0.68303 0.2277,0.04728 0.3601,0.13157 0.3601,0.22689 0,0.09612 -0.1435,0.13157 -0.3719,0.13157 -0.2631,0 -0.7194,-0.02364 -1.1621,-0.02364 -0.4429,0 -0.7296,0.03624 -1.2323,0.03624 -0.1915,0 -0.3475,-0.04805 -0.3475,-0.14417" /><path
               id="path96"
               style="fill:#a3a510;fill-opacity:1;fill-rule:evenodd;stroke:none"
               d="m 219.9809,61.41257 c 0,-0.09532 0.1315,-0.1552 0.2631,-0.19222 0.5398,-0.14338 0.6713,-0.15441 1.0054,-0.5499 0.026,-0.03624 0.0859,-0.14417 0.0859,-0.57509 0,-0.99422 -0.1686,-3.86817 -0.2285,-4.83718 -0.0489,-0.88629 -0.275,-0.93356 -0.8383,-1.12499 -0.1198,-0.03625 -0.2388,-0.10794 -0.2388,-0.20406 0,-0.11974 0.1426,-0.13235 0.3112,-0.13235 0.2033,0 0.5138,0.02521 0.7769,0.02521 0.431,0 0.9345,-0.05987 1.282,-0.05987 0.2277,0 0.3836,0.03466 0.3836,0.15441 0,0.07248 -0.048,0.15677 -0.3001,0.21666 -0.5744,0.16701 -0.706,0.34663 -0.7541,0.89731 -0.0236,0.37106 0.0119,2.21533 0.0119,3.29306 0.0126,0.93434 0.048,1.26838 0.0606,1.59296 0,0.05909 0.0843,0.0835 0.1308,0.02363 1.0787,-1.29359 3.1501,-3.62867 4.2752,-4.96953 0.323,-0.39469 0.5397,-0.70587 0.743,-0.95718 0.1064,-0.14418 0.3711,-0.38368 0.5397,-0.38368 0.1064,0 0.1663,0.13236 0.1663,0.25211 0,0.19143 -0.0828,1.08875 -0.0828,1.59138 0,2.05935 0.1072,4.41884 0.1308,4.84978 0.0371,0.64601 0.2521,0.75394 0.7659,0.87447 0.2166,0.05987 0.2883,0.16781 0.2883,0.2395 0,0.09453 -0.0717,0.13156 -0.275,0.13156 -0.3127,0 -0.6957,-0.04806 -1.1274,-0.04806 -0.383,0 -0.717,0.01103 -1.0283,0.01103 -0.1434,0 -0.3119,-0.02284 -0.3119,-0.10714 0,-0.09532 0.0834,-0.19143 0.323,-0.26313 0.6594,-0.19222 0.7438,-0.47899 0.754,-0.7303 0.037,-0.37106 0.0607,-0.79097 0.0607,-1.19748 0,-1.72373 0.0362,-3.01732 -0.0237,-3.4002 0,-0.03703 -0.0472,-0.15599 -0.1197,-0.0843 -0.8029,0.87369 -3.4361,3.74842 -3.9766,4.43146 -0.4672,0.60976 -0.765,0.96821 -0.9447,1.18487 -0.0725,0.07169 -0.1804,0.15519 -0.2521,0.15519 -0.6114,0 -1.1968,0.03624 -1.46,0.03624 -0.2765,0 -0.3963,-0.04805 -0.3963,-0.14417" /><path
               id="path98"
               style="fill:#a3a510;fill-opacity:1;fill-rule:evenodd;stroke:none"
               d="m 233.7846,61.73574 c -0.8375,0 -1.4002,-0.25131 -1.7712,-0.58693 -0.4098,-0.35844 -0.6602,-0.89732 -0.6602,-1.45981 0,-1.01864 0.7185,-1.71271 1.7372,-2.37053 1.256,-0.80278 1.4963,-1.34244 1.4963,-1.84507 0,-0.86185 -0.6216,-1.44878 -1.4482,-1.44878 -0.4538,0 -1.2448,0.30016 -1.5576,0.95798 -0.1679,0.37106 -0.3459,0.68224 -0.4429,0.68224 -0.048,0 -0.1678,-0.17882 -0.1678,-0.22687 0,-0.19145 0.1198,-0.71849 0.1797,-1.12579 0,-0.04728 0.156,-0.3112 0.2758,-0.38288 0.371,-0.17963 1.1865,-0.31119 1.5694,-0.31119 0.5373,0 1.245,0.17884 1.6278,0.43015 0.647,0.41911 0.9826,1.09032 0.9826,1.68907 0,1.07773 -0.7313,1.70088 -1.653,2.32326 -1.0543,0.70589 -1.6649,1.07695 -1.6649,1.92699 0,0.80279 0.5751,1.40152 1.3772,1.40152 0.3475,0 0.6336,-0.10872 0.851,-0.27574 0.1197,-0.07168 0.4412,-0.43093 0.5861,-0.86187 0.0473,-0.1678 0.1908,-0.25131 0.2876,-0.25131 0.0836,0 0.0836,0.11975 0.0836,0.32301 0,0.04805 -0.0962,0.74212 -0.1206,0.9698 0,0.02442 -0.0724,0.20403 -0.1426,0.22767 -0.2158,0.03546 -0.8375,0.21508 -1.4253,0.21508" /><path
               id="path100"
               style="fill:#a3a510;fill-opacity:1;fill-rule:evenodd;stroke:none"
               d="m 240.4141,61.52028 c -0.8005,0 -1.2678,0.04804 -1.8312,0.04804 -0.1677,0 -0.334,-0.05986 -0.334,-0.16779 0,-0.09534 0.0938,-0.14339 0.3459,-0.20327 0.5278,-0.12053 0.6484,-0.26313 0.6713,-0.79095 0.0228,-0.34664 0.011,-0.59795 0.011,-2.02233 0,-1.4858 -0.0606,-2.89835 -0.0945,-3.40177 -0.0489,-0.64601 -0.2766,-0.7303 -0.8738,-0.87368 -0.1923,-0.04806 -0.3373,-0.10715 -0.3373,-0.19144 0,-0.13156 0.1324,-0.1552 0.3601,-0.1552 0.4546,0 0.7178,0.05988 1.3529,0.05988 1.9532,0 3.7613,-0.09691 3.8922,-0.09691 0.0598,0 0.1678,0.09691 0.2024,0.14496 0.0851,0.10715 0.4208,1.18488 0.431,1.28099 0.0253,0.13156 -0.0102,0.323 -0.0937,0.323 -0.0725,0 -0.1442,-0.07248 -0.2766,-0.33482 -0.2867,-0.5625 -0.6114,-0.79097 -0.9943,-0.88708 -0.2631,-0.0709 -0.9928,-0.08351 -1.1369,-0.08351 -0.479,0 -0.8864,0.04806 -1.0897,0.08351 -0.0851,0.02442 -0.1789,0.12054 -0.2277,0.26392 -0.0709,0.19222 -0.1206,0.64679 -0.1206,0.99422 0,0.51444 -0.0103,1.62762 0.037,1.87972 0,0.02364 0.06,0.10792 0.1065,0.10792 0.3245,0 0.8036,0 1.1866,-0.0252 0.731,-0.03466 0.7783,-0.07169 0.9462,-0.62237 0.0355,-0.13156 0.1181,-0.26313 0.2032,-0.26313 0.0828,0 0.1426,0.13157 0.1324,0.34742 -0.0125,0.2395 -0.037,0.40651 -0.037,0.72952 0,0.28834 0.0142,0.52783 0.037,0.86265 0.0102,0.09691 -0.0125,0.26312 -0.0968,0.26312 -0.0709,0 -0.1434,-0.07167 -0.216,-0.25131 -0.215,-0.54988 -0.2616,-0.59794 -1.3874,-0.59794 l -0.7793,0 c -0.0598,0 -0.0717,0.07168 -0.0827,0.11975 -0.0244,0.17962 0.011,2.43119 0.0354,2.72977 0.0245,0.27573 0.1552,0.33561 0.1781,0.33561 0.5278,0.02285 1.3915,0 1.7026,-0.04885 0.383,-0.05987 0.6461,-0.17962 0.8013,-0.81381 0.0244,-0.11974 0.0851,-0.28676 0.1907,-0.28676 0.108,0 0.1804,0.14417 0.1804,0.3104 0,0.23949 -0.0236,0.58771 -0.0236,1.1376 -0.0118,0.05988 -0.0717,0.14416 -0.1088,0.13235 -0.1804,-0.02442 -0.7067,-0.03623 -1.1006,-0.03623 l -1.7617,0 z" /><path
               id="path102"
               style="fill:#a3a510;fill-opacity:1;fill-rule:evenodd;stroke:none"
               d="m 246.5557,61.40029 c 0,-0.08273 0.0954,-0.17963 0.3341,-0.22768 0.5633,-0.10715 0.6232,-0.33483 0.635,-0.59796 0.0111,-0.39469 0.0111,-1.2211 0.0111,-1.70009 0,-1.73635 -0.0339,-3.64049 -0.0583,-3.93986 -0.0615,-0.46717 -0.2278,-0.69406 -0.8864,-0.82642 -0.1923,-0.03466 -0.2876,-0.13156 -0.2876,-0.21428 0,-0.10872 0.1182,-0.13157 0.3475,-0.13157 0.1678,0 0.7311,0.05909 1.545,0.05909 2.4299,0 3.5212,-0.07169 3.6638,-0.07169 0.0465,0 0.2758,0.07169 0.2868,0.20326 0.0969,0.45535 0.1796,0.70588 0.3719,1.2928 0.0481,0.19222 0.011,0.32458 -0.0473,0.32458 -0.0614,0 -0.1678,-0.04885 -0.3002,-0.26392 -0.323,-0.45536 -0.5153,-0.63577 -0.6815,-0.802 -0.2403,-0.21664 -0.3837,-0.21664 -0.4807,-0.22768 -0.1796,-0.02441 -0.5136,-0.03623 -0.8509,-0.03623 -0.3939,0 -0.8367,0.01182 -1.148,0.05908 -0.0969,0.01261 -0.3829,0.28834 -0.4057,0.45615 -0.0497,0.39469 -0.0851,1.54411 -0.0851,2.47767 0,1.77258 0,2.98108 0.0709,3.52074 0.0244,0.17962 0.1079,0.31118 0.8037,0.46638 0.1796,0.04806 0.2733,0.11975 0.2733,0.20405 0,0.0835 -0.0827,0.13156 -0.2986,0.13156 -0.2876,0 -1.1015,-0.03624 -1.5695,-0.03624 -0.3459,0 -0.5602,0.02443 -0.8848,0.02443 -0.2631,0 -0.3585,-0.06067 -0.3585,-0.14417" /><path
               id="path104"
               style="fill:#a3a510;fill-opacity:1;fill-rule:evenodd;stroke:none"
               d="m 255.846,57.72435 c 0,-1.01706 -0.026,-2.2626 -0.0616,-2.68171 -0.048,-0.56329 -0.0953,-0.74291 -0.6956,-0.87447 -0.2372,-0.04727 -0.357,-0.11975 -0.357,-0.20247 0,-0.08351 0.0828,-0.1686 0.3097,-0.1686 0.4443,0 0.5508,0.02443 0.9108,0.02443 0.3231,0 1.174,-0.07169 1.7846,-0.07169 0.1434,0 0.3239,0.05987 0.3239,0.1552 0,0.08429 -0.097,0.16859 -0.3128,0.20325 -0.7769,0.15599 -0.8384,0.38367 -0.8739,1.03046 -0.0236,0.38288 -0.037,1.125 -0.037,1.78361 0,2.3469 0.0134,3.12526 0.0725,3.52074 0.0473,0.323 0.0362,0.62237 0.7304,0.76575 0.1914,0.03624 0.3112,0.10872 0.3112,0.20405 0,0.09532 -0.1064,0.14338 -0.2986,0.14338 -0.4184,0 -0.6957,-0.03624 -1.2819,-0.03624 -0.394,0 -0.9927,0.03624 -1.3048,0.03624 -0.1679,0 -0.3002,-0.04806 -0.3002,-0.14338 0,-0.0843 0.0725,-0.16781 0.3373,-0.21587 0.6689,-0.11974 0.6689,-0.29936 0.7059,-0.85083 0.0228,-0.39391 0.0371,-1.87972 0.0371,-2.62185" /><path
               id="path106"
               style="fill:#a3a510;fill-opacity:1;fill-rule:evenodd;stroke:none"
               d="m 260.1286,61.41257 c 0,-0.09532 0.1308,-0.1552 0.2632,-0.19222 0.5389,-0.14338 0.6713,-0.15441 1.0046,-0.5499 0.0236,-0.03624 0.085,-0.14417 0.085,-0.57509 0,-0.99422 -0.1678,-3.86817 -0.2276,-4.83718 -0.0481,-0.88629 -0.2742,-0.93356 -0.8392,-1.12499 -0.1197,-0.03625 -0.2395,-0.10794 -0.2395,-0.20406 0,-0.11974 0.1442,-0.13235 0.312,-0.13235 0.2033,0 0.5153,0.02521 0.7785,0.02521 0.431,0 0.9344,-0.05987 1.2803,-0.05987 0.2277,0 0.3853,0.03466 0.3853,0.15441 0,0.07248 -0.0496,0.15677 -0.3002,0.21666 -0.5744,0.16701 -0.7083,0.34663 -0.754,0.89731 -0.0236,0.37106 0.0102,2.21533 0.0102,3.29306 0.0126,0.93434 0.0497,1.26838 0.0607,1.59296 0,0.05909 0.0827,0.0835 0.1324,0.02363 1.077,-1.29359 3.15,-3.62867 4.2744,-4.96953 0.3238,-0.39469 0.5389,-0.70587 0.7437,-0.95718 0.1056,-0.14418 0.3704,-0.38368 0.5366,-0.38368 0.1095,0 0.1694,0.13236 0.1694,0.25211 0,0.19143 -0.0843,1.08875 -0.0843,1.59138 0,2.05935 0.1071,4.41884 0.1324,4.84978 0.0354,0.64601 0.2505,0.75394 0.7658,0.87447 0.2159,0.05987 0.2868,0.16781 0.2868,0.2395 0,0.09453 -0.0709,0.13156 -0.2758,0.13156 -0.3104,0 -0.6941,-0.04806 -1.1251,-0.04806 -0.3829,0 -0.7186,0.01103 -1.029,0.01103 -0.145,0 -0.3128,-0.02284 -0.3128,-0.10714 0,-0.09532 0.0851,-0.19143 0.3246,-0.26313 0.6571,-0.19222 0.7422,-0.47899 0.7541,-0.7303 0.0354,-0.37106 0.0606,-0.79097 0.0606,-1.19748 0,-1.72373 0.0363,-3.01732 -0.0252,-3.4002 0,-0.03703 -0.0473,-0.15599 -0.1198,-0.0843 -0.802,0.87369 -3.4344,3.74842 -3.9749,4.43146 -0.4681,0.60976 -0.7683,0.96821 -0.9463,1.18487 -0.0725,0.07169 -0.1789,0.15519 -0.2514,0.15519 -0.6106,0 -1.1984,0.03624 -1.4615,0.03624 -0.2742,0 -0.394,-0.04805 -0.394,-0.14417" /><path
               id="path108"
               style="fill:#a3a510;fill-opacity:1;fill-rule:evenodd;stroke:none"
               d="m 275.739,61.73574 c -1.1606,0 -2.3101,-0.4073 -3.0642,-1.07773 -0.9833,-0.86186 -1.3536,-1.95142 -1.3536,-3.01653 0,-1.43697 0.6831,-2.41938 1.2339,-2.94564 0.7312,-0.65861 1.8421,-1.09033 3.1839,-1.09033 0.3955,0 1.1369,0.07247 1.653,0.21665 0.4657,0.13156 0.8738,0.2261 1.0889,0.28598 0.1324,0.03702 0.182,0.12053 0.182,0.16858 0,0.05988 0.0126,0.09533 -0.2049,0.21508 -0.0614,0.03623 -0.1662,0.15598 -0.1662,0.34742 0,0.4908 0.011,1.35347 0.0583,1.48503 0.0465,0.13157 0.0725,0.26313 0.4326,0.37106 0.1434,0.04805 0.2742,0.11975 0.2742,0.20326 0,0.09532 -0.1308,0.15598 -0.3231,0.15598 -0.3837,0 -0.7895,-0.04805 -1.0771,-0.04805 -0.3482,0 -1.222,0.04805 -1.4379,0.04805 -0.2277,0 -0.36,-0.08429 -0.36,-0.1678 0,-0.09611 0.1323,-0.19144 0.3127,-0.20405 0.8983,-0.05987 0.9944,-0.28675 1.0755,-0.56249 0.0245,-0.14418 0.0386,-0.82642 0.0386,-1.24474 0,-0.15599 -0.1567,-0.56329 -0.2505,-0.62317 -0.3372,-0.21507 -0.936,-0.28676 -1.0794,-0.28676 -1.1141,0 -2.2637,0.57431 -2.8972,1.65204 -0.3482,0.57511 -0.5405,1.32904 -0.5405,2.17909 0,1.89233 1.2111,3.56879 3.2564,3.56879 0.9589,0 1.6546,-0.4199 1.9178,-0.74291 0.1781,-0.22767 0.3365,-0.51523 0.4538,-0.83901 0.0717,-0.17884 0.1458,-0.27416 0.2151,-0.27416 0.0851,0 0.1553,0.10714 0.1553,0.26234 0,0.45535 -0.1553,1.02968 -0.1663,1.31723 0,0.19143 -0.0969,0.28754 -0.1426,0.28754 -0.1324,0.03624 -0.2174,0.04807 -0.457,0.09612 -0.5035,0.10793 -1.1377,0.26313 -2.0115,0.26313" /><path
               id="path110"
               style="fill:#a3a510;fill-opacity:1;fill-rule:evenodd;stroke:none"
               d="m 288.9887,61.73574 c -0.0582,0 -0.1079,-0.04805 -0.1891,-0.14417 -0.0866,-0.13156 -0.2529,-0.44276 -0.36,-0.58614 -0.0237,-0.03623 -0.0237,-0.05987 -0.0237,-0.09611 0,-0.05909 -0.026,-0.1552 -0.0732,-0.25131 -0.5264,-1.29281 -1.8918,-4.90886 -2.1668,-5.51943 -0.3482,-0.77834 -0.5019,-0.8138 -1.1023,-1.01784 -0.1812,-0.05988 -0.2631,-0.16702 -0.2631,-0.23871 0,-0.07249 0.0583,-0.11975 0.2757,-0.11975 0.1781,0 0.7998,0.05988 1.2449,0.05988 0.4444,0 0.743,-0.03703 0.9479,-0.03703 0.1536,0 0.3325,0.03703 0.3325,0.15598 0,0.08351 -0.1198,0.156 -0.3215,0.21508 -0.5405,0.16859 -0.5878,0.37184 -0.5878,0.51523 0,0.29936 0.3105,1.31722 0.6233,2.09559 0.0228,0.03544 0.0843,0.09531 0.1323,0.09531 0.2506,0.03625 1.3032,0.04807 1.9635,0.04807 0.3475,0 0.3955,-0.07169 0.4058,-0.11975 0.2757,-0.76654 0.5775,-1.55672 0.6697,-2.04674 0.0512,-0.2521 0.0969,-0.4916 -0.4751,-0.61056 -0.2175,-0.03623 -0.29,-0.13236 -0.29,-0.19223 0,-0.05908 0.0725,-0.14416 0.3711,-0.14416 0.3018,0 0.4681,0.02521 0.851,0.02521 0.5263,0 1.1125,-0.05988 1.508,-0.05988 0.3018,0 0.3837,0.07169 0.3837,0.15442 0,0.08428 -0.0977,0.14416 -0.2868,0.20404 -0.5381,0.13156 -0.7304,0.22768 -1.1259,1.20928 -0.2048,0.49161 -1.1023,2.86213 -1.7255,4.6103 -0.2277,0.62237 -0.4294,1.16123 -0.5263,1.48424 -0.0954,0.26313 -0.1426,0.31118 -0.1923,0.31118 m 0.5405,-4.28571 c -0.3971,-0.03702 -1.3914,-0.02442 -1.8673,-0.03702 -0.0504,0 -0.0733,0.03702 -0.0615,0.08509 0.0954,0.37026 0.7186,2.04673 0.9361,2.62183 0.0339,0.08352 0.0583,0.0717 0.0922,0 0.1095,-0.1678 0.7311,-1.96401 0.9352,-2.57457 0.0126,-0.03545 -0.0229,-0.09533 -0.0347,-0.09533" /><path
               id="path112"
               style="fill:#a3a510;fill-opacity:1;fill-rule:evenodd;stroke:none"
               d="m 294.6256,61.41257 c 0,-0.09532 0.1308,-0.1552 0.2663,-0.19222 0.5374,-0.14338 0.6697,-0.15441 1.0046,-0.5499 0.0237,-0.03624 0.082,-0.14417 0.082,-0.57509 0,-0.99422 -0.1663,-3.86817 -0.2278,-4.83718 -0.0464,-0.88629 -0.2741,-0.93356 -0.8359,-1.12499 -0.1198,-0.03625 -0.2395,-0.10794 -0.2395,-0.20406 0,-0.11974 0.1426,-0.13235 0.3088,-0.13235 0.2049,0 0.5153,0.02521 0.7816,0.02521 0.4294,0 0.9329,-0.05987 1.2804,-0.05987 0.2277,0 0.3837,0.03466 0.3837,0.15441 0,0.07248 -0.0512,0.15677 -0.3018,0.21666 -0.5728,0.16701 -0.7051,0.34663 -0.754,0.89731 -0.0237,0.37106 0.0134,2.21533 0.0134,3.29306 0.0126,0.93434 0.0481,1.26838 0.0591,1.59296 0,0.05909 0.0843,0.0835 0.1324,0.02363 1.0786,-1.29359 3.1484,-3.62867 4.2727,-4.96953 0.3247,-0.39469 0.5421,-0.70587 0.7438,-0.95718 0.1072,-0.14418 0.3703,-0.38368 0.5397,-0.38368 0.1064,0 0.1678,0.13236 0.1678,0.25211 0,0.19143 -0.0842,1.08875 -0.0842,1.59138 0,2.05935 0.1071,4.41884 0.1307,4.84978 0.0387,0.64601 0.2506,0.75394 0.7659,0.87447 0.2159,0.05987 0.2899,0.16781 0.2899,0.2395 0,0.09453 -0.074,0.13156 -0.2757,0.13156 -0.3128,0 -0.6957,-0.04806 -1.1252,-0.04806 -0.386,0 -0.7185,0.01103 -1.0321,0.01103 -0.1434,0 -0.3097,-0.02284 -0.3097,-0.10714 0,-0.09532 0.082,-0.19143 0.3215,-0.26313 0.6603,-0.19222 0.7422,-0.47899 0.754,-0.7303 0.0386,-0.37106 0.0615,-0.79097 0.0615,-1.19748 0,-1.72373 0.0355,-3.01732 -0.0229,-3.4002 0,-0.03703 -0.0504,-0.15599 -0.1197,-0.0843 -0.8053,0.87369 -3.4376,3.74842 -3.9766,4.43146 -0.468,0.60976 -0.7666,0.96821 -0.9462,1.18487 -0.071,0.07169 -0.1789,0.15519 -0.253,0.15519 -0.6106,0 -1.1952,0.03624 -1.4584,0.03624 -0.2773,0 -0.3971,-0.04805 -0.3971,-0.14417" /><path
               id="path114"
               style="fill:#a3a510;fill-opacity:1;fill-rule:evenodd;stroke:none"
               d="m 309.305,61.62836 c -1.0298,0 -2.3834,-0.10793 -2.9822,-0.10793 l -0.3373,0 c -0.1772,0 -0.2859,-0.05987 -0.2859,-0.1552 0,-0.08508 0.1426,-0.1678 0.2749,-0.19223 0.7311,-0.10714 0.7422,-0.27574 0.7666,-1.04149 0.0371,-0.98162 0.0599,-2.39495 0.0599,-3.07719 0,-0.70667 -0.0103,-1.07773 -0.0338,-1.64101 -0.0387,-0.94538 -0.0969,-1.17227 -0.925,-1.26838 -0.1426,-0.01182 -0.2632,-0.0717 -0.2632,-0.16782 0,-0.09531 0.1095,-0.18041 0.3837,-0.18041 0.1938,0 0.4058,0 0.6335,-0.0118 0.7926,-0.05989 1.8579,-0.09533 2.3487,-0.09533 1.1496,0 2.1439,0.26392 2.8499,0.67042 0.8406,0.46718 1.9162,1.72453 1.9162,3.46087 0,0.94537 -0.442,2.02311 -1.0881,2.64548 -0.48,0.44274 -1.6436,1.16202 -3.3179,1.16202 m -0.5263,-0.37106 c 0.8847,0 1.8909,-0.26313 2.4898,-0.70746 0.7666,-0.57431 1.2803,-1.7001 1.2803,-2.72898 0,-1.34165 -0.5137,-2.38314 -1.2323,-2.99369 -0.6697,-0.56249 -1.687,-0.77915 -2.2408,-0.77915 -0.2616,0 -0.754,0.14496 -0.9817,0.31197 -0.0355,0.02443 -0.2277,0.19223 -0.2632,0.56251 -0.0354,0.52783 -0.0465,1.23371 -0.0465,2.07195 l 0,1.73633 c 0,1.06512 0.0237,2.13104 0.0465,2.27442 0.0126,0.0717 0.0355,0.09611 0.1198,0.15598 0.1079,0.0591 0.3954,0.09612 0.8281,0.09612" /><path
               id="path116"
               style="fill:#a3a510;fill-opacity:1;fill-rule:evenodd;stroke:none"
               d="m 173.8774,68.52157 -164.513709,0 0,-58.13747 164.513709,0 0,58.13747 z m -166.877423,2.36344 169.241123,0 0,-62.864346 -169.241123,0 0,62.864346 z" /><path
               id="path118"
               style="fill:#a3a510;fill-opacity:1;fill-rule:evenodd;stroke:none"
               d="m 171.5137,12.74755 -159.78629,0 0,53.41058 159.78629,0 0,-53.41058 z" /><path
               id="path120"
               style="fill:#ffffff;fill-opacity:1;fill-rule:nonzero;stroke:none"
               d="m 70.39091,34.19261 c -0.83753,3.29385 -2.03437,8.24683 -2.58826,10.25024 -0.50662,1.72688 -0.96361,3.40178 -1.47181,4.97504 -0.91317,-1.72531 -2.48583,-4.66858 -3.50145,-6.80119 -1.01403,-2.08062 -5.52321,-12.83427 -6.33554,-14.60921 -0.3774,-0.99107 -0.82887,-2.12946 -0.97306,-2.84716 -0.25291,-1.9782 -0.40577,-2.74001 -1.37095,-3.19694 -1.36938,-0.60977 -2.68833,0 -3.14453,1.1179 -0.21825,0.73503 0.4168,3.06539 1.20786,5.31065 l 2.73088,6.83034 9.96778,21.80667 c 0.50584,1.06591 1.06447,2.08062 2.63869,2.08062 1.36939,0 1.92723,-1.52206 2.08087,-2.58797 0,0 0.30412,-2.99448 1.11567,-6.03859 0.60904,-2.23266 1.92878,-7.40938 2.84197,-11.26572 l 0.86196,-3.75472 3.1981,-13.55039 c 0.7107,-0.6594 2.58985,-2.73923 -0.20249,-4.26207 -1.32052,-0.71061 -3.65351,0.91386 -3.65351,2.33429 l -3.40218,14.20821 z" /><path
               id="path122"
               style="fill:#ffffff;fill-opacity:1;fill-rule:nonzero;stroke:none"
               d="m 81.14306,39.88622 c -1.16531,2.28229 -4.16093,0.81066 -5.07411,0.40493 -1.26931,-0.55856 -41.24208,-17.26256 -46.62111,-13.30459 -9.2366,6.69957 9.08534,24.41039 16.79892,26.03329 1.77751,0.35609 4.21371,1.21875 3.04525,3.85792 -0.81233,1.87736 -4.3642,0.81145 -5.17574,0.50656 -11.26704,-4.56695 -29.6914,-24.1055 -17.45997,-33.79718 7.66395,-6.13864 48.39784,12.13784 51.18859,12.54199 0,0 4.8724,0.86344 3.29817,3.75708" /><path
               id="path124"
               style="fill:#ffffff;fill-opacity:1;fill-rule:nonzero;stroke:none"
               d="m 109.1864,32.67126 c -0.152,9.79331 -25.42647,9.18433 -25.42647,13.29435 0,4.21244 11.36713,8.37446 15.93461,8.32325 1.26936,0 1.77676,-1.77573 2.89316,-1.77573 1.8272,-0.10163 2.9956,1.72531 2.285,2.68959 -1.2189,1.72532 -1.5743,3.14574 -5.88807,3.24736 -4.92282,0.05122 -20.19875,-5.22713 -20.04747,-13.29591 0.15207,-7.61185 25.73144,-5.68329 25.73144,-13.04146 0,-3.34979 -9.84646,-8.72819 -13.60161,-9.23711 -1.4206,-0.20169 -3.60389,-1.57248 -2.74112,-4.05961 0.55861,-1.41885 5.48145,-2.17988 6.04086,0.86345 0.10085,0.86186 14.92057,5.63286 14.81967,12.99182" /><path
               id="path126"
               style="fill:#ffffff;fill-opacity:1;fill-rule:nonzero;stroke:none"
               d="m 134.5148,32.67126 c -0.1521,9.79331 -25.428,9.18433 -25.428,13.29435 0,4.21244 11.3686,8.37446 15.9377,8.32325 1.2677,0 1.7759,-1.77573 2.8916,-1.77573 1.8279,-0.10163 2.9956,1.72531 2.2849,2.68959 -1.2173,1.72532 -1.5742,3.14574 -5.8864,3.24736 -4.9236,0.05122 -20.2011,-5.22713 -20.049,-13.29591 0.1544,-7.61185 25.7329,-5.68329 25.7329,-13.04146 0,-3.34979 -9.8464,-8.72819 -13.6031,-9.23711 -1.4214,-0.20169 -3.6023,-1.57248 -2.7396,-4.05961 0.5579,-1.41885 5.4807,-2.17988 6.0385,0.86345 0.1017,0.86186 14.9229,5.63286 14.8205,12.99182" /><path
               id="path128"
               style="fill:#ffffff;fill-opacity:1;fill-rule:nonzero;stroke:none"
               d="m 161.4158,58.09478 c -2.1328,2.08062 -3.8575,-0.60898 -4.6699,-1.62447 -3.3998,-4.26285 -10.7596,-10.04776 -13.1966,-11.87392 -2.1313,5.22714 -2.842,6.80041 -3.7559,8.37288 -1.7255,3.0449 -6.6988,3.50104 -6.6988,0.86344 -0.0504,-1.62525 1.523,-1.01549 2.9436,-3.34978 3.0965,-4.87183 4.0112,-10.35265 4.4667,-11.41699 0.1512,-0.30567 0.8115,-0.76181 1.2693,-1.01549 0.0504,-1.06512 0.152,-4.06039 0.2537,-6.80119 0.152,-5.78491 0.9628,-8.12 0.7107,-9.33716 -0.4082,-2.78965 2.1297,-4.21165 3.9592,-3.09611 1.8263,1.16832 0.5058,3.24816 0.3545,4.41726 -0.7619,6.69721 -0.4562,9.28518 -0.3545,11.46742 0.1001,3.70429 -0.0512,5.78491 -0.1017,6.59794 8.8293,7.61185 12.839,11.72187 13.4992,13.04146 0.457,0.81145 3.4502,1.82615 1.3205,3.75471" /><path
               id="path130"
               style="fill:#afb12e;fill-opacity:1;fill-rule:nonzero;stroke:none"
               d="M 6.999977,8.839914 8.286626,8.726469 8.68688,9.047109 6.999977,8.839914 Z" /><path
               id="path132"
               style="fill:#afb12e;fill-opacity:1;fill-rule:nonzero;stroke:none"
               d="m 13.07661,7.679701 2.19038,0.133141 C 14.01264,8.746401 15.70743,8.475393 12.28004,9.144246 11.07455,8.998501 8.420883,8.674709 8.772288,8.309952 9.635832,8.346979 10.90436,8.705435 12.18392,8.590414 11.63711,8.320982 10.263,8.354857 9.612983,8.002705 11.68202,7.715153 10.92248,8.231958 13.19322,8.102757 L 13.07661,7.679701 Z" /><path
               id="path134"
               style="fill:#afb12e;fill-opacity:1;fill-rule:nonzero;stroke:none"
               d="M 15.67197,8.608691 C 15.46948,8.446402 15.26068,8.287263 15.29456,8.155699 c 0.20643,0.162288 1.2772,0.36003 0.37741,0.452992" /><path
               id="path136"
               style="fill:#afb12e;fill-opacity:1;fill-rule:nonzero;stroke:none"
               d="M 17.00306,8.704489 C 18.38819,8.669038 16.98336,8.361003 17.11967,8.310582 L 18.69863,8.91326 17.00306,8.704489 Z" /><path
               id="path138"
               style="fill:#afb12e;fill-opacity:1;fill-rule:nonzero;stroke:none"
               d="m 22.765,8.664468 0.65239,0.055935 C 23.19678,8.816516 23.00768,8.736947 22.765,8.664468" /><path
               id="path140"
               style="fill:#afb12e;fill-opacity:1;fill-rule:nonzero;stroke:none"
               d="M 25.60311,8.737184 C 25.03425,8.944378 24.32119,8.819903 23.41747,8.720639 L 23.50492,8.682824 C 24.29835,8.50793 23.5522,8.076995 22.27028,8.192804 20.93005,8.095903 21.04666,8.518959 19.88608,8.240072 l 1.59235,-0.348213 c 2.10528,0.054359 3.30132,0.675944 4.12468,0.845325" /><path
               id="path142"
               style="fill:#afb12e;fill-opacity:1;fill-rule:nonzero;stroke:none"
               d="M 22.765,8.664468 C 22.52627,8.648712 22.28359,8.636895 22.01334,8.636895 22.34899,8.565991 22.57118,8.608534 22.765,8.664468" /><path
               id="path144"
               style="fill:#afb12e;fill-opacity:1;fill-rule:nonzero;stroke:none"
               d="M 19.87268,8.715991 19.15727,8.625393 19.32903,8.444196 19.87268,8.715991 Z" /><path
               id="path146"
               style="fill:#afb12e;fill-opacity:1;fill-rule:nonzero;stroke:none"
               d="M 30.32132,8.768696 C 29.9975,8.186502 26.94358,8.834085 26.57247,8.378728 c 1.86891,0.02521 3.35727,-0.404936 2.95307,-0.725576 l 2.06431,0.182773 c 0.6839,0.220588 -0.1891,0.656248 -1.26853,0.932771" /><path
               id="path148"
               style="fill:#afb12e;fill-opacity:1;fill-rule:nonzero;stroke:none"
               d="m 34.36469,7.291231 c 0.13473,0.048844 0.29704,0.083508 0.47668,0.10084 C 34.61682,7.367649 34.423,7.337712 34.36469,7.291231" /><path
               id="path150"
               style="fill:#afb12e;fill-opacity:1;fill-rule:nonzero;stroke:none"
               d="M 44.79521,8.29522 39.97796,7.707511 c 0.4499,0.189075 0.27025,0.371848 1.37017,0.4396 C 39.2137,8.225104 38.93872,7.851681 37.17617,7.909192 36.64513,8.45357 40.28839,7.94937 39.272,8.436238 38.03105,8.420483 36.17554,8.39606 35.1749,7.934402 l -1.97055,0.369484 0.67287,-0.596375 c 0.79342,-0.172531 1.60811,0.467961 2.10055,0.053572 0.24898,-0.255252 -0.55153,-0.304884 -1.11331,-0.366334 1.27247,0.121323 3.47702,-0.466385 6.0582,-0.387604 2.72773,0.062237 2.08716,1.003674 3.87255,1.288075" /><path
               id="path152"
               style="fill:#afb12e;fill-opacity:1;fill-rule:nonzero;stroke:none"
               d="M 44.991,7.640075 45.29907,7.406882 45.07846,7.72122 44.991,7.640075 Z" /><path
               id="path154"
               style="fill:#afb12e;fill-opacity:1;fill-rule:nonzero;stroke:none"
               d="m 50.24664,8.417489 -2.5142,-0.373424 c -0.27025,0.05042 -0.42074,0.17647 -0.59802,0.2844 0.10322,-0.136291 -0.57596,-0.370271 -0.46801,-0.484504 1.15113,-0.538865 3.06731,0.172531 4.41226,0.267069 3.5629,-0.242647 -0.16152,-0.290704 1.22835,-0.800419 -0.99907,0.01418 -1.03452,0.145745 -2.42045,0.179621 2.17698,-0.609767 4.91653,-0.048844 6.31112,0.100841 -0.40498,0.054359 -0.50426,0.221375 -1.27798,0.174106 l 1.44895,0.178046 C 54.86613,8.37022 53.58894,8.485241 50.24664,8.417489" /><path
               id="path156"
               style="fill:#afb12e;fill-opacity:1;fill-rule:nonzero;stroke:none"
               d="m 45.76008,8.412919 c 0.93366,0.040179 1.28428,0 1.36071,-0.074841 -0.24346,0.144957 -0.55784,0.250524 -1.36071,0.074841" /><path
               id="path158"
               style="fill:#afb12e;fill-opacity:1;fill-rule:nonzero;stroke:none"
               d="M 56.9577,7.607774 C 56.80012,7.64165 56.53932,7.62747 56.19737,7.59123 56.37308,7.569171 56.59763,7.563656 56.9577,7.607774" /><path
               id="path160"
               style="fill:#afb12e;fill-opacity:1;fill-rule:nonzero;stroke:none"
               d="m 55.52734,8.247478 1.76097,-0.055147 -0.691,0.253677 C 56.35464,8.417646 55.48637,8.379044 55.52734,8.247478" /><path
               id="path162"
               style="fill:#afb12e;fill-opacity:1;fill-rule:nonzero;stroke:none"
               d="m 122.7835,7.42122 c -0.1623,0.221376 -0.8052,0.328518 -2.1659,0.285976 0.1639,0.293067 1.9225,0.236344 2.7458,0.404148 -1.7924,0.189864 0.0316,0.341912 -0.4223,0.625524 -2.0021,0.029938 -2.8924,-0.352152 -5.0378,-0.273371 0.1079,0.083508 0.0716,0.21271 -0.2073,0.312761 -2.5772,-0.184348 -6.9485,-0.456931 -9.4627,-0.204831 -2.4244,0.108718 -4.224,-0.028361 -6.8871,-0.159926 C 92.58078,8.561974 83.44501,8.261029 74.01773,8.536764 l -1.3355,-0.571165 c -0.45462,0.283613 -2.24002,0 -1.97291,0.370273 0.51056,-0.07248 1.00536,-0.011818 1.62151,-0.00552 -2.01468,0.500261 -5.34752,-0.040966 -7.7656,0.138654 0.27656,-0.100839 0.67288,-0.59795 -0.05594,-0.685397 0.1891,0.63419 -2.86088,-0.011817 -3.57156,0.716911 C 58.52279,8.680933 60.8479,7.945904 58.32897,8.047531 58.06423,7.67332 60.74469,7.866334 61.19852,7.584297 60.4114,7.281777 58.91832,7.710348 59.03572,7.318804 63.07925,7.133668 70.57695,7.912816 76.75648,8.123949 L 76.10489,7.771797 c 3.16186,0.2521 8.27614,0.264705 10.80377,-0.308823 -0.59408,0.335609 4.66439,-0.178046 4.19244,0.581406 0.80051,-0.174894 1.04319,-0.145745 2.18092,-0.211922 l 0.31043,0.242647 c 1.61915,-0.0063 1.35836,-0.37815 3.21386,-0.353728 -1.21258,0.326154 0.1371,0.422267 0.67681,0.693276 2.12735,-0.364758 4.60528,-0.68461 6.50418,-0.98004 -0.1489,0.103204 -0.3246,0.223739 -0.9715,0.364757 1.2882,-0.116596 1.066,0.19853 1.4072,0.308036 1.237,0.016543 1.1109,-0.406512 1.0526,-0.619222 2.2779,-0.128413 3.2966,0.675157 5.0017,0.406512 l -0.6052,0.334821 c 2.3504,0.08272 4.3162,-0.285977 6.9092,-0.174895 1.248,-0.459295 -2.1274,-0.39627 -3.2005,-0.595587 0.5263,-0.096113 1.642,-0.121323 1.9926,-0.274159 1.111,0.234768 2.9641,0.556196 4.3406,0.778359 -1.3087,-0.537288 1.9792,-0.507351 2.8695,-0.542015" /><path
               id="path164"
               style="fill:#afb12e;fill-opacity:1;fill-rule:nonzero;stroke:none"
               d="m 115.5735,7.184639 c -0.3152,-0.068539 -0.5846,-0.131564 -0.7422,-0.181196 0.2513,0.027573 0.4853,0.058298 0.8635,0.035451 0.0363,0.059874 -0.0181,0.107143 -0.1213,0.145745" /><path
               id="path166"
               style="fill:#afb12e;fill-opacity:1;fill-rule:nonzero;stroke:none"
               d="m 122.7835,7.42122 c 0.009,-0.017332 0.0497,-0.0323 0.0536,-0.051995 0.2569,0.030724 0.171,0.042541 -0.0536,0.051995" /><path
               id="path168"
               style="fill:#afb12e;fill-opacity:1;fill-rule:nonzero;stroke:none"
               d="m 107.8957,8.599474 0.3372,-0.028361 0.4223,-0.014182 -0.7595,0.042543 z" /><path
               id="path170"
               style="fill:#afb12e;fill-opacity:1;fill-rule:nonzero;stroke:none"
               d="m 105.9617,7.073873 c -0.5019,0.115809 -1.1921,0.237132 -1.9745,0.360819 0.2159,-0.153624 0.4003,-0.272584 1.9745,-0.360819" /><path
               id="path172"
               style="fill:#afb12e;fill-opacity:1;fill-rule:nonzero;stroke:none"
               d="M 90.15593,7.450842 C 89.67059,7.391756 89.9495,7.290915 89.60755,7.182198 c 1.003,-0.014181 1.34023,0.095325 0.54838,0.268644" /><path
               id="path174"
               style="fill:#afb12e;fill-opacity:1;fill-rule:nonzero;stroke:none"
               d="m 118.4158,7.098847 1.9698,0.104779 0.7248,0.089023 -2.6946,-0.193802 z" /><path
               id="path176"
               style="fill:#afb12e;fill-opacity:1;fill-rule:nonzero;stroke:none"
               d="m 158.3027,8.847556 c -1.7357,0.400209 -4.2861,0.155986 -6.4269,0.233979 -3.923,-0.208769 -0.4948,-0.876835 -4.2192,-0.924104 l 0.639,0.826417 c -3.7205,-0.048845 -9.0097,0.121323 -12.1668,-0.603466 -0.2837,0.101629 -0.9377,0.225316 0.0291,0.345063 -2.485,-0.035452 -1.289,-1.176994 -4.6061,-0.903623 3.1012,0.512867 -1.014,0.48687 -0.1639,0.99816 l 0.4862,0.059873 c -2.1053,-0.054358 -4.8898,-0.327729 -6.2749,-0.291489 -0.0591,-0.211134 1.1511,-0.538078 -0.706,-0.5625 0.7509,-0.04333 0.4491,-0.282824 0.3822,-0.496322 1.9295,0.235556 2.9727,0.090598 4.138,0.369484 1.0747,-0.275734 -0.7241,-0.087447 0.3507,-0.36397 l 1.5474,0.258403 c 1.133,-0.066176 -1.174,-0.280461 0.598,-0.337184 0.2025,0.16229 1.6373,0.337184 3.0271,0.301733 l -0.4002,-0.095326 c 1.0613,0.108719 2.5591,-0.029149 2.0462,0.433299 l 1.2512,-0.457721 -0.2167,0.312763 c 2.9019,-0.1229 3.9939,-0.871323 7.7475,-0.482142 -0.9014,0.094537 -0.0788,0.262341 0.4026,0.324578 -1.5648,0.215862 -1.9256,-0.238707 -3.4093,-0.280461 -0.2206,0.311974 2.2991,0.686973 0.4988,0.873685 1.9705,-0.370273 3.7291,0.048056 4.5698,-0.730303 2.3755,-0.05042 3.2793,0.332458 5.695,0.148896 l -0.0725,-0.11502 c 0.4452,0.514442 1.9658,-0.233981 3.7567,0.295429 l -1.2764,0.115021 c 0.0615,0.211923 0.6776,0.219013 1.5427,0.256041 -0.0961,-0.080358 -0.0961,-0.080358 0.1852,-0.182773 0.2584,0.373424 2.9846,0.434873 3.3265,0.544378 -1.148,0.064601 -2.5488,-0.243435 -3.8891,-0.339547 0.6816,0.219012 0.4751,0.534137 1.6081,0.468749" /><path
               id="path178"
               style="fill:#afb12e;fill-opacity:1;fill-rule:nonzero;stroke:none"
               d="m 133.7672,7.482354 0.769,0.18041 c -0.3143,-0.032301 -0.598,-0.083508 -0.769,-0.18041" /><path
               id="path180"
               style="fill:#afb12e;fill-opacity:1;fill-rule:nonzero;stroke:none"
               d="m 169.0841,8.19249 c 1.5207,-0.084297 -0.4097,-0.319853 1.0117,-0.485294 1.5427,0.258403 -1.772,0.530986 -0.2608,0.918591 0.9313,-0.225315 2.4425,0.162289 3.0634,0.170955 -0.6831,-0.220587 -0.2853,-0.716122 -0.0134,-0.816962 0.2923,0.069328 0.7666,0.042542 1.2937,-0.00315 l 1.0881,-0.074054 c 0.3932,-0.022847 0.7926,-0.040966 1.1559,-0.044905 -1.3836,0.11502 -1.2725,0.170956 -0.8904,0.211922 0.3948,0.041753 1.1118,0.069327 1.204,0.129201 -0.015,0.052783 -0.0316,0.072479 -0.0505,0.049632 -0.1071,0.034664 -0.3758,0.077994 -0.8407,0.133928 -0.002,0.085872 0.201,0.164653 0.4791,0.227678 -0.1529,0.985555 -0.2143,2.18855 -0.0544,2.88812 0.212,-0.08272 0.1686,-0.78623 0.1773,-1.512598 0.2001,-0.36397 0.2545,0.095328 0.3041,0.694848 0.0497,0.49711 0.0954,1.10137 0.2774,1.27626 -0.5579,2.33902 -0.5193,9.82639 -1.4159,7.70166 -0.1733,-0.80278 0.0465,-1.4866 0.0827,-2.35398 0.1789,2.43276 0.4736,0.01733 0.6343,-0.18908 -0.1434,-1.0344 0.141,-2.81958 -0.1789,-2.41071 l -0.3356,1.64574 c -0.037,-1.13681 -0.063,-2.36422 -0.0796,-3.65072 l -0.0244,-3.476621 -4.9882,-0.035452 -5.3877,-0.092961 2.6245,-0.017332 c -0.3057,-0.243435 -1.5475,-0.259191 -2.5095,-0.374999 l 1.2819,-0.590861 c -0.7556,0.044118 -1.4797,-0.044117 -1.415,0.167017 -0.9243,-0.250525 -0.5012,-0.402573 0.052,-0.605041 -1.9588,-0.104779 -2.2802,0.127626 -3.7914,-0.25919 3.2556,-0.485293 2.7521,0.402572 6.4805,-0.023635 l 1.0258,0.801995 z" /><path
               id="path182"
               style="fill:#afb12e;fill-opacity:1;fill-rule:nonzero;stroke:none"
               d="m 161.9507,7.868225 0.7824,0.297793 -1.2055,-0.145745 0.4231,-0.152048 z" /><path
               id="path184"
               style="fill:#afb12e;fill-opacity:1;fill-rule:nonzero;stroke:none"
               d="m 163.1917,9.171899 c 0.041,-0.12999 -0.4412,-0.188288 -0.4003,-0.319065 1.5207,-0.086659 1.3403,0.095325 0.4003,0.319065" /><path
               id="path186"
               style="fill:#afb12e;fill-opacity:1;fill-rule:nonzero;stroke:none"
               d="m 177.0539,13.96724 -0.1024,1.96087 -0.1143,-1.27705 c 0.1316,0.03151 0.1876,-0.44118 0.2167,-0.68382" /><path
               id="path188"
               style="fill:#afb12e;fill-opacity:1;fill-rule:nonzero;stroke:none"
               d="m 175.5112,27.72435 c 0.0583,-2.72505 0.3388,-3.8855 0.0355,-6.96191 0.3884,-1.51102 0.7272,0.70195 1.0786,0.05436 0.0859,1.52915 -0.5712,1.33771 -0.6957,2.92279 0.3325,0.58534 -0.0733,2.31144 0.004,3.82247 -0.1394,-0.18356 -0.2954,-0.18356 -0.4223,0.16229" /><path
               id="path190"
               style="fill:#afb12e;fill-opacity:1;fill-rule:nonzero;stroke:none"
               d="m 176.7908,37.09697 c 0.003,1.24552 -0.2569,2.50051 -0.0962,3.48528 0.2096,-0.13944 0.2861,-0.88157 0.2309,-1.63235 0.4759,0.48529 -0.0741,1.37631 0.2435,2.72111 -0.0512,-0.11739 -0.1332,-0.60268 -0.2348,-0.22532 0.1103,3.34427 -0.39,1.87972 -0.1206,6.22688 -0.1284,0.6271 -0.1268,1.24789 -0.442,1.14233 0.3995,2.46664 0.3963,1.22032 0.7462,4.18486 -0.1844,-0.11266 -0.6083,-1.08876 -1.003,-1.06591 0.5562,4.19117 -0.0788,4.28098 0.338,6.95718 0.0212,-0.30173 0.1213,-0.65625 0.0685,-1.38104 0.5523,0.34664 -0.0993,2.24685 0.01,3.73266 l 0.4719,-0.14574 c -0.0772,1.37394 -0.3868,3.74368 -0.0394,5.47057 l 0.2364,-0.39076 c -0.0772,0.75237 -0.1308,1.5323 -0.1678,2.32248 l -0.026,0.64364 -0.0205,0.82799 -0.0284,1.62998 -3.8127,-0.04096 c -0.9951,-0.01497 -1.9382,-0.03781 -2.7907,-0.08823 l -1.6105,0.29385 c -4.1192,-0.36003 4.0932,-0.16701 1.0794,-0.87053 -0.4538,0.86895 -2.1273,-0.2844 -4.4745,0.06224 -1.107,0.34428 2.374,0.17883 1.1472,0.57589 -0.5184,-0.4459 -1.2512,-0.12763 -2.4968,-0.25762 0.2694,0.42069 -2.6135,0.05831 -1.8398,0.53099 L 157.765,71.0265 c -0.7084,0.2395 -1.984,0.19932 -2.9232,0.13865 2.374,-0.0047 -0.6531,-0.6263 2.01,-0.81853 3.8765,0.20011 10.3491,0.3435 15.1892,0.12211 0.2655,0.28914 1.0424,0.28676 1.8492,0.27179 0.8305,-0.01496 1.4679,-0.04333 2.0722,0.19302 -0.0189,-0.09848 0.0268,-0.18986 0.0465,-0.28125 -0.0804,-0.17804 -0.16,-0.33797 -0.2466,-0.45141 0.0622,-1.12343 0.1418,-1.04543 0.2316,-0.58456 0.0898,0.43408 0.1899,1.29044 0.2955,1.00762 0.0764,-1.42122 -0.2695,-2.50683 -0.4791,-2.38314 -0.0307,-2.23502 0.1568,-0.24738 0.4704,-1.38735 l -0.6358,-1.45981 c 0.1954,-6.97688 0.6216,-16.20768 0.2616,-24.14569 l 0.3978,0.60268 c -0.2198,-3.60267 0.8801,-6.02205 0.03,-9.21033 l 0.342,-1.08639 c -0.1955,0.59165 -0.5973,-0.62316 -0.866,0.31749 0.1332,-0.9761 -0.0165,-2.01996 0.1064,-3.03151 l 0.1891,1.79464 c 0.3372,-1.25498 0.1284,-2.63996 -0.167,-3.06302 0.4026,-2.68486 0.687,1.5969 1.0227,2.19012 -0.7367,3.77757 0.7162,3.80514 0.4097,7.43381 -0.2325,2.24921 -0.3696,-0.23792 -0.5799,-0.09847" /><path
               id="path192"
               style="fill:#afb12e;fill-opacity:1;fill-rule:nonzero;stroke:none"
               d="m 175.7036,32.41964 c 0.0315,-0.22926 0.0677,-0.40966 0.1063,-0.54832 -0.0244,0.19301 -0.0583,0.37263 -0.1063,0.54832" /><path
               id="path194"
               style="fill:#afb12e;fill-opacity:1;fill-rule:nonzero;stroke:none"
               d="m 154.841,71.16524 c -0.2813,0.0016 -0.6114,-0.0047 -1.055,-0.02285 -0.3577,-0.09927 0.2135,-0.03073 1.055,0.02285" /><path
               id="path196"
               style="fill:#afb12e;fill-opacity:1;fill-rule:nonzero;stroke:none"
               d="m 175.9336,27.56237 c 0,0 0.002,0 0.005,0.0095 -0.002,0.0039 -0.003,0.01339 -0.005,0.02678 l 0,-0.03624 z" /><path
               id="path198"
               style="fill:#afb12e;fill-opacity:1;fill-rule:nonzero;stroke:none"
               d="m 176.9062,25.75899 0.0134,1.00761 -0.182,-0.17568 0.1686,-0.83193 z" /><path
               id="path200"
               style="fill:#afb12e;fill-opacity:1;fill-rule:nonzero;stroke:none"
               d="m 144.2351,71.66187 -0.01,-0.20719 c 0.0907,0.0646 0.1301,0.13313 0.01,0.20719" /><path
               id="path202"
               style="fill:#afb12e;fill-opacity:1;fill-rule:nonzero;stroke:none"
               d="m 115.4981,71.78878 0.6248,-0.0094 c -0.1978,0.03308 -0.4176,0.02678 -0.6248,0.0094" /><path
               id="path204"
               style="fill:#afb12e;fill-opacity:1;fill-rule:nonzero;stroke:none"
               d="m 46.55531,71.35714 c -1.876,-0.12605 -4.37208,-0.25131 -5.75722,-0.59086 l 0.13473,0.20956 c -0.99827,-0.1032 -4.25075,-0.43724 -2.15413,-0.80988 l 0.50819,0.182 c 2.37474,0.31039 1.7271,-0.34586 3.58262,-0.48057 2.23764,0.09848 3.52351,0.8855 5.50745,0.698 0.86827,0.02521 0.73275,-0.18671 0.47668,-0.34427 1.99261,-0.05751 2.77106,0.54516 4.13808,0.62236 0.54837,-1.57719 6.11729,0.43331 9.0609,-0.57273 1.86418,0.12605 4.35633,-0.01024 6.73107,0.30015 -1.26381,-0.39312 2.23528,-0.0323 1.71605,-0.4774 0.67208,0.91858 6.82956,-0.41125 7.25267,0.74763 3.22016,-0.32459 0.13,0.07642 3.8497,-0.19539 -0.0087,-0.1292 -0.62954,-0.1292 -0.87694,-0.15362 1.47339,-0.24028 2.26285,0.49396 3.48175,-0.03308 2.97752,-0.08745 0.50111,0.31118 2.27077,0.62237 3.09961,-0.1363 2.22661,-0.2915 3.94031,-0.77048 0.27892,0.55147 2.1234,0.28676 3.63933,0.57117 -0.37819,0.02677 -2.48741,0.13628 -1.10465,0.34426 3.60073,-0.08823 2.87901,0.36239 6.24966,0.5113 1.70507,-0.60741 -3.35962,-0.01734 -0.40024,-0.49869 -2.13208,-0.28362 -3.74886,-0.25447 -4.89132,-0.698 2.86245,-0.03388 6.34893,0.06302 9.47453,0.31985 1.7366,-0.08272 -0.8864,-0.28755 0.4767,-0.34428 3.1012,-0.26784 4.7637,0.6208 7.2369,0.35136 l -0.5121,-0.31275 c 1.5064,0.41754 5.4688,-0.0906 8.3431,0.13865 -0.3688,0.15914 -0.6075,0.26471 -0.2293,0.3687 -0.0449,-0.78938 3.9963,0.41125 6.8319,-0.14574 -0.2245,0.49947 2.5284,0.78151 4.2713,0.83351 0.6137,-0.13788 0.483,-0.34428 0.4743,-0.47664 -2.8514,0.29385 -2.7616,-0.54595 -5.0198,-0.77678 1.88,0.2584 4.9835,-0.01103 6.6208,0.35216 l -0.6429,-0.39234 c 2.604,-0.05987 2.2802,0.88787 5.0016,0.51287 l -0.2703,-0.28598 c 5.4783,0.0386 11.9195,-0.47584 16.3097,0.16938 0.3821,0.2395 -1.8311,0.7957 -1.9461,0.98004 -2.6198,-0.20404 -4.131,-0.62236 -6.1347,-0.83035 l 0.0292,0.4522 c -0.4546,-0.3096 -2.8601,-0.4916 -1.5293,-0.73503 -1.6326,-0.2324 -1.2363,0.39706 -3.1099,0.13787 0.1552,0.47269 1.2709,0.52311 1.2882,0.91701 l -1.6325,-0.23318 c 0.5168,0.18356 -0.9762,0.16071 -0.4767,0.34426 -3.0201,-0.57116 -4.2098,0.21901 -7.3362,-0.03623 l 1.7366,-0.08272 c -0.0134,-0.26313 -1.0078,-0.23635 -1.7586,-0.31198 -0.8502,0.3687 -1.3584,0.31827 -2.9618,0.47979 -1.3788,-0.2072 -2.1478,-0.67752 -4.0167,-0.67438 0.3979,0.4979 -3.1012,0.27022 -3.4495,0.69012 -0.401,-0.49553 -3.6141,-0.17568 -3.8749,-0.46322 -0.9991,-0.10163 -2.3661,-0.04727 -2.3574,0.21586 0.1442,0.01496 0.4404,0.06381 0.7509,0.08586 l -0.9936,0.01891 c 0.0946,0.05672 0.0583,0.10005 0.1749,0.1095 -0.8856,0.01182 -0.8942,-0.35057 -2.0461,-0.10477 0.009,0.13157 0.6342,0.13157 1.1424,0.18119 -2.37,0.08508 -4.1467,-0.75315 -6.1173,-0.30093 -0.3908,-0.23557 -3.1256,-0.25527 -2.5362,-0.7831 -0.7375,0.18514 -0.4547,0.60425 -2.452,0.531 -1.1464,-0.44434 -2.2282,0.16386 -3.74648,-0.12132 2.01468,0.46558 0.0095,0.12918 1.77198,0.5743 -1.35833,0.18513 -3.37773,-0.41439 -5.73909,-0.33009 -0.24266,0.10557 -0.234,0.23714 -0.47904,0.34269 -0.8793,-0.15597 -1.89097,-0.52073 -2.74584,-0.15126 l 0.10794,-0.31511 c -1.60575,0.16149 -3.85049,0.06143 -5.57679,0.40808 l -2.01942,-0.60189 c -2.7041,0.63655 -6.34264,0.06854 -8.48338,-0.47978 -0.99433,0.02758 -2.47874,0.13551 -2.47401,0.26865 0.22928,0.04648 0.62086,0.13943 1.07549,0.21901 -1.45763,0.02285 -3.23909,0.36554 -4.06402,-0.13629 -1.49544,-0.15127 -1.09518,0.34507 -2.21086,0.42699 -3.02712,-0.70351 -8.93721,0.52075 -9.85511,-0.55541 1.237,-0.0032 3.58969,-0.21901 5.95499,-0.17173 -0.62481,-0.12999 -0.13395,-0.34114 -1.01168,-0.36398 -2.36607,-0.04885 -3.58496,0.34821 -5.95498,0.17017 l 0.27892,0.68382 c -4.06559,0.6917 -7.76323,-0.92962 -10.94321,0.04963" /><path
               id="path206"
               style="fill:#afb12e;fill-opacity:1;fill-rule:nonzero;stroke:none"
               d="m 76.90649,71.34218 -1.72313,0.34506 0.18042,-0.29385 c 0.53105,0.04727 1.07076,0.04884 1.54271,-0.05121" /><path
               id="path208"
               style="fill:#afb12e;fill-opacity:1;fill-rule:nonzero;stroke:none"
               d="m 75.36378,71.3933 c -0.35062,-0.02993 -0.68863,-0.08271 -1.003,-0.13944 0.37819,-0.0063 0.73984,0.0063 1.05264,0.06539 l -0.04964,0.07405 z" /><path
               id="path210"
               style="fill:#afb12e;fill-opacity:1;fill-rule:nonzero;stroke:none"
               d="m 39.70495,71.24023 c -0.3774,0.02758 -1.11962,0.08273 -1.86654,0.0063 0.49007,-0.08116 1.48441,-0.1103 1.86654,-0.0063" /><path
               id="path212"
               style="fill:#afb12e;fill-opacity:1;fill-rule:nonzero;stroke:none"
               d="m 37.70793,71.03524 0.85882,-0.10715 0.12606,0.07879 -0.98488,0.02836 z" /><path
               id="path214"
               style="fill:#afb12e;fill-opacity:1;fill-rule:nonzero;stroke:none"
               d="M 7.444748,51.29832 7.859186,48.5394 c -0.21037,-0.48608 0.044123,-3.61134 -0.320677,-2.59979 0.49638,-1.6418 0.014182,-5.21689 0.728812,-3.88549 -0.122125,4.04385 -0.07879,8.85975 -0.084306,13.83557 -0.00236,2.48792 -0.017334,5.01601 -0.071699,7.50787 -0.026789,1.24632 -0.06382,2.48318 -0.113458,3.70114 l -0.085094,1.81197 -0.107155,1.05567 c 0.095336,-0.37578 0.190673,-0.67673 0.28601,-0.90284 -0.0717,0.2718 -0.115035,0.58299 -0.138672,0.86896 0.208795,0.02128 0.430984,0.02758 0.640566,0.02364 L 9.450754,69.92223 11.5324,69.80878 c 1.33786,-0.05357 2.64657,-0.0047 4.36105,0.48608 l -0.52632,-0.5759 c 2.23135,-0.16386 4.27123,0.83115 6.5987,0.22217 l -0.22534,0.23634 c 0.61614,0 0.85882,-0.10635 1.48441,-0.1095 l -0.2474,0.10557 c 1.62387,0.23555 2.62687,0.20483 4.23262,0.0449 0.11031,-0.18434 -0.75166,-0.0772 -1.2504,-0.12763 0.73748,-0.1875 2.00128,0.20405 3.25168,0.20169 0.98094,-0.1615 -0.01339,-0.26471 -0.14812,-0.34349 3.75121,0.25683 5.45545,-0.35215 8.10911,0.50971 0.25686,0.15678 -0.9707,0.2915 0.39632,0.3687 -2.47875,0.26707 -4.48003,-0.07248 -6.73816,-0.30488 l 0.62559,0 c -1.79012,-0.83666 -1.35913,0.18908 -4.23735,-0.17175 0.76033,0.33956 2.01073,0.33404 2.51027,0.5176 -3.31945,0.64049 -4.75028,-0.48687 -6.94459,0.33245 l 0.24267,0.02522 c -0.49008,0.08114 -1.37174,-0.07485 -2.12262,-0.15127 0.24662,-0.10714 0.98882,-0.1615 1.48836,-0.24028 -0.76033,-0.07957 -1.14719,-0.4459 -1.4009,-0.60189 -0.85251,0.36948 -1.13143,-0.17962 -2.48505,0.0055 -0.48141,0.34191 1.13143,0.31197 1.63727,0.49553 l -1.6286,-0.2324 c -1.49308,-0.02285 -1.47023,0.37185 -2.2085,0.55698 -1.26616,-0.26076 0.73827,-0.18513 -0.28286,-0.55147 -0.61614,0.16387 -2.01625,0.24738 -3.69054,0.26786 -1.64515,0.02127 -3.726792,-0.02048 -5.11902,-0.10478 0.049638,-0.97295 0.114247,-1.64969 0.189098,-2.4501 -0.049639,1.11949 -0.365589,0.401 -0.310435,1.70483 -0.07879,-0.43409 0.100064,-2.18776 0.363224,-2.2043 0.232432,-2.25315 0.066972,-5.11133 -0.173339,-7.21164 l 0.26316,0.60976 c 0.444379,-1.76547 -0.326192,-4.459 -0.070124,-7.58268 l 0.0063,0.06539 C 7.538505,52.59585 8.181435,51.73713 8.04828,49.89759 7.734693,50.41046 7.760694,51.39916 7.444744,51.29832" /><path
               id="path216"
               style="fill:#afb12e;fill-opacity:1;fill-rule:nonzero;stroke:none"
               d="m 8.051435,40.31817 -0.3648,1.01628 C 7.604693,40.21497 8.074285,38.81818 8.312232,39.05846 8.234229,39.81397 8.395749,40.79953 8.185379,40.93188 8.132589,40.80819 8.001797,40.82159 8.051435,40.31817" /><path
               id="path218"
               style="fill:#afb12e;fill-opacity:1;fill-rule:nonzero;stroke:none"
               d="m 8.110291,19.41457 c 0.085094,-0.40966 0.222189,-0.297 0.325406,-0.47269 -0.0457,4.42594 -0.193037,9.88549 0.094548,11.64861 0.10873,1.48818 -0.44359,1.76313 -0.572019,3.63812 l 0.371891,0.84533 c -0.234795,1.01234 0.167036,4.10608 -0.440439,3.00866 -0.053577,-0.11187 0.286798,-0.88078 0.18043,-1.74501 l -0.21037,0.13944 0.072487,-1.99631 -0.260008,0.63891 C 7.29875,32.3938 8.456969,33.20761 8.213507,29.86176 l -0.527108,0.02285 c -0.02994,-2.23502 0.149702,-3.36396 -0.170187,-5.33428 0,0 0.264736,-0.01733 0.159156,0.36397 0.026789,0.36948 0.239523,0.84847 0.396316,0.59401 0.411286,-3.37972 -0.314374,0.52626 -0.530259,-1.83482 0.361648,-2.87867 0.664991,-8.36973 0.24031,-9.9619 0.319102,1.35425 0.655537,-0.65624 0.626384,-2.27126 -0.185157,-0.7374 -0.313585,0.5105 -0.471954,0.77363 C 7.881011,11.46317 7.748643,10.85183 7.826646,10.10498 8.117383,11.07636 8.510547,10.43744 8.689402,8.693223 9.015594,12.52672 8.049623,15.56453 8.110291,19.41457" /><path
               id="path220"
               style="fill:#afb12e;fill-opacity:1;fill-rule:nonzero;stroke:none"
               d="m 8.555064,18.27674 c -0.016546,0.3939 -0.064608,0.57116 -0.118974,0.6657 l 0.011818,-1.53388 0.107156,0.86818 z" /></g></g></g></g></g></svg>