<?xml version="1.0" encoding="UTF-8" standalone="no"?>
<svg
   xmlns:dc="http://purl.org/dc/elements/1.1/"
   xmlns:cc="http://creativecommons.org/ns#"
   xmlns:rdf="http://www.w3.org/1999/02/22-rdf-syntax-ns#"
   xmlns:svg="http://www.w3.org/2000/svg"
   xmlns="http://www.w3.org/2000/svg"
   viewBox="0 0 990 765"
   height="765"
   width="990"
   xml:space="preserve"
   version="1.1"
   id="svg2"><metadata
     id="metadata8"><rdf:RDF><cc:Work
         rdf:about=""><dc:format>image/svg+xml</dc:format><dc:type
           rdf:resource="http://purl.org/dc/dcmitype/StillImage" /></cc:Work></rdf:RDF></metadata><defs
     id="defs6"><clipPath
       id="clipPath18"
       clipPathUnits="userSpaceOnUse"><path
         id="path20"
         d="M 0,0 792,0 792,612 0,612 0,0 Z" /></clipPath><clipPath
       id="clipPath28"
       clipPathUnits="userSpaceOnUse"><path
         id="path30"
         d="m 25.04346,196 741.9131,0 0,325.7176 -741.9131,0 0,-325.7176 z" /></clipPath><clipPath
       id="clipPath38"
       clipPathUnits="userSpaceOnUse"><path
         id="path40"
         d="m 25,522 742,0 0,-326 -742,0 0,326 z" /></clipPath><clipPath
       id="clipPath44"
       clipPathUnits="userSpaceOnUse"><path
         id="path46"
         d="m 53.53846,224.525 713.4181,0 0,264.875 -713.4181,0 0,-264.875 z" /></clipPath><clipPath
       id="clipPath230"
       clipPathUnits="userSpaceOnUse"><path
         id="path232"
         d="m 19.79118,93.70976 752.4176,0 0,139.8 -752.4176,0 0,-139.8 z" /></clipPath></defs><g
     transform="matrix(1.25,0,0,-1.25,0,765)"
     id="g10"><g
       id="g12" /><g
       id="g14"><g
         clip-path="url(#clipPath18)"
         id="g16"><path
           id="path22"
           style="fill:#ffffff;fill-opacity:1;fill-rule:nonzero;stroke:none"
           d="M 0,0 792,0 792,612 0,612 0,0 Z" /></g></g><g
       id="g24"><g
         clip-path="url(#clipPath28)"
         id="g26"><path
           id="path32"
           style="fill:#000000;fill-opacity:0;fill-rule:nonzero;stroke:none"
           d="m 25,196 742,0 0,326 -742,0 0,-326 z" /></g></g><g
       id="g34"><g
         clip-path="url(#clipPath38)"
         id="g36"><g
           clip-path="url(#clipPath44)"
           id="g42"><path
             id="path48"
             style="fill:#a3a510;fill-opacity:1;fill-rule:evenodd;stroke:none"
             d="m 800.4202,288.7708 c -1.5162,0 -3.273,0.1477 -5.4187,0.1477 -0.7807,0 -1.3686,-0.1958 -1.3686,-0.5843 0,-0.3435 0.2442,-0.5874 1.2239,-0.8346 2.1489,-0.5362 2.9745,-1.3613 3.074,-3.0242 0.0995,-1.2616 0.0995,-4.1445 0.0995,-8.7321 0,-9.6599 -0.2438,-13.2684 -0.3951,-14.7836 -0.0448,-0.6357 -0.141,-1.7561 -2.7784,-2.3917 -0.7868,-0.1926 -1.3201,-0.5843 -1.3201,-0.976 0,-0.2889 0.3918,-0.4912 1.3617,-0.4912 1.0314,0 3.8645,0.2986 5.8141,0.2986 1.8538,0 3.3667,-0.1477 4.6354,-0.1477 0.9284,0 1.3715,0.289 1.3715,0.5875 0,0.4366 -0.4431,0.7737 -1.1725,0.9246 -3.1735,0.5875 -3.2762,1.5602 -3.3182,3.0723 -0.0514,1.419 -0.2471,8.2506 -0.2022,9.1784 0.0513,0.1894 0.2442,0.5842 0.395,0.5842 1.025,0.1413 3.3696,0.1413 4.2979,0.1413 0.9797,0 2.7369,-0.1413 3.2701,-0.2408 0.9283,-0.2472 1.5162,-0.4847 2.0046,-2.3403 0.1892,-0.6806 0.4881,-1.0273 0.7257,-1.0273 0.4852,0 0.7327,0.5842 0.7327,1.1204 0,1.0723 -0.0967,1.5153 -0.0967,3.8588 0,0.8764 0.2475,2.4367 0.2475,3.0755 0,0.5811 -0.0962,1.0723 -0.4399,1.0723 -0.4436,0 -0.6331,-0.4912 -0.9255,-1.175 -0.6873,-1.6566 -1.1272,-2.0964 -2.6402,-2.2441 -1.1692,-0.0962 -5.1234,-0.0481 -7.0314,-0.0481 -0.2377,0 -0.4885,0.488 -0.4885,1.8106 0,3.2136 0.0995,9.6086 0.1929,10.7804 0,0.1412 0.2956,0.581 0.7836,0.6324 1.0249,0.0931 5.9107,0.1477 7.568,-0.0963 1.6156,-0.244 2.1522,-0.687 2.9329,-3.0755 0.2923,-0.976 0.6808,-1.5121 1.0726,-1.5121 0.4436,0 0.7294,0.6806 0.6878,1.3162 -0.0579,1.663 -0.2442,3.3677 -0.1512,4.7834 0,0.2922 -0.3405,0.5362 -0.5847,0.488 -0.395,0 -4.8792,-0.1477 -7.8122,-0.1477 l -6.3473,0 z" /><path
             id="path50"
             style="fill:#a3a510;fill-opacity:1;fill-rule:evenodd;stroke:none"
             d="m 840.7678,289.6457 c -3.4144,0 -7.6161,-1.4607 -10.0059,-3.4126 -3.7133,-2.9728 -6.3507,-7.1238 -6.3507,-13.1207 0,-4.1991 1.4681,-8.1478 4.0537,-11.0307 2.9811,-3.4126 7.7095,-5.5635 12.6947,-5.5635 2.4898,0 6.5402,0.687 9.6175,2.8347 3.5657,2.5362 6.9287,7.3131 6.9287,14.148 0,9.2714 -7.5647,16.1448 -16.938,16.1448 m -1.073,-1.6084 c 2.2456,0 5.3196,-1.0241 7.3209,-2.6325 3.6138,-2.931 5.9071,-8.0515 5.9071,-13.3646 0,-5.814 -2.1905,-9.7627 -4.1503,-11.5187 -0.5329,-0.5843 -2.3928,-2.3404 -6.4469,-2.3404 -7.8056,0 -13.1762,8.3437 -13.1762,15.6119 0,5.708 1.6573,9.3646 3.8062,11.4706 1.7091,1.7014 4.6869,2.7737 6.7392,2.7737" /><path
             id="path52"
             style="fill:#a3a510;fill-opacity:1;fill-rule:evenodd;stroke:none"
             d="m 889.3652,280.8673 c 0,2.3436 -1.1725,4.7802 -2.7817,6.0964 -1.9561,1.6084 -4.5906,2.0515 -7.9565,2.0515 -2.6407,0 -6.1003,-0.244 -7.9084,-0.244 l -2.734,0 c -1.0727,0 -1.3169,-0.244 -1.3169,-0.5843 0,-0.3885 0.4305,-0.6389 1.166,-0.8283 2.1971,-0.5361 2.6406,-0.6388 2.8302,-2.443 0.199,-1.907 0.2952,-6.3405 0.2952,-13.8527 0,-2.931 -0.1924,-8.0996 -0.2952,-9.6117 -0.1414,-1.8588 -1.0249,-2.1509 -3.1706,-2.838 -0.6393,-0.2375 -1.073,-0.3371 -1.073,-0.7255 0,-0.488 0.636,-0.6838 1.2687,-0.6838 0.5398,0 3.0777,0.1958 3.9513,0.1958 3.3215,0 4.2531,-0.2985 6.2989,-0.2985 0.2471,0 1.1758,0.1509 1.1758,0.6388 0,0.244 -0.3474,0.5875 -1.1758,0.8283 -2.2933,0.5361 -2.8298,1.2199 -2.9293,3.2681 -0.1447,2.8283 -0.2442,9.0307 -0.1896,9.859 0,0.1412 0.241,0.5811 0.5814,0.5811 1.4649,0 3.2734,-0.4399 3.4662,-0.6293 0.2952,-0.199 1.2688,-1.4157 1.9529,-2.443 1.9532,-3.0723 4.4458,-6.8252 6.148,-9.172 1.4167,-1.8042 4.2045,-3.1686 6.4953,-3.1686 1.0278,0 2.1009,0.0963 2.6887,0.3403 0.2924,0.1477 0.6776,0.3371 0.6776,0.6357 0,0.1926 -0.3852,0.5842 -0.7774,0.6806 -2.1457,0.4398 -3.4626,1.3226 -4.7859,2.8828 -2.975,3.3099 -7.0768,9.8975 -7.568,11.0725 -0.0967,0.1958 0.0513,0.6356 0.1957,0.7319 0.3436,0.244 1.2687,0.6774 1.5129,0.8283 2.3964,1.4639 3.9575,4.1991 3.9575,6.8316 m -4.346,-0.0963 c 0,-3.0723 -1.9019,-5.2232 -3.2192,-6.0515 -0.6869,-0.4398 -3.2762,-1.2681 -6.106,-1.2681 -0.2923,0 -0.6841,0.3403 -0.7807,0.732 -0.1476,0.8282 0,10.2442 0.148,11.9553 0,0.1958 0.3404,0.9214 0.5846,1.0241 0.5365,0.244 2.1009,0.3371 2.3451,0.3371 1.5578,0 3.6651,-0.7256 4.8311,-1.8524 1.4163,-1.4093 2.1971,-3.708 2.1971,-4.8765" /><path
             id="path54"
             style="fill:#a3a510;fill-opacity:1;fill-rule:evenodd;stroke:none"
             d="m 913.5731,288.4778 c 0,-0.3372 0.4432,-0.732 1.3715,-0.9311 2.1457,-0.4847 2.7336,-1.1653 5.024,-4.5843 2.3479,-3.5603 5.3771,-8.4882 6.2059,-10.2442 0.148,-0.3917 0.4403,-1.5121 0.4403,-1.756 0,-2.8284 0,-8.0998 -0.1513,-10.0966 -0.0485,-0.6838 -0.5332,-1.7625 -3.1702,-2.3467 -1.0314,-0.1895 -1.3686,-0.5843 -1.3686,-0.8732 0,-0.2922 0.3918,-0.5426 1.2174,-0.5426 0.7359,0 3.9028,0.2954 6.839,0.2954 1.1179,0 3.5139,-0.1959 4.2429,-0.1959 0.9768,0 1.4681,0.1509 1.4681,0.5361 0,0.3403 -0.3433,0.6389 -1.3169,0.8765 -2.7368,0.6838 -3.2762,1.2745 -3.4658,2.2986 -0.1961,1.5602 -0.2992,7.6117 -0.2992,10.3405 0,0.6356 0.6878,2.1958 1.2243,2.976 1.6605,2.3949 4.2017,6.6839 6.4949,9.5668 1.6096,2.0032 3.0259,3.2167 5.3229,3.801 0.8288,0.2472 1.2687,0.4848 1.2687,0.8797 0,0.2921 -0.4913,0.4879 -1.0311,0.4879 -0.7774,0 -3.6137,-0.1958 -5.419,-0.1958 -1.1179,0 -1.9015,0.0546 -3.1674,0.0546 -0.5426,0 -1.1305,-0.1028 -1.1305,-0.4431 0,-0.3435 0.2956,-0.7833 1.0278,-0.9727 1.908,-0.443 2.4413,-1.0273 1.42,-2.7834 -1.2239,-2.0032 -4.9372,-8.0996 -6.2993,-10.0483 -0.0966,-0.2023 -0.3889,-0.2504 -0.4884,-0.1028 -2.2003,3.5635 -5.8108,9.5604 -6.3954,10.6872 -0.6874,1.2681 -1.0278,1.8524 0.7326,2.2473 0.7289,0.1894 1.0726,0.5811 1.0726,0.9278 0,0.2825 -0.2923,0.5361 -1.0726,0.5361 -1.9565,0 -2.3451,-0.1027 -3.7104,-0.1027 -2.297,0 -4.8377,0.244 -5.5699,0.244 -0.8289,0 -1.3169,-0.1894 -1.3169,-0.5361" /><path
             id="path56"
             style="fill:#a3a510;fill-opacity:1;fill-rule:evenodd;stroke:none"
             d="m 965.6432,289.6457 c -3.421,0 -7.6161,-1.4607 -10.0129,-3.4126 -3.7064,-2.9728 -6.3441,-7.1238 -6.3441,-13.1207 0,-4.1991 1.4619,-8.1478 4.0475,-11.0307 2.9811,-3.4126 7.7193,-5.5635 12.6915,-5.5635 2.4959,0 6.5435,0.687 9.6236,2.8347 3.5591,2.5362 6.9258,7.3131 6.9258,14.148 0,9.2714 -7.5651,16.1448 -16.9314,16.1448 m -1.0735,-1.6084 c 2.2395,0 5.3135,-1.0241 7.3144,-2.6325 3.6208,-2.931 5.9104,-8.0515 5.9104,-13.3646 0,-5.814 -2.1934,-9.7627 -4.1532,-11.5187 -0.5329,-0.5843 -2.3834,-2.3404 -6.4375,-2.3404 -7.8122,0 -13.1827,8.3437 -13.1827,15.6119 0,5.708 1.6544,9.3646 3.8062,11.4706 1.7127,1.7014 4.6836,2.7737 6.7424,2.7737" /><path
             id="path58"
             style="fill:#a3a510;fill-opacity:1;fill-rule:evenodd;stroke:none"
             d="m 991.3408,288.3352 c 0,-0.4398 0.5329,-0.6838 1.1245,-0.8347 1.8497,-0.3916 2.5403,-1.1653 2.6341,-2.0963 0.0513,-0.6293 0.1928,-4.5363 0.1928,-11.5669 0,-8.1928 1.1689,-11.7562 3.9028,-14.3406 1.182,-1.0722 4.448,-2.8829 8.84,-2.8829 2.145,0 4.789,0.2986 7.034,1.5667 3.512,1.9455 5.86,6.2473 6.104,14.7355 0.093,2.5361 0.382,7.9519 0.434,10.0483 0.099,3.0723 1.078,3.907 3.173,4.4913 0.684,0.244 1.073,0.581 1.073,0.8796 0,0.3885 -0.44,0.5361 -1.218,0.5361 -1.368,0 -2.389,-0.0995 -4.391,-0.0995 -1.561,0 -2.935,0.1477 -4.153,0.1477 -0.835,0 -1.124,-0.1958 -1.124,-0.488 0,-0.3467 0.533,-0.7801 1.025,-0.8828 2.733,-0.6293 3.074,-1.3163 3.225,-3.1686 0.048,-0.5843 0.198,-3.1205 0.198,-6.2955 0,-5.5635 -0.487,-9.6599 -1.079,-12.2442 -1.217,-5.3677 -5.952,-6.8316 -9.132,-6.8316 -2.538,0 -5.711,1.1717 -7.073,2.6806 -1.51,1.7143 -2.7342,3.8107 -2.7342,9.326 0,6.9215 -0.0509,11.9938 0.1929,13.6086 0.2956,1.9487 1.2243,2.4367 2.9743,2.7834 0.929,0.1894 1.468,0.5361 1.468,0.9278 0,0.3885 -0.581,0.5361 -1.513,0.5361 -1.072,0 -2.9293,-0.0995 -4.7342,-0.0995 -1.802,0 -2.981,0.1477 -5.0272,0.1477 -0.784,0 -1.4168,-0.1958 -1.4168,-0.5843" /><path
             id="path60"
             style="fill:#a3a510;fill-opacity:1;fill-rule:evenodd;stroke:none"
             d="m 1048.477,288.6752 c -6.241,0 -10.15,0.1477 -11.419,0.2921 -0.733,0.045 -1.51,0.7801 -1.661,0.9278 -0.533,0.443 -0.533,0.7833 -0.778,0.7833 -0.295,0 -0.735,-0.443 -0.735,-0.7833 0,-2.8829 -0.922,-5.5154 -0.922,-6.4367 0,-0.4848 0.19,-1.1204 0.488,-1.1204 0.19,0 0.479,-0.0482 0.922,0.9695 0.829,1.6084 1.414,2.3949 1.613,2.5394 0.729,0.825 1.75,1.1172 3.614,1.1172 0.78,0 5.075,-0.0931 6.055,-0.244 0.144,0 0.389,-0.244 0.389,-0.6292 l 0,-5.7947 c 0,-3.7529 -0.245,-13.6889 -0.338,-16.5653 -0.151,-3.6502 -0.244,-4.4849 -3.672,-5.2586 -0.433,-0.1027 -0.921,-0.488 -0.921,-0.8347 0,-0.2857 0.488,-0.5842 1.461,-0.5842 0.633,0 3.132,0.3467 5.567,0.3467 2.149,0 5.175,-0.244 5.564,-0.244 0.488,0 1.368,0.0481 1.368,0.5843 0,0.337 -0.684,0.7319 -1.317,0.8732 -3.033,0.6806 -3.277,1.2713 -3.514,3.4607 -0.196,1.8042 -0.196,6.4271 -0.196,12.0805 l 0,11.9361 c 0,0.093 0.196,0.581 0.433,0.6292 0.591,0.1509 6.01,0.1509 6.839,0.1027 3.023,-0.1509 3.665,-0.3948 3.958,-2.9246 0.144,-1.2232 0.34,-1.5602 0.684,-1.5602 0.388,0 0.774,0.4879 0.828,0.9214 0.29,2.5393 0.585,4.0514 1.073,5.5635 0.245,0.6805 0.046,1.1204 -0.199,1.1204 -0.189,0 -0.34,-0.0963 -0.678,-0.2986 -0.684,-0.4816 -1.564,-0.7737 -3.327,-0.8732 -1.995,-0.0482 -8.638,-0.0963 -11.179,-0.0963" /><path
             id="path62"
             style="fill:#a3a510;fill-opacity:1;fill-rule:evenodd;stroke:none"
             d="m 1079.652,275.3041 c -0.051,0.8315 0,7.2714 0.145,8.8798 0.151,2.0482 0.289,2.7802 2.592,3.2232 1.021,0.1894 1.41,0.4398 1.41,0.9278 0,0.2857 -0.533,0.5361 -1.561,0.5361 -1.124,0 -2.586,-0.0995 -4.645,-0.0995 -1.259,0 -3.074,0.0995 -4.433,0.0995 -0.787,0 -1.413,-0.1958 -1.413,-0.5361 0,-0.3917 0.341,-0.7384 1.362,-0.9278 2.053,-0.443 2.338,-1.1204 2.441,-2.7833 0.1,-2.151 0,-6.6358 0,-7.5091 0,-7.9584 -0.295,-13.4737 -0.44,-15.4738 -0.196,-1.9005 -0.591,-2.3885 -3.074,-3.0273 -0.54,-0.1413 -1.124,-0.4334 -1.124,-0.9214 0,-0.2921 0.388,-0.488 1.461,-0.488 1.658,0 3.717,0.1959 4.838,0.1959 1.757,0 4.738,-0.1959 5.075,-0.1959 0.643,0 1.468,0.0996 1.413,0.488 -0.051,0.488 -0.388,0.6838 -1.461,0.9759 -2.046,0.6325 -2.586,1.5153 -2.637,3.8043 0,1.4125 -0.1,7.6599 0,8.9312 0,0.3852 0.388,0.825 0.533,0.825 0.98,0.0963 10.597,-0.0449 18.165,-0.0449 0.395,0 0.582,-0.1445 0.582,-1.0273 0,-2.4399 -0.094,-5.8043 -0.187,-7.8557 -0.15,-3.4576 -0.395,-4.0001 -3.032,-4.7802 -0.533,-0.1445 -1.073,-0.4431 -1.073,-0.8765 0,-0.4398 0.485,-0.5425 1.218,-0.5425 0.979,0 4.638,0.2986 5.717,0.2986 1.51,0 3.274,-0.1509 4.044,-0.1509 0.929,0 1.375,0.1509 1.375,0.5361 0,0.3403 -0.446,0.687 -1.124,0.931 -2.194,0.6356 -2.682,0.8283 -2.785,2.7352 0,0.7256 -0.193,5.0724 -0.193,7.2168 0,8.2988 0.145,13.6151 0.395,16.1063 0.093,1.4093 0.482,2.2858 2.535,2.7737 1.028,0.2504 1.416,0.5908 1.416,0.8347 0,0.3885 -0.581,0.5843 -1.368,0.5843 -0.533,0 -2.785,-0.1444 -4.446,-0.1444 -1.217,0 -4.343,0.0963 -4.982,0.0963 -1.021,0 -1.513,-0.1959 -1.513,-0.5362 0,-0.4398 0.54,-0.7319 1.224,-0.9277 2.197,-0.5843 2.534,-0.9792 2.685,-2.7834 0.145,-1.9005 0.145,-8.2988 0.094,-8.928 -0.094,-0.9759 -0.245,-1.268 -0.534,-1.268 -8.637,0 -15.28,-0.1477 -18.155,-0.1477 -0.344,0 -0.488,0.0449 -0.54,0.9759" /><path
             id="path64"
             style="fill:#a3a510;fill-opacity:1;fill-rule:evenodd;stroke:none"
             d="m 805.1571,368.611 c -3.4176,0 -5.715,-1.0241 -7.2275,-2.3885 -1.6577,-1.4639 -2.6826,-3.663 -2.6826,-5.9552 0,-4.1477 2.9268,-6.976 7.0799,-9.6598 5.1268,-3.2714 6.1036,-5.464 6.1036,-7.5123 0,-3.512 -2.5379,-5.9102 -5.9144,-5.9102 -1.8497,0 -5.0749,1.2231 -6.3469,3.9102 -0.6809,1.5121 -1.4098,2.7802 -1.802,2.7802 -0.1929,0 -0.6809,-0.732 -0.6809,-0.9311 0,-0.7768 0.488,-2.9214 0.7261,-4.5843 0,-0.1958 0.6389,-1.2681 1.1273,-1.5602 1.5129,-0.732 4.8307,-1.2681 6.3922,-1.2681 2.2036,0 5.0786,0.7319 6.6397,1.756 2.6341,1.7111 4.0088,4.4367 4.0088,6.8798 0,4.3885 -2.9806,6.9247 -6.7457,9.4641 -4.295,2.8796 -6.7807,4.3917 -6.7807,7.8557 0,3.2713 2.3446,5.7079 5.6147,5.7079 1.4102,0 2.586,-0.4366 3.463,-1.1236 0.488,-0.2889 1.8118,-1.7528 2.3964,-3.5121 0.1863,-0.6806 0.777,-1.0241 1.166,-1.0241 0.3469,0 0.3469,0.488 0.3469,1.3195 0,0.1926 -0.3922,3.0209 -0.4916,3.9519 0,0.0963 -0.2895,0.8283 -0.5814,0.9278 -0.8835,0.1445 -3.421,0.8764 -5.8109,0.8764" /><path
             id="path66"
             style="fill:#a3a510;fill-opacity:1;fill-rule:evenodd;stroke:none"
             d="m 823.0597,367.2941 c 0,-0.4398 0.5366,-0.6838 1.1212,-0.8282 1.8599,-0.3917 2.5407,-1.1718 2.6406,-2.0996 0.0481,-0.6325 0.1863,-4.5394 0.1863,-11.5636 0,-8.1928 1.1787,-11.7563 3.9122,-14.3406 1.1726,-1.0787 4.4394,-2.8829 8.8368,-2.8829 2.1461,0 4.783,0.2921 7.0286,1.5602 3.5143,1.9519 5.8589,6.2474 6.1031,14.7355 0.093,2.5361 0.3918,7.952 0.4399,10.0548 0.0934,3.0722 1.0731,3.8973 3.1707,4.488 0.6873,0.244 1.0763,0.5843 1.0763,0.8764 0,0.3917 -0.4403,0.5361 -1.2211,0.5361 -1.3714,0 -2.3927,-0.0963 -4.3908,-0.0963 -1.5643,0 -2.933,0.1445 -4.1536,0.1445 -0.8288,0 -1.1211,-0.1926 -1.1211,-0.488 0,-0.3403 0.5365,-0.7801 1.0249,-0.8764 2.7336,-0.6356 3.0773,-1.3162 3.2248,-3.175 0.0486,-0.5843 0.1896,-3.1205 0.1896,-6.2923 0,-5.5603 -0.4847,-9.6631 -1.0726,-12.2474 -1.2206,-5.3677 -5.9523,-6.8252 -9.1295,-6.8252 -2.5374,0 -5.7113,1.1654 -7.0795,2.6807 -1.513,1.7078 -2.7336,3.8042 -2.7336,9.3196 0,6.9279 -0.0514,12.0002 0.1928,13.6086 0.2956,1.9551 1.2239,2.443 2.9811,2.7801 0.9279,0.1991 1.4677,0.5394 1.4677,0.931 0,0.3917 -0.5814,0.5361 -1.5163,0.5361 -1.0726,0 -2.9325,-0.0963 -4.7345,-0.0963 -1.8085,0 -2.9745,0.1445 -5.0305,0.1445 -0.7775,0 -1.4135,-0.1926 -1.4135,-0.5843" /><path
             id="path68"
             style="fill:#a3a510;fill-opacity:1;fill-rule:evenodd;stroke:none"
             d="m 885.1933,358.414 c 0,-5.6117 -3.6106,-7.9039 -6.1994,-7.9039 l -1.221,0 c -0.3918,0 -0.5814,-0.2439 -0.5814,-0.4397 0,-0.2922 0.2442,-0.5361 0.8288,-0.7802 0.7808,-0.2921 2.0462,-0.3403 2.586,-0.3403 2.0976,0 4.3428,1.0723 5.6115,2.1446 1.4196,1.2199 3.4246,3.2231 3.4246,7.5635 0,1.6084 -0.4917,4.3885 -2.8335,6.6358 -1.8117,1.7079 -4.6896,2.8765 -9.1323,2.8765 -2.4412,0 -6.2026,-0.3885 -8.1493,-0.3885 -0.4432,0 -1.2688,0.0481 -1.6157,0 -0.6299,-0.0482 -1.1212,-0.2889 -1.1212,-0.6838 0,-0.2922 0.5366,-0.5843 1.513,-0.7319 2.7368,-0.3885 2.6822,-1.0723 2.7368,-2.8284 0.0481,-1.5634 0.1443,-11.9071 0.1443,-13.5155 0,-2.4431 -0.0962,-6.4849 -0.247,-8.8317 -0.148,-2.0481 -0.6813,-2.9792 -3.4116,-3.6116 -0.488,-0.1412 -0.9797,-0.4398 -0.9797,-0.7769 0,-0.443 0.5366,-0.687 1.3654,-0.687 1.5162,0 3.5172,0.1958 4.9274,0.1958 2.1522,0 3.9093,-0.1958 5.1332,-0.1958 0.7322,0 1.6063,0.1509 1.6063,0.5843 0,0.4398 -0.3857,0.6838 -1.3144,0.9278 -2.4922,0.7319 -2.884,1.1204 -2.9325,4.2954 0,1.2199 -0.0962,5.3195 -0.0962,9.7594 0.0481,5.6085 0.0481,11.6568 0.0962,12.6841 0.0485,1.1718 0.2956,1.7561 0.4884,1.9037 0.3947,0.244 0.8802,0.4366 1.4167,0.4366 4.5902,0 7.9566,-3.8524 7.9566,-8.2923" /><path
             id="path70"
             style="fill:#a3a510;fill-opacity:1;fill-rule:evenodd;stroke:none"
             d="m 918.2347,358.414 c 0,-5.6117 -3.6105,-7.9039 -6.2059,-7.9039 l -1.2145,0 c -0.3951,0 -0.5814,-0.2439 -0.5814,-0.4397 0,-0.2922 0.2377,-0.5361 0.8288,-0.7802 0.7775,-0.2921 2.0463,-0.3403 2.5824,-0.3403 2.098,0 4.3464,1.0723 5.6151,2.1446 1.4135,1.2199 3.4148,3.2231 3.4148,7.5635 0,1.6084 -0.4916,4.3885 -2.8302,6.6358 -1.8085,1.7079 -4.6864,2.8765 -9.1323,2.8765 -2.438,0 -6.1965,-0.3885 -8.1526,-0.3885 -0.4338,0 -1.2655,0.0481 -1.6059,0 -0.6397,-0.0482 -1.1277,-0.2889 -1.1277,-0.6838 0,-0.2922 0.5398,-0.5843 1.513,-0.7319 2.7368,-0.3885 2.6887,-1.0723 2.7368,-2.8284 0.0514,-1.5634 0.1476,-11.9071 0.1476,-13.5155 0,-2.4431 -0.0962,-6.4849 -0.2438,-8.8317 -0.148,-2.0481 -0.6845,-2.9792 -3.4213,-3.6116 -0.4881,-0.1412 -0.9732,-0.4398 -0.9732,-0.7769 0,-0.443 0.5398,-0.687 1.3686,-0.687 1.5126,0 3.5139,0.1958 4.9241,0.1958 2.1522,0 3.9126,-0.1958 5.1268,-0.1958 0.7358,0 1.6156,0.1509 1.6156,0.5843 0,0.4398 -0.3918,0.6838 -1.3135,0.9278 -2.4959,0.7319 -2.8877,1.1204 -2.9362,4.2954 0,1.2199 -0.0963,5.3195 -0.0963,9.7594 0.0514,5.6085 0.0514,11.6568 0.0963,12.6841 0.0485,1.1718 0.2955,1.7561 0.4884,1.9037 0.395,0.244 0.8834,0.4366 1.4163,0.4366 4.5939,0 7.9602,-3.8524 7.9602,-8.2923" /><path
             id="path72"
             style="fill:#a3a510;fill-opacity:1;fill-rule:evenodd;stroke:none"
             d="m 950.4917,368.611 c -3.4177,0 -7.6161,-1.4671 -10.0125,-3.4126 -3.7067,-2.9792 -6.3441,-7.1237 -6.3441,-13.127 0,-4.1992 1.4648,-8.1479 4.0537,-11.0244 2.9778,-3.419 7.716,-5.5635 12.6918,-5.5635 2.4894,0 6.5431,0.6806 9.6171,2.8283 3.5657,2.5394 6.932,7.3196 6.932,14.148 0,9.2715 -7.568,16.1512 -16.938,16.1512 m -1.073,-1.6084 c 2.239,0 5.3163,-1.0241 7.3209,-2.6357 3.6073,-2.9278 5.9042,-8.0483 5.9042,-13.3678 0,-5.8075 -2.1909,-9.7626 -4.1471,-11.5123 -0.5365,-0.5907 -2.3898,-2.3467 -6.4439,-2.3467 -7.809,0 -13.1795,8.3436 -13.1795,15.615 0,5.7048 1.6544,9.3678 3.8062,11.4674 1.7123,1.7047 4.6836,2.7801 6.7392,2.7801" /><path
             id="path74"
             style="fill:#a3a510;fill-opacity:1;fill-rule:evenodd;stroke:none"
             d="m 1000.959,359.8278 c 0,2.3436 -1.1728,4.7803 -2.7852,6.0997 -1.9533,1.6116 -4.587,2.0482 -7.957,2.0482 -2.6402,0 -6.1031,-0.2408 -7.9178,-0.2408 l -2.7274,0 c -1.0727,0 -1.3103,-0.244 -1.3103,-0.5907 0,-0.3852 0.4301,-0.6292 1.166,-0.8283 2.1938,-0.5361 2.6341,-0.6324 2.8298,-2.4366 0.1928,-1.9037 0.289,-6.3436 0.289,-13.8591 0,-2.9214 -0.1896,-8.0996 -0.289,-9.6117 -0.1444,-1.8524 -1.0246,-2.1445 -3.1703,-2.8283 -0.6392,-0.244 -1.073,-0.3403 -1.073,-0.732 0,-0.4911 0.6295,-0.687 1.2622,-0.687 0.5398,0 3.0805,0.1959 3.9575,0.1959 3.3214,0 4.2498,-0.289 6.2992,-0.289 0.2475,0 1.1758,0.1413 1.1758,0.6293 0,0.2504 -0.3469,0.5907 -1.1758,0.8346 -2.2932,0.5362 -2.8298,1.2168 -2.9292,3.2714 -0.1448,2.8283 -0.2508,9.021 -0.1929,9.8525 0,0.1445 0.2442,0.5875 0.5814,0.5875 1.4681,0 3.2762,-0.443 3.469,-0.6388 0.2891,-0.1927 1.2688,-1.4126 1.9533,-2.4335 1.9496,-3.0755 4.4422,-6.8316 6.148,-9.1719 1.4167,-1.8139 4.1987,-3.1782 6.4917,-3.1782 1.031,0 2.104,0.1027 2.692,0.3402 0.289,0.1509 0.678,0.3468 0.678,0.6389 0,0.1958 -0.389,0.5843 -0.784,0.6838 -2.146,0.4366 -3.463,1.3162 -4.779,2.8797 -2.9757,3.3162 -7.0836,9.9007 -7.5688,11.0724 -0.0995,0.1927 0.0514,0.6357 0.1961,0.732 0.3437,0.2407 1.2655,0.6838 1.5129,0.8314 2.3965,1.4639 3.9578,4.1928 3.9578,6.8284 m -4.3495,-0.0963 c 0,-3.0755 -1.9048,-5.22 -3.222,-6.0515 -0.6776,-0.4398 -3.2701,-1.2713 -6.0999,-1.2713 -0.2956,0 -0.6841,0.3468 -0.784,0.7352 -0.1509,0.8315 0,10.2474 0.1512,11.9521 0,0.1991 0.3372,0.931 0.5847,1.0241 0.5328,0.244 2.0943,0.3467 2.3385,0.3467 1.561,0 3.6713,-0.7319 4.8373,-1.8587 1.4167,-1.4126 2.1942,-3.7048 2.1942,-4.8766" /><path
             id="path76"
             style="fill:#a3a510;fill-opacity:1;fill-rule:evenodd;stroke:none"
             d="m 1027.159,367.6344 c -6.248,0 -10.151,0.1477 -11.426,0.2954 -0.726,0.0449 -1.51,0.7801 -1.655,0.9246 -0.539,0.443 -0.539,0.78 -0.783,0.78 -0.296,0 -0.73,-0.4365 -0.73,-0.78 0,-2.8765 -0.928,-5.509 -0.928,-6.4368 0,-0.4815 0.19,-1.1172 0.488,-1.1172 0.196,0 0.492,-0.0513 0.929,0.9728 0.829,1.6084 1.413,2.3884 1.606,2.5329 0.736,0.8283 1.763,1.1204 3.613,1.1204 0.788,0 5.076,-0.0995 6.055,-0.2408 0.145,0 0.389,-0.2439 0.389,-0.6356 l 0,-5.7946 c 0,-3.753 -0.244,-13.6889 -0.337,-16.5654 -0.144,-3.6501 -0.244,-4.4784 -3.659,-5.2585 -0.446,-0.0964 -0.935,-0.4912 -0.935,-0.8283 0,-0.2922 0.489,-0.5843 1.468,-0.5843 0.633,0 3.126,0.3403 5.567,0.3403 2.146,0 5.175,-0.244 5.564,-0.244 0.482,0 1.368,0.0482 1.368,0.5843 0,0.3435 -0.684,0.732 -1.317,0.8796 -3.032,0.6806 -3.27,1.2649 -3.514,3.4544 -0.202,1.8042 -0.202,6.4335 -0.202,12.0837 l 0,11.9328 c 0,0.0995 0.202,0.5843 0.446,0.6356 0.585,0.1413 5.997,0.1413 6.833,0.0964 3.029,-0.1477 3.658,-0.3917 3.951,-2.9247 0.151,-1.2135 0.34,-1.557 0.684,-1.557 0.395,0 0.784,0.4848 0.829,0.9246 0.295,2.5329 0.591,4.045 1.079,5.5571 0.238,0.6838 0.051,1.1204 -0.199,1.1204 -0.196,0 -0.341,-0.0963 -0.684,-0.2921 -0.684,-0.488 -1.558,-0.7802 -3.322,-0.8765 -2.001,-0.0481 -8.638,-0.0995 -11.178,-0.0995" /><path
             id="path78"
             style="fill:#a3a510;fill-opacity:1;fill-rule:evenodd;stroke:none"
             d="m 1076.283,368.611 c -3.418,0 -5.715,-1.0241 -7.227,-2.3885 -1.665,-1.4639 -2.686,-3.663 -2.686,-5.9552 0,-4.1477 2.929,-6.976 7.076,-9.6598 5.127,-3.2714 6.107,-5.464 6.107,-7.5123 0,-3.512 -2.541,-5.9102 -5.904,-5.9102 -1.857,0 -5.082,1.2231 -6.351,3.9102 -0.678,1.5121 -1.41,2.7802 -1.805,2.7802 -0.196,0 -0.684,-0.732 -0.684,-0.9311 0,-0.7768 0.488,-2.9214 0.732,-4.5843 0,-0.1958 0.636,-1.2681 1.125,-1.5602 1.519,-0.732 4.837,-1.2681 6.392,-1.2681 2.203,0 5.081,0.7319 6.642,1.756 2.638,1.7111 4.006,4.4367 4.006,6.8798 0,4.3885 -2.981,6.9247 -6.739,9.4641 -4.298,2.8796 -6.781,4.3917 -6.781,7.8557 0,3.2713 2.338,5.7079 5.608,5.7079 1.417,0 2.589,-0.4366 3.463,-1.1236 0.489,-0.2889 1.806,-1.7528 2.396,-3.5121 0.2,-0.6806 0.784,-1.0241 1.167,-1.0241 0.347,0 0.347,0.488 0.347,1.3195 0,0.1926 -0.393,3.0209 -0.486,3.9519 0,0.0963 -0.295,0.8283 -0.587,0.9278 -0.88,0.1445 -3.421,0.8764 -5.811,0.8764" /><path
             id="path80"
             style="fill:#a3a510;fill-opacity:1;fill-rule:evenodd;stroke:none"
             d="m 1101.448,367.7346 c -3.277,0 -5.175,0.1958 -7.466,0.1958 -0.69,0 -1.374,-0.2472 -1.374,-0.6838 0,-0.3916 0.395,-0.5843 1.416,-0.8314 2.146,-0.488 2.637,-1.0755 2.737,-3.22 0.093,-1.4158 0.051,-2.4399 0.051,-8.2474 0,-6.0483 -0.247,-11.8044 -0.395,-13.8526 -0.19,-2.6325 -1.118,-2.9792 -3.566,-3.5635 -0.777,-0.1958 -1.361,-0.4398 -1.361,-0.7801 0,-0.5425 0.533,-0.6388 1.458,-0.6388 1.863,0 2.936,0.2472 5.518,0.2472 7.964,0 15.329,-0.3885 15.869,-0.3885 0.244,0 0.69,0.3885 0.832,0.5843 0.34,0.4398 1.709,4.8283 1.757,5.2168 0.096,0.5361 -0.048,1.3226 -0.395,1.3226 -0.292,0 -0.581,-0.2985 -1.121,-1.3708 -1.176,-2.2921 -2.493,-3.2167 -4.047,-3.6084 -1.073,-0.2921 -4.055,-0.3403 -4.642,-0.3403 -1.953,0 -3.614,0.1958 -4.443,0.3403 -0.34,0.0963 -0.736,0.488 -0.922,1.0722 -0.302,0.7866 -0.491,2.6389 -0.491,4.0515 0,2.0932 -0.048,6.6358 0.144,7.6599 0,0.0995 0.238,0.4398 0.441,0.4398 1.316,0 3.27,0 4.831,-0.0963 2.981,-0.1509 3.18,-0.2954 3.858,-2.5362 0.151,-0.5361 0.488,-1.0722 0.835,-1.0722 0.337,0 0.581,0.5361 0.533,1.4093 -0.051,0.976 -0.144,1.663 -0.144,2.9792 0,1.1718 0.044,2.1445 0.144,3.5153 0.048,0.3852 -0.051,1.0722 -0.389,1.0722 -0.295,0 -0.591,-0.2921 -0.886,-1.0273 -0.877,-2.244 -1.073,-2.4398 -5.657,-2.4398 l -3.177,0 c -0.244,0 -0.286,0.2954 -0.344,0.488 -0.093,0.7319 0.058,9.9039 0.151,11.127 0.1,1.1172 0.64,1.3644 0.733,1.3644 2.146,0.0995 5.66,0 6.928,-0.1958 1.562,-0.244 2.641,-0.7288 3.274,-3.3163 0.093,-0.4912 0.347,-1.1718 0.777,-1.1718 0.447,0 0.736,0.5843 0.736,1.2713 0,0.9759 -0.093,2.3853 -0.093,4.6325 -0.052,0.244 -0.296,0.5875 -0.441,0.5362 -0.735,-0.0964 -2.887,-0.1445 -4.493,-0.1445 l -7.176,0 z" /><path
             id="path82"
             style="fill:#a3a510;fill-opacity:1;fill-rule:evenodd;stroke:none"
             d="m 1147.071,359.8278 c 0,2.3436 -1.179,4.7803 -2.791,6.0997 -1.953,1.6116 -4.587,2.0482 -7.95,2.0482 -2.641,0 -6.103,-0.2408 -7.912,-0.2408 l -2.734,0 c -1.073,0 -1.317,-0.244 -1.317,-0.5907 0,-0.3852 0.437,-0.6292 1.166,-0.8283 2.201,-0.5361 2.641,-0.6324 2.837,-2.4366 0.193,-1.9037 0.289,-6.3436 0.289,-13.8591 0,-2.9214 -0.19,-8.0996 -0.289,-9.6117 -0.145,-1.8524 -1.025,-2.1445 -3.177,-2.8283 -0.633,-0.244 -1.073,-0.3403 -1.073,-0.732 0,-0.4911 0.636,-0.687 1.275,-0.687 0.534,0 3.074,0.1959 3.945,0.1959 3.321,0 4.256,-0.289 6.299,-0.289 0.248,0 1.176,0.1413 1.176,0.6293 0,0.2504 -0.347,0.5907 -1.176,0.8346 -2.287,0.5362 -2.827,1.2168 -2.93,3.2714 -0.144,2.8283 -0.238,9.021 -0.186,9.8525 0,0.1445 0.244,0.5875 0.581,0.5875 1.462,0 3.271,-0.443 3.469,-0.6388 0.29,-0.1927 1.27,-1.4126 1.948,-2.4335 1.955,-3.0755 4.448,-6.8316 6.154,-9.1719 1.416,-1.8139 4.199,-3.1782 6.492,-3.1782 1.031,0 2.104,0.1027 2.685,0.3402 0.296,0.1509 0.678,0.3468 0.678,0.6389 0,0.1958 -0.382,0.5843 -0.771,0.6838 -2.146,0.4366 -3.469,1.3162 -4.793,2.8797 -2.968,3.3162 -7.076,9.9007 -7.561,11.0724 -0.1,0.1927 0.045,0.6357 0.196,0.732 0.337,0.2407 1.266,0.6838 1.519,0.8314 2.39,1.4639 3.951,4.1928 3.951,6.8284 m -4.35,-0.0963 c 0,-3.0755 -1.904,-5.22 -3.221,-6.0515 -0.685,-0.4398 -3.277,-1.2713 -6.107,-1.2713 -0.289,0 -0.684,0.3468 -0.777,0.7352 -0.145,0.8315 0,10.2474 0.151,11.9521 0,0.1991 0.337,0.931 0.585,1.0241 0.533,0.244 2.094,0.3467 2.338,0.3467 1.561,0 3.665,-0.7319 4.832,-1.8587 1.416,-1.4126 2.199,-3.7048 2.199,-4.8766" /><path
             id="path84"
             style="fill:#a3a510;fill-opacity:1;fill-rule:evenodd;stroke:none"
             d="m 1154.757,367.3426 c 0,-0.4398 0.539,-0.6356 1.124,-0.8283 2.146,-0.6388 3.167,-1.8556 4.147,-4.2954 0.726,-1.7561 5.374,-13.5637 7.031,-18.0036 1.417,-3.5602 2.239,-6.5394 2.535,-7.952 0.1,-0.5361 0.488,-0.9278 0.777,-0.9278 0.491,0 0.836,0.5875 1.025,1.1236 1.134,3.7048 1.763,4.9279 4.59,11.8077 2.981,7.3677 4.205,9.4608 6.444,14.3438 1.031,2.1477 2.104,3.3162 4.25,3.8556 0.687,0.1413 1.272,0.4366 1.272,0.8283 0,0.4398 -0.739,0.6356 -1.417,0.6356 -1.025,0 -2.981,-0.1958 -4.401,-0.1958 -1.654,0 -2.778,0.0963 -3.893,0.0963 -0.793,0 -1.42,-0.244 -1.42,-0.5843 0,-0.2954 0.389,-0.6838 1.073,-0.8829 2.095,-0.6292 3.421,-1.2167 2.252,-3.9455 -2.207,-5.2713 -7.52,-17.8109 -7.918,-18.835 -0.142,-0.3435 -0.389,-0.0481 -0.488,0.0482 -1.751,4.1926 -7.032,17.8558 -7.854,20.392 -0.203,0.7801 -0.296,1.8524 2.29,2.3403 0.928,0.1509 1.166,0.5394 1.166,0.8829 0,0.3403 -0.533,0.5843 -1.166,0.5843 -1.118,0 -3.125,-0.0963 -4.825,-0.0963 -2.396,0 -4.16,0.2408 -5.126,0.2408 -0.739,0 -1.468,-0.2408 -1.468,-0.6325" /><path
             id="path86"
             style="fill:#a3a510;fill-opacity:1;fill-rule:evenodd;stroke:none"
             d="m 1197.595,352.2675 c 0,-4.1477 -0.106,-9.2201 -0.25,-10.928 -0.19,-2.2954 -0.396,-3.0273 -2.824,-3.5635 -0.98,-0.1958 -1.468,-0.4879 -1.468,-0.8282 0,-0.3436 0.331,-0.6839 1.265,-0.6839 1.809,0 2.256,0.0932 3.704,0.0932 1.323,0 4.793,-0.289 7.282,-0.289 0.585,0 1.314,0.244 1.314,0.6293 0,0.3467 -0.385,0.687 -1.262,0.8346 -3.174,0.6325 -3.418,1.5603 -3.563,4.1927 -0.096,1.5603 -0.144,4.5876 -0.144,7.2715 0,9.5636 0.048,12.7354 0.289,14.3438 0.199,1.3194 0.138,2.5361 2.971,3.1268 0.79,0.1413 1.282,0.4366 1.282,0.8283 0,0.3884 -0.447,0.5843 -1.23,0.5843 -1.706,0 -2.824,-0.1445 -5.22,-0.1445 -1.613,0 -4.054,0.1445 -5.326,0.1445 -0.684,0 -1.218,-0.1959 -1.218,-0.5843 0,-0.3435 0.296,-0.687 1.369,-0.8797 2.733,-0.4879 2.733,-1.2167 2.871,-3.4607 0.106,-1.6116 0.158,-7.6631 0.158,-10.6872" /><path
             id="path88"
             style="fill:#a3a510;fill-opacity:1;fill-rule:evenodd;stroke:none"
             d="m 1233.544,368.611 c -4.491,0 -9.036,-1.0722 -13.231,-4.488 -2.053,-1.7047 -5.365,-6.1478 -5.365,-11.7114 0,-5.5635 2.239,-9.0724 4.102,-11.2233 1.941,-2.2922 6.971,-5.7048 13.862,-5.7048 4.146,0 8.103,1.0241 8.875,1.3644 0.491,0.244 1.326,0.8283 1.519,1.2681 0.69,1.1204 1.808,3.7111 1.95,4.9311 0.096,0.5361 0.051,1.6084 -0.437,1.6084 -0.19,0 -0.382,-0.244 -1.024,-1.2681 -1.173,-2.0482 -2.384,-3.6084 -4.543,-4.7353 -2.001,-1.1685 -4.385,-1.3162 -5.32,-1.3162 -3.95,0 -9.617,2.199 -12.347,7.8076 -1.086,2.1444 -1.712,4.7801 -1.712,8.0515 0,7.3677 5.027,13.8558 12.893,13.8558 2.635,0 5.127,-0.5361 7.809,-2.5362 0.63,-0.4911 1.565,-1.9551 2.005,-3.663 0.238,-0.7287 0.533,-1.2681 0.771,-1.2681 0.395,0 0.79,0.5875 0.739,1.6116 -0.094,1.0723 -0.344,3.22 -0.344,4.2441 0,1.1236 -0.491,1.4639 -0.729,1.4639 -0.739,0.0995 -2.442,0.732 -3.72,0.9278 -1.844,0.4398 -4.054,0.7801 -5.753,0.7801" /><path
             id="path90"
             style="fill:#a3a510;fill-opacity:1;fill-rule:evenodd;stroke:none"
             d="m 1262.956,367.7346 c -3.277,0 -5.169,0.1958 -7.472,0.1958 -0.678,0 -1.368,-0.2472 -1.368,-0.6838 0,-0.3916 0.395,-0.5843 1.416,-0.8314 2.146,-0.488 2.638,-1.0755 2.731,-3.22 0.106,-1.4158 0.058,-2.4399 0.058,-8.2474 0,-6.0483 -0.247,-11.8044 -0.389,-13.8526 -0.209,-2.6325 -1.124,-2.9792 -3.566,-3.5635 -0.79,-0.1958 -1.374,-0.4398 -1.374,-0.7801 0,-0.5425 0.539,-0.6388 1.468,-0.6388 1.86,0 2.932,0.2472 5.522,0.2472 7.95,0 15.328,-0.3885 15.861,-0.3885 0.251,0 0.678,0.3885 0.832,0.5843 0.334,0.4398 1.709,4.8283 1.751,5.2168 0.103,0.5361 -0.042,1.3226 -0.389,1.3226 -0.289,0 -0.581,-0.2985 -1.121,-1.3708 -1.169,-2.2921 -2.492,-3.2167 -4.053,-3.6084 -1.073,-0.2921 -4.055,-0.3403 -4.636,-0.3403 -1.953,0 -3.607,0.1958 -4.443,0.3403 -0.34,0.0963 -0.728,0.488 -0.934,1.0722 -0.283,0.7866 -0.479,2.6389 -0.479,4.0515 0,2.0932 -0.054,6.6358 0.145,7.6599 0,0.0995 0.237,0.4398 0.44,0.4398 1.31,0 3.27,0 4.831,-0.0963 2.981,-0.1509 3.168,-0.2954 3.858,-2.5362 0.145,-0.5361 0.488,-1.0722 0.829,-1.0722 0.344,0 0.594,0.5361 0.533,1.4093 -0.051,0.976 -0.144,1.663 -0.144,2.9792 0,1.1718 0.051,2.1445 0.144,3.5153 0.061,0.3852 -0.051,1.0722 -0.382,1.0722 -0.296,0 -0.585,-0.2921 -0.88,-1.0273 -0.884,-2.244 -1.073,-2.4398 -5.664,-2.4398 l -3.17,0 c -0.251,0 -0.299,0.2954 -0.344,0.488 -0.093,0.7319 0.045,9.9039 0.145,11.127 0.093,1.1172 0.626,1.3644 0.732,1.3644 2.146,0.0995 5.666,0 6.929,-0.1958 1.561,-0.244 2.634,-0.7288 3.28,-3.3163 0.093,-0.4912 0.334,-1.1718 0.771,-1.1718 0.44,0 0.742,0.5843 0.742,1.2713 0,0.9759 -0.106,2.3853 -0.106,4.6325 -0.052,0.244 -0.289,0.5875 -0.434,0.5362 -0.736,-0.0964 -2.881,-0.1445 -4.494,-0.1445 l -7.176,0 z" /><path
             id="path92"
             style="fill:#a3a510;fill-opacity:1;fill-rule:evenodd;stroke:none"
             d="m 1297.739,368.611 c -3.418,0 -5.709,-1.0241 -7.222,-2.3885 -1.67,-1.4639 -2.698,-3.663 -2.698,-5.9552 0,-4.1477 2.936,-6.976 7.083,-9.6598 5.127,-3.2714 6.106,-5.464 6.106,-7.5123 0,-3.512 -2.541,-5.9102 -5.904,-5.9102 -1.856,0 -5.075,1.2231 -6.35,3.9102 -0.684,1.5121 -1.417,2.7802 -1.799,2.7802 -0.208,0 -0.69,-0.732 -0.69,-0.9311 0,-0.7768 0.482,-2.9214 0.732,-4.5843 0,-0.1958 0.636,-1.2681 1.124,-1.5602 1.513,-0.732 4.825,-1.2681 6.386,-1.2681 2.21,0 5.081,0.7319 6.649,1.756 2.638,1.7111 3.999,4.4367 3.999,6.8798 0,4.3885 -2.968,6.9247 -6.739,9.4641 -4.291,2.8796 -6.781,4.3917 -6.781,7.8557 0,3.2713 2.339,5.7079 5.615,5.7079 1.417,0 2.583,-0.4366 3.469,-1.1236 0.488,-0.2889 1.799,-1.7528 2.384,-3.5121 0.199,-0.6806 0.784,-1.0241 1.178,-1.0241 0.335,0 0.335,0.488 0.335,1.3195 0,0.1926 -0.386,3.0209 -0.492,3.9519 0,0.0963 -0.283,0.8283 -0.581,0.9278 -0.868,0.1445 -3.408,0.8764 -5.804,0.8764" /><path
             id="path94"
             style="fill:#a3a510;fill-opacity:1;fill-rule:evenodd;stroke:none"
             d="m 812.8209,447.5731 c -4.4907,0 -9.036,-1.0722 -13.2279,-4.488 -2.0528,-1.7111 -5.371,-6.1478 -5.371,-11.7081 0,-5.5635 2.2391,-9.0789 4.099,-11.2234 1.9561,-2.2922 6.9801,-5.7111 13.8639,-5.7111 4.1532,0 8.1046,1.024 8.8816,1.3675 0.4917,0.244 1.3205,0.8315 1.5162,1.2681 0.6874,1.1236 1.8086,3.7079 1.9533,4.9279 0.0962,0.5361 0.0514,1.6083 -0.4371,1.6083 -0.1989,0 -0.3885,-0.2439 -1.0278,-1.268 -1.1692,-2.0482 -2.3898,-3.6084 -4.5421,-4.7289 -1.9948,-1.1717 -4.3912,-1.3194 -5.3228,-1.3194 -3.9477,0 -9.6109,2.1927 -12.3478,7.8043 -1.073,2.151 -1.709,4.7835 -1.709,8.0547 0,7.3678 5.0305,13.8559 12.8908,13.8559 2.6341,0 5.1267,-0.5393 7.809,-2.5362 0.636,-0.4912 1.5675,-1.9519 2.0046,-3.6629 0.2438,-0.732 0.5332,-1.2681 0.7836,-1.2681 0.3885,0 0.7742,0.5875 0.7261,1.6116 -0.0934,1.0754 -0.3376,3.2199 -0.3376,4.244 0,1.1237 -0.4913,1.4671 -0.7355,1.4671 -0.7322,0.0932 -2.4412,0.732 -3.7067,0.9246 -1.8567,0.4398 -4.0541,0.7801 -5.7628,0.7801" /><path
             id="path96"
             style="fill:#a3a510;fill-opacity:1;fill-rule:evenodd;stroke:none"
             d="m 851.7658,447.5731 c -3.4177,0 -7.6161,-1.4639 -10.0093,-3.4158 -3.71,-2.9759 -6.3408,-7.1237 -6.3408,-13.1238 0,-4.1959 1.4583,-8.1479 4.0504,-11.0276 2.9745,-3.4125 7.7127,-5.5634 12.6947,-5.5634 2.4833,0 6.5369,0.6869 9.6109,2.8315 3.5657,2.5361 6.932,7.3163 6.932,14.1511 0,9.2683 -7.5614,16.148 -16.9379,16.148 m -1.0727,-1.6115 c 2.2419,0 5.3163,-1.0241 7.3205,-2.6325 3.6138,-2.9279 5.9104,-8.0516 5.9104,-13.3711 0,-5.8043 -2.1971,-9.7562 -4.1532,-11.5123 -0.5365,-0.5843 -2.3899,-2.3403 -6.444,-2.3403 -7.8085,0 -13.1795,8.3404 -13.1795,15.6118 0,5.7113 1.6606,9.3678 3.8063,11.4642 1.7123,1.7079 4.69,2.7802 6.7395,2.7802" /><path
             id="path98"
             style="fill:#a3a510;fill-opacity:1;fill-rule:evenodd;stroke:none"
             d="m 879.3364,446.2562 c 0,-0.4365 0.5365,-0.6805 1.1211,-0.8314 1.8599,-0.3885 2.5407,-1.1686 2.6402,-2.0964 0.0485,-0.6324 0.1925,-4.5362 0.1925,-11.5637 0,-8.1959 1.1696,-11.7594 3.9032,-14.3437 1.1786,-1.0723 4.4426,-2.8797 8.84,-2.8797 2.1461,0 4.783,0.2953 7.0282,1.5635 3.5147,1.9486 5.8594,6.2408 6.1036,14.7354 0.099,2.5362 0.3885,7.952 0.4399,10.0484 0.0933,3.0755 1.0726,3.9069 3.1738,4.4912 0.6805,0.244 1.0727,0.5811 1.0727,0.8764 0,0.3917 -0.4399,0.5362 -1.2206,0.5362 -1.365,0 -2.3899,-0.0964 -4.3913,-0.0964 -1.5611,0 -2.9325,0.1477 -4.1564,0.1477 -0.8285,0 -1.1179,-0.1958 -1.1179,-0.4879 0,-0.3435 0.5332,-0.7801 1.0245,-0.8829 2.734,-0.6292 3.074,-1.3162 3.2249,-3.1686 0.0489,-0.5875 0.1899,-3.1236 0.1899,-6.2954 0,-5.5636 -0.488,-9.66 -1.0726,-12.2443 -1.2145,-5.3677 -5.9523,-6.8316 -9.129,-6.8316 -2.5412,0 -5.7118,1.1718 -7.08,2.6838 -1.513,1.7048 -2.7271,3.8043 -2.7271,9.3164 0,6.9312 -0.0513,12.0035 0.1859,13.6151 0.2989,1.9519 1.2243,2.4399 2.9811,2.7833 0.9283,0.1927 1.4681,0.5362 1.4681,0.9246 0,0.3917 -0.5851,0.5362 -1.5162,0.5362 -1.0727,0 -2.933,-0.0964 -4.7378,-0.0964 -1.8057,0 -2.9745,0.1477 -5.024,0.1477 -0.7807,0 -1.4167,-0.1958 -1.4167,-0.5875" /><path
             id="path100"
             style="fill:#a3a510;fill-opacity:1;fill-rule:evenodd;stroke:none"
             d="m 921.8452,446.2562 c 0,-0.3884 0.5361,-0.6324 1.0726,-0.7833 2.2008,-0.5842 2.7369,-0.6292 4.099,-2.2408 0.106,-0.1477 0.3502,-0.5875 0.3502,-2.3435 0,-4.0515 -0.6874,-15.7628 -0.9316,-19.7115 -0.1993,-3.6116 -1.1211,-3.8043 -3.4177,-4.5844 -0.4884,-0.1477 -0.9735,-0.4398 -0.9735,-0.8315 0,-0.4879 0.5813,-0.5393 1.2687,-0.5393 0.8288,0 2.0947,0.1027 3.1674,0.1027 1.7571,0 3.8098,-0.244 5.2266,-0.244 0.9283,0 1.5639,0.1413 1.5639,0.6293 0,0.2953 -0.1957,0.6388 -1.2235,0.8828 -2.3418,0.6806 -2.8783,1.4126 -3.0744,3.6566 -0.0962,1.5121 0.0485,9.0275 0.0485,13.4192 0.0514,3.8074 0.1957,5.1687 0.2471,6.4913 0,0.2408 0.3437,0.3403 0.5332,0.0963 4.3978,-5.2714 12.8427,-14.7868 17.4297,-20.2508 1.3168,-1.6084 2.2003,-2.8764 3.0291,-3.9005 0.4338,-0.5876 1.513,-1.5635 2.2004,-1.5635 0.4337,0 0.678,0.5393 0.678,1.0273 0,0.7801 -0.3376,4.4367 -0.3376,6.4849 0,8.3918 0.437,18.0068 0.5332,19.7628 0.1513,2.6325 1.0278,3.0724 3.1226,3.5635 0.883,0.244 1.1753,0.6838 1.1753,0.976 0,0.3852 -0.2923,0.5361 -1.1211,0.5361 -1.2749,0 -2.8363,-0.1959 -4.5963,-0.1959 -1.5615,0 -2.9232,0.045 -4.1923,0.045 -0.5847,0 -1.2716,-0.0931 -1.2716,-0.4366 0,-0.3884 0.34,-0.7801 1.3168,-1.0723 2.6883,-0.7833 3.0324,-1.9518 3.074,-2.9759 0.1509,-1.5121 0.2475,-3.2232 0.2475,-4.8798 0,-7.0242 0.1476,-12.2955 -0.0966,-13.8558 0,-0.1509 -0.1925,-0.6356 -0.488,-0.3435 -3.2734,3.5603 -14.0088,15.2748 -16.2123,18.0582 -1.9048,2.4848 -3.1189,3.9454 -3.8515,4.8283 -0.2956,0.2922 -0.7355,0.6324 -1.0278,0.6324 -2.4926,0 -4.8793,0.1477 -5.9523,0.1477 -1.1273,0 -1.6157,-0.1958 -1.6157,-0.5875" /><path
             id="path102"
             style="fill:#a3a510;fill-opacity:1;fill-rule:evenodd;stroke:none"
             d="m 978.1218,447.5731 c -3.4144,0 -5.7085,-1.024 -7.221,-2.3917 -1.6707,-1.4606 -2.6916,-3.6566 -2.6916,-5.9487 0,-4.151 2.9293,-6.9793 7.0824,-9.6599 5.1206,-3.2714 6.1003,-5.4705 6.1003,-7.5187 0,-3.512 -2.5342,-5.9038 -5.9042,-5.9038 -1.8501,0 -5.0749,1.2232 -6.3502,3.9038 -0.6845,1.5121 -1.4102,2.7801 -1.8057,2.7801 -0.1956,0 -0.6841,-0.7287 -0.6841,-0.9245 0,-0.7801 0.4885,-2.9278 0.7327,-4.5876 0,-0.1926 0.636,-1.2681 1.1244,-1.5602 1.5125,-0.732 4.8372,-1.2681 6.3983,-1.2681 2.1905,0 5.0758,0.7288 6.6364,1.7529 2.6378,1.7078 4.006,4.443 4.006,6.8829 0,4.3918 -2.9815,6.9311 -6.7392,9.4673 -4.2983,2.8765 -6.7876,4.3886 -6.7876,7.8525 0,3.2714 2.3446,5.7112 5.6147,5.7112 1.4167,0 2.5832,-0.4431 3.4695,-1.1237 0.488,-0.2921 1.7987,-1.756 2.3895,-3.5121 0.1928,-0.6838 0.7778,-1.0241 1.1725,-1.0241 0.3408,0 0.3408,0.488 0.3408,1.3163 0,0.1958 -0.3922,3.0241 -0.4917,3.9519 0,0.0995 -0.2951,0.8315 -0.5813,0.9278 -0.8798,0.1445 -3.4145,0.8764 -5.8109,0.8764" /><path
             id="path104"
             style="fill:#a3a510;fill-opacity:1;fill-rule:evenodd;stroke:none"
             d="m 1005.15,446.6951 c -3.264,0 -5.1689,0.1958 -7.4659,0.1958 -0.6837,0 -1.3617,-0.2439 -1.3617,-0.6837 0,-0.3886 0.3825,-0.5844 1.4102,-0.8284 2.1518,-0.4911 2.6434,-1.0722 2.7364,-3.2231 0.093,-1.4125 0.045,-2.4366 0.045,-8.241 0,-6.0546 -0.247,-11.8108 -0.385,-13.8622 -0.1993,-2.6325 -1.1276,-2.976 -3.5624,-3.5602 -0.7839,-0.1959 -1.3751,-0.4367 -1.3751,-0.7802 0,-0.5361 0.5398,-0.6324 1.4681,-0.6324 1.8534,0 2.9264,0.244 5.5154,0.244 7.963,0 15.335,-0.3949 15.868,-0.3949 0.244,0 0.685,0.3949 0.826,0.5907 0.347,0.4367 1.715,4.8284 1.757,5.2201 0.103,0.5361 -0.042,1.3162 -0.382,1.3162 -0.296,0 -0.588,-0.2954 -1.128,-1.3644 -1.169,-2.2922 -2.493,-3.2232 -4.054,-3.6149 -1.072,-0.2889 -4.047,-0.3403 -4.635,-0.3403 -1.952,0 -3.613,0.1959 -4.442,0.3403 -0.347,0.0995 -0.73,0.4912 -0.929,1.0755 -0.289,0.7833 -0.491,2.6357 -0.491,4.0515 0,2.0963 -0.042,6.6325 0.151,7.6598 0,0.0963 0.244,0.4398 0.434,0.4398 1.323,0 3.276,0 4.837,-0.1027 2.981,-0.1412 3.174,-0.2921 3.858,-2.5362 0.145,-0.5361 0.482,-1.0722 0.828,-1.0722 0.338,0 0.582,0.5361 0.54,1.4157 -0.051,0.976 -0.151,1.6565 -0.151,2.9728 0,1.175 0.058,2.1509 0.151,3.5153 0.042,0.3949 -0.051,1.0722 -0.394,1.0722 -0.289,0 -0.585,-0.292 -0.881,-1.0241 -0.877,-2.2407 -1.067,-2.4366 -5.656,-2.4366 l -3.177,0 c -0.244,0 -0.293,0.2921 -0.338,0.488 -0.099,0.732 0.045,9.9071 0.145,11.1238 0.1,1.1236 0.632,1.3676 0.726,1.3676 2.152,0.0932 5.673,0 6.941,-0.199 1.562,-0.244 2.634,-0.732 3.267,-3.3163 0.099,-0.4879 0.347,-1.1685 0.777,-1.1685 0.441,0 0.736,0.5874 0.736,1.2648 0,0.976 -0.096,2.395 -0.096,4.6358 -0.048,0.244 -0.293,0.5874 -0.444,0.5393 -0.735,-0.0995 -2.881,-0.1477 -4.487,-0.1477 l -7.182,0 z" /><path
             id="path106"
             style="fill:#a3a510;fill-opacity:1;fill-rule:evenodd;stroke:none"
             d="m 1030.189,446.2062 c 0,-0.3371 0.389,-0.732 1.362,-0.9278 2.296,-0.4367 2.54,-1.3644 2.589,-2.4367 0.045,-1.6084 0.045,-4.976 0.045,-6.9279 0,-7.0756 -0.138,-14.835 -0.238,-16.0549 -0.251,-1.9037 -0.929,-2.8283 -3.614,-3.3677 -0.784,-0.1412 -1.172,-0.5361 -1.172,-0.8731 0,-0.4431 0.482,-0.5362 1.417,-0.5362 0.684,0 2.98,0.2408 6.298,0.2408 9.907,0 14.356,-0.2921 14.937,-0.2921 0.19,0 1.125,0.2921 1.17,0.8282 0.395,1.8556 0.732,2.8765 1.516,5.2682 0.196,0.7833 0.045,1.3227 -0.193,1.3227 -0.25,0 -0.684,-0.1991 -1.224,-1.0755 -1.317,-1.8556 -2.101,-2.5908 -2.778,-3.2682 -0.98,-0.8828 -1.565,-0.8828 -1.96,-0.9278 -0.732,-0.0994 -2.094,-0.1476 -3.469,-0.1476 -1.606,0 -3.411,0.0482 -4.68,0.2408 -0.395,0.0513 -1.561,1.1749 -1.654,1.8588 -0.203,1.6083 -0.347,6.2922 -0.347,10.0965 0,7.2232 0,12.1479 0.289,14.347 0.099,0.7319 0.44,1.268 3.276,1.9005 0.733,0.1958 1.115,0.488 1.115,0.8315 0,0.3403 -0.338,0.5361 -1.218,0.5361 -1.172,0 -4.491,-0.1477 -6.399,-0.1477 -1.41,0 -2.283,0.0996 -3.607,0.0996 -1.072,0 -1.461,-0.2473 -1.461,-0.5875" /><path
             id="path108"
             style="fill:#a3a510;fill-opacity:1;fill-rule:evenodd;stroke:none"
             d="m 1068.064,431.2267 c 0,-4.1445 -0.106,-9.2201 -0.251,-10.9279 -0.195,-2.2954 -0.388,-3.0274 -2.836,-3.5635 -0.967,-0.1926 -1.455,-0.488 -1.455,-0.8251 0,-0.3403 0.338,-0.687 1.263,-0.687 1.811,0 2.245,0.0995 3.713,0.0995 1.317,0 4.786,-0.2921 7.276,-0.2921 0.584,0 1.32,0.244 1.32,0.6324 0,0.3435 -0.395,0.687 -1.275,0.8283 -3.168,0.6356 -3.418,1.5634 -3.563,4.1991 -0.096,1.5602 -0.151,4.5844 -0.151,7.2682 0,9.5636 0.055,12.7355 0.296,14.347 0.193,1.3163 0.147,2.5362 2.977,3.1205 0.781,0.1476 1.269,0.443 1.269,0.8315 0,0.3884 -0.434,0.5842 -1.217,0.5842 -1.706,0 -2.836,-0.1476 -5.226,-0.1476 -1.607,0 -4.048,0.1476 -5.32,0.1476 -0.684,0 -1.224,-0.1958 -1.224,-0.5842 0,-0.3436 0.296,-0.6839 1.375,-0.8797 2.727,-0.4879 2.727,-1.2199 2.878,-3.4671 0.093,-1.6052 0.151,-7.6599 0.151,-10.6841" /><path
             id="path110"
             style="fill:#a3a510;fill-opacity:1;fill-rule:evenodd;stroke:none"
             d="m 1085.524,446.2562 c 0,-0.3884 0.534,-0.6324 1.073,-0.7833 2.197,-0.5842 2.737,-0.6292 4.096,-2.2408 0.096,-0.1477 0.347,-0.5875 0.347,-2.3435 0,-4.0515 -0.685,-15.7628 -0.928,-19.7115 -0.196,-3.6116 -1.118,-3.8043 -3.422,-4.5844 -0.488,-0.1477 -0.976,-0.4398 -0.976,-0.8315 0,-0.4879 0.588,-0.5393 1.272,-0.5393 0.829,0 2.101,0.1027 3.174,0.1027 1.757,0 3.809,-0.244 5.219,-0.244 0.929,0 1.571,0.1413 1.571,0.6293 0,0.2953 -0.202,0.6388 -1.224,0.8828 -2.341,0.6806 -2.887,1.4126 -3.074,3.6566 -0.096,1.5121 0.042,9.0275 0.042,13.4192 0.051,3.8074 0.203,5.1687 0.247,6.4913 0,0.2408 0.338,0.3403 0.54,0.0963 4.391,-5.2714 12.843,-14.7868 17.427,-20.2508 1.32,-1.6084 2.197,-2.8764 3.032,-3.9005 0.43,-0.5876 1.51,-1.5635 2.187,-1.5635 0.447,0 0.691,0.5393 0.691,1.0273 0,0.7801 -0.344,4.4367 -0.344,6.4849 0,8.3918 0.437,18.0068 0.54,19.7628 0.144,2.6325 1.021,3.0724 3.122,3.5635 0.88,0.244 1.169,0.6838 1.169,0.976 0,0.3852 -0.289,0.5361 -1.124,0.5361 -1.265,0 -2.83,-0.1959 -4.587,-0.1959 -1.561,0 -2.93,0.045 -4.195,0.045 -0.591,0 -1.275,-0.0931 -1.275,-0.4366 0,-0.3884 0.347,-0.7801 1.323,-1.0723 2.679,-0.7833 3.026,-1.9518 3.074,-2.9759 0.145,-1.5121 0.247,-3.2232 0.247,-4.8798 0,-7.0242 0.148,-12.2955 -0.102,-13.8558 0,-0.1509 -0.193,-0.6356 -0.489,-0.3435 -3.269,3.5603 -14.001,15.2748 -16.205,18.0582 -1.908,2.4848 -3.132,3.9454 -3.858,4.8283 -0.296,0.2922 -0.729,0.6324 -1.025,0.6324 -2.489,0 -4.886,0.1477 -5.958,0.1477 -1.118,0 -1.607,-0.1958 -1.607,-0.5875" /><path
             id="path112"
             style="fill:#a3a510;fill-opacity:1;fill-rule:evenodd;stroke:none"
             d="m 1149.167,447.5731 c -4.732,0 -9.418,-1.6597 -12.493,-4.3917 -4.009,-3.5121 -5.518,-7.952 -5.518,-12.2924 0,-5.8556 2.785,-9.8589 5.03,-12.0035 2.981,-2.6838 7.51,-4.443 12.981,-4.443 1.612,0 4.635,0.2953 6.739,0.8828 1.898,0.5361 3.562,0.9214 4.439,1.1654 0.54,0.1508 0.742,0.4911 0.742,0.6869 0,0.244 0.052,0.3885 -0.835,0.8765 -0.25,0.1476 -0.678,0.6356 -0.678,1.4157 0,2 0.045,5.5154 0.238,6.0515 0.19,0.5362 0.296,1.0723 1.764,1.5121 0.584,0.1958 1.118,0.488 1.118,0.8283 0,0.3884 -0.534,0.6356 -1.318,0.6356 -1.564,0 -3.218,-0.1958 -4.391,-0.1958 -1.42,0 -4.982,0.1958 -5.862,0.1958 -0.929,0 -1.468,-0.3435 -1.468,-0.6838 0,-0.3916 0.539,-0.7801 1.275,-0.8315 3.662,-0.244 4.054,-1.1685 4.385,-2.2921 0.1,-0.5876 0.157,-3.3677 0.157,-5.0724 0,-0.6356 -0.639,-2.2954 -1.021,-2.5394 -1.375,-0.8764 -3.816,-1.1685 -4.401,-1.1685 -4.542,0 -9.229,2.3403 -11.811,6.732 -1.42,2.3436 -2.204,5.4159 -2.204,8.8798 0,7.7113 4.937,14.5428 13.276,14.5428 3.909,0 6.746,-1.711 7.819,-3.0273 0.726,-0.9278 1.372,-2.0996 1.85,-3.419 0.292,-0.7287 0.594,-1.1172 0.877,-1.1172 0.347,0 0.633,0.4366 0.633,1.0691 0,1.8555 -0.633,4.1959 -0.678,5.3677 0,0.78 -0.395,1.1717 -0.581,1.1717 -0.54,0.1477 -0.887,0.1959 -1.864,0.3917 -2.052,0.4398 -4.638,1.0722 -8.2,1.0722" /><path
             id="path114"
             style="fill:#a3a510;fill-opacity:1;fill-rule:evenodd;stroke:none"
             d="m 1203.185,447.5731 c -0.238,0 -0.44,-0.1958 -0.771,-0.5875 -0.353,-0.5361 -1.031,-1.8042 -1.468,-2.3885 -0.097,-0.1476 -0.097,-0.2439 -0.097,-0.3916 0,-0.2408 -0.106,-0.6325 -0.298,-1.0241 -2.146,-5.2682 -7.713,-20.0036 -8.834,-22.4917 -1.419,-3.1717 -2.046,-3.3162 -4.494,-4.1477 -0.739,-0.244 -1.073,-0.6806 -1.073,-0.9727 0,-0.2954 0.238,-0.488 1.125,-0.488 0.726,0 3.26,0.244 5.075,0.244 1.812,0 3.029,-0.1509 3.864,-0.1509 0.627,0 1.356,0.1509 1.356,0.6356 0,0.3403 -0.488,0.6357 -1.311,0.8765 -2.203,0.687 -2.396,1.5152 -2.396,2.0995 0,1.2199 1.266,5.3677 2.541,8.5396 0.093,0.1444 0.344,0.3884 0.539,0.3884 1.022,0.1477 5.313,0.1958 8.005,0.1958 1.417,0 1.613,-0.2921 1.655,-0.4879 1.124,-3.1237 2.354,-6.3437 2.73,-8.3405 0.209,-1.0273 0.395,-2.0033 -1.937,-2.488 -0.887,-0.1477 -1.182,-0.5394 -1.182,-0.7834 0,-0.2407 0.295,-0.5874 1.513,-0.5874 1.23,0 1.908,0.1027 3.469,0.1027 2.146,0 4.536,-0.244 6.148,-0.244 1.231,0 1.565,0.2921 1.565,0.6293 0,0.3434 -0.399,0.5874 -1.17,0.8314 -2.193,0.5361 -2.977,0.9278 -4.59,4.9278 -0.835,2.0033 -4.494,11.6632 -7.035,18.787 -0.928,2.5362 -1.75,4.732 -2.145,6.0483 -0.389,1.0722 -0.582,1.268 -0.784,1.268 m 2.203,-17.4642 c -1.619,-0.1509 -5.672,-0.0995 -7.613,-0.1509 -0.205,0 -0.298,0.1509 -0.25,0.3468 0.389,1.5088 2.929,8.3404 3.816,10.6839 0.138,0.3404 0.238,0.2922 0.376,0 0.446,-0.6838 2.981,-8.0033 3.813,-10.4914 0.051,-0.1444 -0.094,-0.3884 -0.142,-0.3884" /><path
             id="path116"
             style="fill:#a3a510;fill-opacity:1;fill-rule:evenodd;stroke:none"
             d="m 1226.166,446.2562 c 0,-0.3884 0.533,-0.6324 1.086,-0.7833 2.191,-0.5842 2.73,-0.6292 4.095,-2.2408 0.097,-0.1477 0.335,-0.5875 0.335,-2.3435 0,-4.0515 -0.678,-15.7628 -0.929,-19.7115 -0.189,-3.6116 -1.118,-3.8043 -3.408,-4.5844 -0.488,-0.1477 -0.976,-0.4398 -0.976,-0.8315 0,-0.4879 0.581,-0.5393 1.258,-0.5393 0.836,0 2.101,0.1027 3.187,0.1027 1.751,0 3.803,-0.244 5.22,-0.244 0.928,0 1.564,0.1413 1.564,0.6293 0,0.2953 -0.208,0.6388 -1.23,0.8828 -2.335,0.6806 -2.875,1.4126 -3.074,3.6566 -0.097,1.5121 0.055,9.0275 0.055,13.4192 0.051,3.8074 0.196,5.1687 0.241,6.4913 0,0.2408 0.343,0.3403 0.539,0.0963 4.398,-5.2714 12.836,-14.7868 17.42,-20.2508 1.324,-1.6084 2.21,-2.8764 3.032,-3.9005 0.437,-0.5876 1.51,-1.5635 2.201,-1.5635 0.433,0 0.684,0.5393 0.684,1.0273 0,0.7801 -0.344,4.4367 -0.344,6.4849 0,8.3918 0.437,18.0068 0.533,19.7628 0.158,2.6325 1.022,3.0724 3.123,3.5635 0.88,0.244 1.182,0.6838 1.182,0.976 0,0.3852 -0.302,0.5361 -1.124,0.5361 -1.276,0 -2.837,-0.1959 -4.588,-0.1959 -1.573,0 -2.929,0.045 -4.207,0.045 -0.585,0 -1.263,-0.0931 -1.263,-0.4366 0,-0.3884 0.334,-0.7801 1.311,-1.0723 2.692,-0.7833 3.026,-1.9518 3.074,-2.9759 0.157,-1.5121 0.25,-3.2232 0.25,-4.8798 0,-7.0242 0.145,-12.2955 -0.093,-13.8558 0,-0.1509 -0.205,-0.6356 -0.488,-0.3435 -3.283,3.5603 -14.015,15.2748 -16.212,18.0582 -1.908,2.4848 -3.126,3.9454 -3.858,4.8283 -0.289,0.2922 -0.729,0.6324 -1.031,0.6324 -2.49,0 -4.873,0.1477 -5.946,0.1477 -1.131,0 -1.619,-0.1958 -1.619,-0.5875" /><path
             id="path118"
             style="fill:#a3a510;fill-opacity:1;fill-rule:evenodd;stroke:none"
             d="m 1286.013,447.1356 c -4.199,0 -9.717,-0.4398 -12.159,-0.4398 l -1.375,0 c -0.722,0 -1.165,-0.244 -1.165,-0.6325 0,-0.3467 0.581,-0.6838 1.121,-0.7833 2.98,-0.4366 3.025,-1.1237 3.125,-4.2441 0.151,-4.0001 0.244,-9.7594 0.244,-12.5395 0,-2.8797 -0.042,-4.3918 -0.138,-6.6872 -0.158,-3.8524 -0.395,-4.777 -3.771,-5.1686 -0.581,-0.0482 -1.073,-0.2922 -1.073,-0.6839 0,-0.3884 0.447,-0.7351 1.564,-0.7351 0.79,0 1.655,0 2.583,-0.0481 3.231,-0.2441 7.575,-0.3885 9.576,-0.3885 4.686,0 8.74,1.0755 11.618,2.732 3.427,1.9037 7.813,7.0274 7.813,14.103 0,3.8524 -1.802,8.2442 -4.436,10.7803 -1.957,1.8042 -6.701,4.7353 -13.527,4.7353 m -2.146,-1.5121 c 3.607,0 7.709,-1.0723 10.151,-2.8829 3.125,-2.3403 5.219,-6.9279 5.219,-11.1206 0,-5.4672 -2.094,-9.7113 -5.024,-12.1993 -2.73,-2.2921 -6.877,-3.175 -9.135,-3.175 -1.067,0 -3.074,0.5907 -4.002,1.2713 -0.145,0.0995 -0.929,0.7833 -1.074,2.2922 -0.144,2.1509 -0.189,5.0274 -0.189,8.4432 l 0,7.0755 c 0,4.3404 0.097,8.684 0.189,9.2683 0.052,0.2922 0.145,0.3916 0.489,0.6356 0.44,0.2408 1.612,0.3917 3.376,0.3917" /><path
             id="path120"
             style="fill:#a3a510;fill-opacity:1;fill-rule:evenodd;stroke:none"
             d="m 733.8848,475.2254 -670.70975,0 0,-236.9102 670.70975,0 0,236.9102 z m -680.34643,9.631 689.98303,0 0,-256.1722 -689.98303,0 0,256.1722 z" /><path
             id="path122"
             style="fill:#a3a510;fill-opacity:1;fill-rule:evenodd;stroke:none"
             d="m 72.81175,247.9463 651.4364,0 0,217.6481 -651.4364,0 0,-217.6481 z" /><path
             id="path124"
             style="fill:#ffffff;fill-opacity:1;fill-rule:nonzero;stroke:none"
             d="m 311.9783,335.3349 c -3.4145,13.4224 -8.2939,33.6058 -10.5521,41.7697 -2.0655,7.037 -3.9286,13.8623 -6.0005,20.2733 -3.7229,-7.0306 -10.1345,-19.0245 -14.2751,-27.7148 -4.1341,-8.4786 -22.5177,-52.2997 -25.8295,-59.5326 -1.5386,-4.0386 -3.3793,-8.6775 -3.9671,-11.6022 -1.0311,-8.0611 -1.6543,-11.1655 -5.5893,-13.0275 -5.5828,-2.4848 -10.9601,0 -12.82,4.5555 -0.8898,2.9952 1.6993,12.4914 4.9244,21.6409 l 11.1336,27.8336 40.6378,88.8622 c 2.0623,4.3436 4.3398,8.4785 10.7578,8.4785 5.5829,0 7.8571,-6.2024 8.4835,-10.546 0,0 1.2399,-12.2025 4.5485,-24.6072 2.483,-9.0981 7.8635,-30.1933 11.5865,-45.9078 l 3.5142,-15.3005 13.0384,-55.2179 c 2.8974,-2.687 10.5586,-11.1623 -0.8256,-17.3679 -5.3836,-2.8957 -14.895,3.724 -14.895,9.5122 l -13.8705,57.8985 z" /><path
             id="path126"
             style="fill:#ffffff;fill-opacity:1;fill-rule:nonzero;stroke:none"
             d="m 355.814,358.5363 c -4.7509,9.3004 -16.9638,3.3035 -20.6867,1.6501 -5.1749,-2.2761 -168.1408,-70.3449 -190.0707,-54.2162 -37.6569,27.3008 37.0402,99.4724 68.4879,106.0857 7.2468,1.4511 17.179,4.9664 12.4152,15.721 -3.3118,7.6503 -17.7925,3.3067 -21.1011,2.0642 -45.9348,-18.6103 -121.04951,-98.2299 -71.1829,-137.7235 31.2453,-25.0149 197.3143,49.4617 208.6919,51.1086 0,0 19.8644,3.5186 13.4464,15.3101" /><path
             id="path128"
             style="fill:#ffffff;fill-opacity:1;fill-rule:nonzero;stroke:none"
             d="m 470.1446,329.1354 c -0.6197,39.9077 -103.6618,37.4261 -103.6618,54.1745 0,17.1657 46.3429,34.1259 64.9642,33.9172 5.1751,0 7.2437,-7.2361 11.7952,-7.2361 7.4493,-0.4141 12.2128,7.0306 9.3157,10.9601 -4.9693,7.0307 -6.4183,12.8189 -24.0052,13.233 -20.0699,0.2087 -82.3487,-21.3006 -81.732,-54.1809 0.62,-31.0182 104.9051,-23.1594 104.9051,-53.1439 0,-13.6504 -40.1432,-35.5674 -55.4527,-37.6412 -5.7917,-0.8219 -14.6928,-6.4079 -11.1753,-16.5429 2.2774,-5.7819 22.3474,-8.8831 24.6281,3.5185 0.4112,3.5121 60.83,22.9539 60.4187,52.9417" /><path
             id="path130"
             style="fill:#ffffff;fill-opacity:1;fill-rule:nonzero;stroke:none"
             d="m 573.4065,329.1354 c -0.6201,39.9077 -103.668,37.4261 -103.668,54.1745 0,17.1657 46.3489,34.1259 64.9768,33.9172 5.1683,0 7.2402,-7.2361 11.7888,-7.2361 7.4522,-0.4141 12.2128,7.0306 9.3154,10.9601 -4.9629,7.0307 -6.4179,12.8189 -23.9984,13.233 -20.0732,0.2087 -82.3584,-21.3006 -81.7383,-54.1809 0.6295,-31.0182 104.9111,-23.1594 104.9111,-53.1439 0,-13.6504 -40.143,-35.5674 -55.4588,-37.6412 -5.7949,-0.8219 -14.6863,-6.4079 -11.1691,-16.5429 2.2745,-5.7819 22.3443,-8.8831 24.6185,3.5185 0.4146,3.5121 60.8395,22.9539 60.422,52.9417" /><path
             id="path132"
             style="fill:#ffffff;fill-opacity:1;fill-rule:nonzero;stroke:none"
             d="m 683.0798,432.7362 c -8.6953,8.4786 -15.7267,-2.4816 -19.0388,-6.6197 -13.8607,-17.3711 -43.8661,-40.9446 -53.8015,-48.3862 -8.6892,21.3006 -11.5867,27.7117 -15.3126,34.1195 -7.0347,12.4079 -27.3105,14.2667 -27.3105,3.5185 -0.2054,-6.6229 6.2092,-4.1381 12.0009,-13.6504 12.6242,-19.8527 16.3533,-42.187 18.2104,-46.5242 0.6164,-1.2456 3.3084,-3.1044 5.1748,-4.1381 0.2055,-4.3404 0.6197,-16.5461 1.0343,-27.7149 0.6197,-23.5735 3.9253,-33.089 2.8975,-38.0489 -1.6642,-11.3678 8.6826,-17.1625 16.1413,-12.6166 7.4457,4.7609 2.0622,13.2362 1.4453,18.0003 -3.1062,27.2911 -1.8599,37.8371 -1.4453,46.7297 0.4081,15.095 -0.2087,23.5735 -0.4146,26.8866 35.9964,31.0183 52.3436,47.7667 55.0352,53.144 1.8632,3.3066 14.0662,7.4415 5.3836,15.3004" /><path
             id="path134"
             style="fill:#afb12e;fill-opacity:1;fill-rule:nonzero;stroke:none"
             d="m 53.53837,232.0226 5.24557,-0.4622 1.6318,1.3066 -6.87737,-0.8444 z" /><path
             id="path136"
             style="fill:#afb12e;fill-opacity:1;fill-rule:nonzero;stroke:none"
             d="m 78.31233,227.2948 8.93001,0.5425 c -5.11388,3.8043 1.79564,2.6999 -12.17756,5.4255 -4.91469,-0.5939 -15.73349,-1.9134 -14.30084,-3.3997 3.52061,0.1508 8.6923,1.6115 13.90896,1.1428 -2.2293,-1.0979 -7.83144,-0.9599 -10.48151,-2.3949 8.43531,-1.1718 5.33872,0.9342 14.59635,0.4077 l -0.47541,-1.7239 z" /><path
             id="path138"
             style="fill:#afb12e;fill-opacity:1;fill-rule:nonzero;stroke:none"
             d="m 88.89342,231.0804 c -0.82554,-0.6613 -1.6768,-1.3098 -1.53868,-1.8459 0.8416,0.6613 5.20705,1.4671 1.53868,1.8459" /><path
             id="path140"
             style="fill:#afb12e;fill-opacity:1;fill-rule:nonzero;stroke:none"
             d="m 94.32017,231.4708 c 5.64707,-0.1445 -0.08032,-1.3997 0.47541,-1.6052 l 6.43732,2.4559 -6.91273,-0.8507 z" /><path
             id="path142"
             style="fill:#afb12e;fill-opacity:1;fill-rule:nonzero;stroke:none"
             d="m 117.8112,231.3077 2.6597,0.2279 c -0.8994,0.3917 -1.6704,0.0675 -2.6597,-0.2279" /><path
             id="path144"
             style="fill:#afb12e;fill-opacity:1;fill-rule:nonzero;stroke:none"
             d="m 129.3819,231.604 c -2.3192,0.8443 -5.2263,0.3371 -8.9107,-0.0674 l 0.3566,-0.1541 c 3.2347,-0.7127 0.1927,-2.4687 -5.0336,-1.9968 -5.464,-0.3949 -4.9886,1.3291 -9.7202,0.1926 l 6.4919,-1.419 c 8.5831,0.2215 13.4592,2.7545 16.816,3.4447" /><path
             id="path146"
             style="fill:#afb12e;fill-opacity:1;fill-rule:nonzero;stroke:none"
             d="m 117.8112,231.3077 c -0.9733,-0.0642 -1.9627,-0.1124 -3.0645,-0.1124 1.3684,-0.2889 2.2743,-0.1155 3.0645,0.1124" /><path
             id="path148"
             style="fill:#afb12e;fill-opacity:1;fill-rule:nonzero;stroke:none"
             d="m 106.0194,231.5177 -2.9167,-0.3692 0.7003,-0.7384 2.2164,1.1076 z" /><path
             id="path150"
             style="fill:#afb12e;fill-opacity:1;fill-rule:nonzero;stroke:none"
             d="m 148.6177,231.7324 c -1.3202,-2.3724 -13.7708,0.2665 -15.2838,-1.5891 7.6194,0.1027 13.6873,-1.6501 12.0395,-2.9567 l 8.416,0.7448 c 2.7882,0.8989 -0.771,2.6742 -5.1717,3.801" /><path
             id="path152"
             style="fill:#afb12e;fill-opacity:1;fill-rule:nonzero;stroke:none"
             d="m 165.1022,225.7118 c 0.5493,0.199 1.211,0.3403 1.9434,0.4109 -0.9155,-0.0995 -1.7057,-0.2215 -1.9434,-0.4109" /><path
             id="path154"
             style="fill:#afb12e;fill-opacity:1;fill-rule:nonzero;stroke:none"
             d="m 207.6266,229.803 -19.6395,-2.3949 c 1.8342,0.7705 1.1018,1.5153 5.586,1.7914 -8.7019,0.3178 -9.8229,-1.2039 -17.0087,-0.9695 -2.165,2.2183 12.6883,0.1637 8.5445,2.1477 -5.0592,-0.0642 -12.624,-0.1638 -16.7035,-2.045 l -8.0338,1.5056 2.7432,-2.4302 c 3.2347,-0.7031 6.5562,1.9069 8.5638,0.2183 1.0151,-1.0401 -2.2485,-1.2424 -4.5389,-1.4928 5.1878,0.4944 14.1756,-1.9005 24.6988,-1.5795 11.1208,0.2536 8.5092,4.09 15.7881,5.2489" /><path
             id="path156"
             style="fill:#afb12e;fill-opacity:1;fill-rule:nonzero;stroke:none"
             d="m 208.4248,227.1333 1.256,-0.9503 -0.8994,1.281 -0.3566,-0.3307 z" /><path
             id="path158"
             style="fill:#afb12e;fill-opacity:1;fill-rule:nonzero;stroke:none"
             d="m 229.8517,230.3013 -10.2502,-1.5217 c -1.1018,0.2054 -1.7153,0.7191 -2.4381,1.1589 0.4208,-0.5554 -2.3481,-1.5089 -1.908,-1.9744 4.693,-2.1958 12.5052,0.7031 17.9884,1.0883 14.5257,-0.9887 -0.6585,-1.1846 5.0079,-3.2617 -4.0731,0.0578 -4.2177,0.594 -9.868,0.732 8.8754,-2.4848 20.0443,-0.199 25.73,0.4109 -1.6511,0.2215 -2.0559,0.9021 -5.2103,0.7095 l 5.9073,0.7255 c -6.1257,1.74 -11.3327,2.2088 -24.959,1.9327" /><path
             id="path160"
             style="fill:#afb12e;fill-opacity:1;fill-rule:nonzero;stroke:none"
             d="m 211.5603,230.2826 c 3.8065,0.1638 5.2359,0 5.5475,-0.3049 -0.9925,0.5907 -2.2742,1.0209 -5.5475,0.3049" /><path
             id="path162"
             style="fill:#afb12e;fill-opacity:1;fill-rule:nonzero;stroke:none"
             d="m 257.2122,227.0017 c -0.6425,0.138 -1.7057,0.0802 -3.0998,-0.0674 0.7163,-0.0899 1.6318,-0.1124 3.0998,0.0674" /><path
             id="path164"
             style="fill:#afb12e;fill-opacity:1;fill-rule:nonzero;stroke:none"
             d="m 251.3807,229.6085 7.1793,-0.2248 -2.8171,1.0338 c -0.9894,-0.1156 -4.5292,-0.2729 -4.3622,-0.809" /><path
             id="path166"
             style="fill:#afb12e;fill-opacity:1;fill-rule:nonzero;stroke:none"
             d="m 525.5789,226.2415 c -0.6617,0.9021 -3.2828,1.3387 -8.8302,1.1653 0.6682,1.1943 7.8379,0.9631 11.1944,1.6469 -7.3075,0.7737 0.1288,1.3933 -1.7217,2.549 -8.1624,0.122 -11.7921,-1.435 -20.5387,-1.1139 0.4399,0.3402 0.2919,0.8667 -0.8452,1.2745 -10.507,-0.7513 -28.3285,-1.862 -38.5787,-0.8347 -9.8841,0.443 -17.2209,-0.1156 -28.0781,-0.6517 -35.736,0.6131 -72.9818,-0.6132 -111.4161,0.5104 l -5.4447,-2.3275 c -1.8535,1.1557 -9.1324,0 -8.0434,1.5089 2.0815,-0.2954 4.0987,-0.0482 6.6107,-0.0225 -8.2137,2.0386 -21.8014,-0.1669 -31.6597,0.565 1.1275,-0.4109 2.7433,-2.4366 -0.2281,-2.793 0.771,2.5844 -11.6636,-0.0481 -14.561,2.9214 -9.8455,0.7352 -0.3662,-2.26 -10.6357,-1.8459 -1.0793,-1.5249 9.8487,-0.7384 11.699,-1.8877 -3.2091,-1.2328 -9.2962,0.5137 -8.8176,-1.0819 16.4851,-0.7544 47.0527,2.4206 72.2462,3.281 l -2.6565,-1.435 c 12.8906,1.0273 33.7412,1.0786 44.0461,-1.2585 -2.422,1.3676 19.0164,-0.7255 17.0923,2.3692 3.2636,-0.7126 4.253,-0.5939 8.8914,-0.8635 l 1.2656,0.9888 c 6.6012,-0.0257 5.5379,-1.541 13.1027,-1.4415 -4.9436,1.3291 0.5589,1.7207 2.7593,2.8251 8.673,-1.4864 18.7754,-2.7898 26.517,-3.9937 -0.607,0.4206 -1.3233,0.9118 -3.9607,1.4864 5.2519,-0.4751 4.346,0.809 5.737,1.2553 5.0432,0.0674 4.5291,-1.6566 4.2914,-2.5234 9.2868,-0.5232 13.44,2.7513 20.3916,1.6566 l -2.4674,1.3644 c 9.5824,0.3371 17.5968,-1.1654 28.1683,-0.7127 5.088,-1.8716 -8.6733,-1.6148 -13.0482,-2.427 2.1457,-0.3917 6.6943,-0.4944 8.1237,-1.1172 4.5294,0.9566 12.0844,2.2665 17.6963,3.1718 -5.3355,-2.1895 8.069,-2.0675 11.6987,-2.2087" /><path
             id="path168"
             style="fill:#afb12e;fill-opacity:1;fill-rule:nonzero;stroke:none"
             d="m 496.1843,225.2774 c -1.2851,-0.2793 -2.3834,-0.5361 -3.0259,-0.7384 1.0245,0.1124 1.9785,0.2376 3.5204,0.1445 0.148,0.244 -0.0738,0.4366 -0.4945,0.5939" /><path
             id="path170"
             style="fill:#afb12e;fill-opacity:1;fill-rule:nonzero;stroke:none"
             d="m 525.5789,226.2415 c 0.0355,-0.0707 0.2026,-0.1317 0.2185,-0.2119 1.0474,0.1252 0.6972,0.1733 -0.2185,0.2119" /><path
             id="path172"
             style="fill:#afb12e;fill-opacity:1;fill-rule:nonzero;stroke:none"
             d="m 464.8825,231.0429 1.3747,-0.1156 1.7217,-0.0578 -3.0964,0.1734 z" /><path
             id="path174"
             style="fill:#afb12e;fill-opacity:1;fill-rule:nonzero;stroke:none"
             d="m 456.9977,224.826 c -2.0462,0.472 -4.8601,0.9663 -8.0499,1.4704 0.8802,-0.626 1.632,-1.1108 8.0499,-1.4704" /><path
             id="path176"
             style="fill:#afb12e;fill-opacity:1;fill-rule:nonzero;stroke:none"
             d="m 392.5588,226.3622 c -1.9787,-0.2408 -0.8416,-0.6517 -2.2357,-1.0947 4.0891,-0.0578 5.464,0.3884 2.2357,1.0947" /><path
             id="path178"
             style="fill:#afb12e;fill-opacity:1;fill-rule:nonzero;stroke:none"
             d="m 507.7721,224.9278 8.0307,0.427 2.955,0.3627 -10.9857,-0.7897 z" /><path
             id="path180"
             style="fill:#afb12e;fill-opacity:1;fill-rule:nonzero;stroke:none"
             d="m 670.3879,232.0538 c -7.0763,1.6308 -17.4741,0.6356 -26.2019,0.9535 -15.9938,-0.8508 -2.0173,-3.5731 -17.2014,-3.7658 l 2.6052,3.3677 c -15.1682,-0.1991 -36.7319,0.4944 -49.6032,-2.4591 -1.1566,0.4141 -3.8229,0.9181 0.1187,1.4061 -10.1312,-0.1445 -5.2552,-4.7963 -18.7787,-3.6823 12.6433,2.09 -4.134,1.984 -0.6682,4.0675 l 1.9822,0.244 c -8.5832,-0.2215 -19.9354,-1.3355 -25.5823,-1.1878 -0.241,-0.8604 4.6929,-2.1927 -2.8783,-2.2922 3.0613,-0.1766 1.8309,-1.1525 1.5582,-2.0225 7.8664,0.9599 12.1194,0.3692 16.8703,1.5056 4.3814,-1.1236 -2.9521,-0.3563 1.4298,-1.4831 l 6.3086,1.053 c 4.6191,-0.2697 -4.7863,-1.1429 2.438,-1.3741 0.8256,0.6614 6.6751,1.3741 12.3412,1.2296 l -1.6315,-0.3885 c 4.3268,0.4431 10.4332,-0.1187 8.3422,1.7657 l 5.101,-1.8652 -0.8835,1.2745 c 11.8309,-0.5008 16.2829,-3.5506 31.586,-1.9647 -3.6749,0.3852 -0.3213,1.069 1.6414,1.3227 -6.3796,0.8796 -7.8506,-0.9728 -13.8995,-1.1429 -0.8994,1.2713 9.3733,2.7994 2.0336,3.5602 8.0336,-1.5088 15.2032,0.1959 18.6307,-2.9759 9.6847,-0.2055 13.3695,1.3547 23.2181,0.6067 l -0.2956,-0.4687 c 1.815,2.0964 8.0144,-0.9535 15.3158,1.2039 l -5.2038,0.4687 c 0.2507,0.8636 2.7625,0.8925 6.2895,1.0434 -0.3918,-0.3275 -0.3918,-0.3275 0.755,-0.7448 1.0535,1.5217 12.168,1.7721 13.5619,2.2183 -4.6803,0.2632 -10.3913,-0.992 -15.8556,-1.3837 2.7789,0.8925 1.937,2.1766 6.5561,1.9102" /><path
             id="path182"
             style="fill:#afb12e;fill-opacity:1;fill-rule:nonzero;stroke:none"
             d="m 570.3586,226.4906 3.1351,0.7352 c -1.2813,-0.1317 -2.438,-0.3403 -3.1351,-0.7352" /><path
             id="path184"
             style="fill:#afb12e;fill-opacity:1;fill-rule:nonzero;stroke:none"
             d="m 714.3429,229.3844 c 6.1997,-0.3435 -1.6703,-1.3034 4.1246,-1.9776 6.2895,1.053 -7.2243,2.1638 -1.0633,3.7433 3.7969,-0.9182 9.9579,0.6613 12.4893,0.6966 -2.785,-0.8989 -1.1632,-2.9182 -0.0547,-3.3291 1.1917,0.2825 3.1254,0.1734 5.2744,-0.0128 l 4.4361,-0.3018 c 1.603,-0.0931 3.2313,-0.1669 4.7125,-0.183 -5.6409,0.4687 -5.1879,0.6966 -3.6301,0.8636 1.6096,0.1701 4.5327,0.2825 4.9086,0.5265 -0.0612,0.2151 -0.1288,0.2953 -0.2059,0.2022 -0.4366,0.1413 -1.5321,0.3179 -3.4275,0.5458 -0.009,0.3499 0.8195,0.6709 1.9533,0.9278 -0.6234,4.0161 -0.8737,8.9183 -0.2218,11.7691 0.8643,-0.3371 0.6874,-3.2039 0.7229,-6.1639 0.8157,-1.4832 1.0375,0.3885 1.2397,2.8315 0.2027,2.0258 0.389,4.4881 1.131,5.2008 -2.2745,9.5315 -2.1172,40.0425 -5.7725,31.3843 -0.7066,-3.2714 0.1895,-6.0579 0.3371,-9.5925 0.7294,9.9135 1.9309,0.0706 2.586,-0.7705 -0.5846,-4.2152 0.5749,-11.4898 -0.7293,-9.8237 l -1.3683,6.7064 c -0.1508,-4.6325 -0.2568,-9.6342 -0.3245,-14.8767 l -0.0995,-14.1672 -20.3365,-0.1444 -21.9652,-0.3789 10.6999,-0.0706 c -1.2463,-0.992 -6.3091,-1.0562 -10.2311,-1.5281 l 5.2263,-2.4078 c -3.0806,0.1798 -6.0327,-0.1797 -5.7689,0.6806 -3.7683,-1.0209 -2.0433,-1.6405 0.212,-2.4655 -7.9859,-0.427 -9.2962,0.5201 -15.4572,-1.0562 13.2728,-1.9776 11.2201,1.6405 26.4205,-0.0963 l 4.1821,3.2681 z" /><path
             id="path186"
             style="fill:#afb12e;fill-opacity:1;fill-rule:nonzero;stroke:none"
             d="m 685.2605,228.063 3.1898,1.2135 -4.9147,-0.5939 1.7249,-0.6196 z" /><path
             id="path188"
             style="fill:#afb12e;fill-opacity:1;fill-rule:nonzero;stroke:none"
             d="m 690.32,233.3755 c 0.1672,-0.5297 -1.7987,-0.7673 -1.632,-1.3002 6.1998,-0.3531 5.4643,0.3884 1.632,1.3002" /><path
             id="path190"
             style="fill:#afb12e;fill-opacity:1;fill-rule:nonzero;stroke:none"
             d="m 746.8351,252.9165 -0.4174,7.9905 -0.466,-5.2039 c 0.5365,0.1284 0.7648,-1.7978 0.8834,-2.7866" /><path
             id="path192"
             style="fill:#afb12e;fill-opacity:1;fill-rule:nonzero;stroke:none"
             d="m 740.5457,308.9767 c 0.2376,-11.1046 1.3812,-15.8334 0.1447,-28.3698 1.5835,-6.1574 2.9647,2.8605 4.3974,0.2216 0.3502,6.2312 -2.3288,5.4511 -2.8364,11.9103 1.3556,2.3853 -0.2988,9.4191 0.0159,15.5766 -0.5683,-0.748 -1.2043,-0.748 -1.7216,0.6613" /><path
             id="path194"
             style="fill:#afb12e;fill-opacity:1;fill-rule:nonzero;stroke:none"
             d="m 745.7625,347.1702 c 0.0126,5.0754 -1.0474,10.1895 -0.3922,14.2025 0.8545,-0.5682 1.1664,-3.5924 0.9414,-6.6519 1.9402,1.9776 -0.3021,5.6085 0.9927,11.0886 -0.2088,-0.4784 -0.5431,-2.456 -0.9573,-0.9182 0.4497,13.6279 -1.59,7.6598 -0.4917,25.3745 -0.5234,2.5555 -0.5169,5.0852 -1.802,4.655 1.6288,10.0516 1.6157,4.9728 3.0422,17.0533 -0.7517,-0.4591 -2.4799,-4.4367 -4.0891,-4.3436 2.2676,17.0791 -0.3213,17.445 1.378,28.3505 0.0864,-1.2295 0.4945,-2.6742 0.2793,-5.6277 2.2516,1.4126 -0.4049,9.1559 0.0387,15.2106 l 1.9239,-0.5939 c -0.3147,5.5988 -1.577,15.2555 -0.1606,22.2926 l 0.9637,-1.5924 c -0.3147,3.0659 -0.5332,6.2442 -0.6841,9.4641 l -0.106,2.6229 -0.0835,3.374 -0.1158,6.6422 -15.5441,-0.1669 c -4.057,-0.061 -7.9019,-0.1541 -11.3775,-0.3595 l -6.5659,1.1974 c -16.7936,-1.4671 16.6877,-0.6806 4.4007,-3.5474 -1.8501,3.541 -8.6729,-1.1589 -18.2422,0.2536 -4.5132,1.4029 9.6786,0.7287 4.677,2.3468 -2.1135,-1.8171 -5.101,-0.5201 -10.1792,-1.0498 1.0983,1.7143 -10.6551,0.2376 -7.5008,2.1637 l -17.9144,-3.1782 c -2.8881,0.976 -8.0886,0.8122 -11.9176,0.565 9.6786,-0.0192 -2.6627,-2.5522 8.1946,-3.3355 15.8042,0.8154 42.1925,1.3997 61.9252,0.4976 1.0824,1.1782 4.2498,1.1685 7.539,1.1075 3.3859,-0.0609 5.9845,-0.1766 8.4482,0.7866 -0.077,-0.4013 0.1093,-0.7737 0.1896,-1.1461 -0.3278,-0.7255 -0.6523,-1.3772 -1.0054,-1.8395 0.2536,-4.578 0.5781,-4.2601 0.9443,-2.3821 0.3661,1.7689 0.7742,5.2585 1.2047,4.1061 0.3115,-5.7915 -1.0987,-10.2154 -1.9533,-9.7113 -0.1251,-9.1077 0.6393,-1.0081 1.9178,-5.6535 l -2.5921,-5.9487 c 0.7966,-28.4308 2.5342,-66.0463 1.0665,-98.3937 l 1.6218,2.4559 c -0.8961,-14.6809 3.5881,-24.5398 0.1223,-37.5321 l 1.3943,-4.427 c -0.797,2.411 -2.4351,-2.5394 -3.5306,1.2938 0.5431,-3.9777 -0.0672,-8.2314 0.4338,-12.3534 l 0.771,7.3131 c 1.3747,-5.114 0.5234,-10.7578 -0.6809,-12.4818 1.6414,-10.9408 2.8009,6.5074 4.1695,8.9247 -3.0035,15.3936 2.9199,15.506 1.6703,30.2928 -0.9479,9.1655 -1.5068,-0.9695 -2.3642,-0.4012" /><path
             id="path196"
             style="fill:#afb12e;fill-opacity:1;fill-rule:nonzero;stroke:none"
             d="m 741.3301,328.11 c 0.1284,-0.9342 0.276,-1.6693 0.4333,-2.2344 -0.0994,0.7865 -0.2376,1.5185 -0.4333,2.2344" /><path
             id="path198"
             style="fill:#afb12e;fill-opacity:1;fill-rule:nonzero;stroke:none"
             d="m 656.2748,485.9984 c -1.1468,0.006 -2.4926,-0.0193 -4.3011,-0.0932 -1.4583,-0.4045 0.8704,-0.1252 4.3011,0.0932" /><path
             id="path200"
             style="fill:#afb12e;fill-opacity:1;fill-rule:nonzero;stroke:none"
             d="m 742.2678,308.3167 c 0,0 0.01,0 0.0191,0.0385 -0.009,0.0161 -0.0126,0.0546 -0.0191,0.1091 l 0,-0.1476 z" /><path
             id="path202"
             style="fill:#afb12e;fill-opacity:1;fill-rule:nonzero;stroke:none"
             d="m 746.233,300.9679 0.0546,4.106 -0.742,-0.7159 0.6874,-3.3901 z" /><path
             id="path204"
             style="fill:#afb12e;fill-opacity:1;fill-rule:nonzero;stroke:none"
             d="m 613.0354,488.0221 -0.0387,-0.8443 c 0.3698,0.2633 0.5304,0.5425 0.0387,0.8443" /><path
             id="path206"
             style="fill:#afb12e;fill-opacity:1;fill-rule:nonzero;stroke:none"
             d="m 495.8769,488.5393 2.5472,-0.0385 c -0.8064,0.1348 -1.7025,0.1091 -2.5472,0.0385" /><path
             id="path208"
             style="fill:#afb12e;fill-opacity:1;fill-rule:nonzero;stroke:none"
             d="m 214.8024,486.7803 c -7.6483,-0.5136 -17.8246,-1.024 -23.4717,-2.4077 l 0.5493,0.8539 c -4.0699,-0.4205 -17.33,-1.7817 -8.7823,-3.3002 l 2.0719,0.7416 c 9.6816,1.2649 7.0412,-1.4093 14.6061,-1.9583 9.1226,0.4013 14.365,3.6084 22.4534,2.8444 3.5399,0.1027 2.9874,-0.7609 1.9434,-1.4029 8.1237,-0.2344 11.2974,2.2215 16.8706,2.5361 2.2357,-6.4271 24.9397,1.7657 36.9406,-2.3339 7.6001,0.5137 17.7604,-0.0417 27.4421,1.2231 -5.1525,-1.6019 9.113,-0.1316 6.9962,-1.9454 2.74,3.7432 27.8436,-1.6758 29.5686,3.0466 13.1283,-1.3227 0.53,0.3114 15.6949,-0.7962 -0.0354,-0.5265 -2.5666,-0.5265 -3.5752,-0.626 6.0069,-0.9792 9.2254,2.0129 14.1948,-0.1348 12.1391,-0.3564 2.043,1.268 9.2577,2.5361 12.6369,-0.5554 9.0778,-1.1878 16.0644,-3.1397 1.1371,2.2473 8.6569,1.1686 14.8373,2.3276 -1.5419,0.109 -10.141,0.5553 -4.5036,1.4028 14.6799,-0.3595 11.7375,1.4768 25.4794,2.0836 6.9514,-2.4752 -13.6969,-0.0707 -1.6318,-2.0322 -8.6923,-1.1557 -15.2838,-1.037 -19.9415,-2.8443 11.67,-0.1381 25.8841,0.2568 38.6269,1.3033 7.08,-0.337 -3.6138,-1.1717 1.9435,-1.4029 12.6433,-1.0914 19.4212,2.5298 29.5043,1.4318 l -2.0878,-1.2745 c 6.1415,1.7015 22.2959,-0.3692 34.0142,0.565 -1.5036,0.6485 -2.4768,1.0787 -0.9349,1.5025 -0.183,-3.2167 16.2926,1.6758 27.8531,-0.5939 -0.9152,2.0353 10.3081,3.1847 17.4138,3.3966 2.502,-0.5619 1.9692,-1.403 1.9337,-1.9424 -11.6249,1.1975 -11.2588,-2.2247 -20.4653,-3.1653 7.6646,1.0529 20.3173,-0.045 26.9924,1.435 l -2.621,-1.5988 c 10.6163,-0.2439 9.2962,3.6181 20.3911,2.09 l -1.102,-1.1654 c 22.3346,0.1573 48.5949,-1.939 66.4934,0.6902 1.5578,0.976 -7.4652,3.2425 -7.9341,3.9937 -10.6807,-0.8315 -16.8417,-2.5361 -25.0107,-3.3837 l 0.1191,1.8427 c -1.8534,-1.2616 -11.6604,-2.0032 -6.2349,-2.9952 -6.6559,-0.947 -5.0403,1.618 -12.6788,0.5618 0.6328,1.9262 5.1814,2.1317 5.2519,3.7368 l -6.6556,-0.9502 c 2.107,0.748 -3.9799,0.6549 -1.9434,1.4029 -12.3128,-2.3275 -17.1631,0.8924 -29.9092,-0.1477 l 7.08,-0.337 c -0.0546,-1.0723 -4.1087,-0.9632 -7.1697,-1.2714 -3.4662,1.5025 -5.538,1.297 -12.075,1.9552 -5.6212,-0.8444 -8.7564,-2.7609 -16.3758,-2.7481 1.6222,2.0289 -12.6433,1.1011 -14.0633,2.8122 -1.6349,-2.0193 -14.7344,-0.7159 -15.7977,-1.8876 -4.0732,-0.4141 -9.6464,-0.1926 -9.6109,0.8796 0.5879,0.061 1.7955,0.2601 3.0613,0.3499 l -4.0508,0.0771 c 0.3857,0.2311 0.2377,0.4077 0.7131,0.4462 -3.6106,0.0481 -3.6456,-1.4286 -8.3418,-0.427 0.035,0.5362 2.5856,0.5362 4.6575,0.7384 -9.6624,0.3467 -16.9058,-3.0691 -24.9398,-1.2263 -1.5933,-0.96 -12.7428,-1.0402 -10.3399,-3.1911 -3.0067,0.7544 -1.8538,2.4623 -9.9966,2.1638 -4.6738,-1.8107 -9.0842,0.6677 -15.2741,-0.4944 8.2137,1.8972 0.0385,0.5264 7.2242,2.3403 -5.5378,0.7544 -13.7707,-1.6887 -23.3978,-1.3451 -0.9893,0.4302 -0.954,0.9663 -1.953,1.3964 -3.5849,-0.6355 -7.7094,-2.1219 -11.1946,-0.6164 l 0.44,-1.284 c -6.5465,0.658 -15.6981,0.2503 -22.7361,1.6629 l -8.233,-2.4527 c -11.0244,2.5939 -25.8585,0.2793 -34.5861,-1.9551 -4.0538,0.1124 -10.1056,0.5522 -10.0864,1.0947 0.9348,0.1894 2.5312,0.5682 4.3847,0.8925 -5.9426,0.0931 -13.2055,1.4896 -16.5687,-0.5554 -6.0968,-0.6164 -4.4649,1.4062 -9.0135,1.74 -12.3413,-2.8668 -36.4363,2.1221 -40.1785,-2.2633 5.0432,-0.0128 14.6349,-0.8925 24.278,-0.6998 -2.5473,-0.5297 -0.5461,-1.3901 -4.1245,-1.4832 -9.6463,-0.1991 -14.6156,1.4189 -24.278,0.6934 l 1.1371,2.7866 c -16.5751,2.8187 -31.65,-3.7882 -44.6146,0.2022" /><path
             id="path210"
             style="fill:#afb12e;fill-opacity:1;fill-rule:nonzero;stroke:none"
             d="m 338.5418,486.7194 -7.025,1.4061 0.7355,-1.1974 c 2.1651,0.1926 4.3654,0.199 6.2895,-0.2087" /><path
             id="path212"
             style="fill:#afb12e;fill-opacity:1;fill-rule:nonzero;stroke:none"
             d="m 332.2523,486.9277 c -1.4294,-0.122 -2.8075,-0.337 -4.0891,-0.5682 1.5418,-0.0257 3.0163,0.0257 4.2915,0.2664 l -0.2024,0.3018 z" /><path
             id="path214"
             style="fill:#afb12e;fill-opacity:1;fill-rule:nonzero;stroke:none"
             d="m 186.874,486.3039 c -1.5386,0.1124 -4.5646,0.3372 -7.6097,0.0258 1.998,-0.3308 6.0518,-0.4495 7.6097,-0.0258" /><path
             id="path216"
             style="fill:#afb12e;fill-opacity:1;fill-rule:nonzero;stroke:none"
             d="m 178.7323,485.4686 3.5014,-0.4366 0.5139,0.321 -4.0153,0.1156 z" /><path
             id="path218"
             style="fill:#afb12e;fill-opacity:1;fill-rule:nonzero;stroke:none"
             d="m 55.35166,405.0407 1.68964,-11.2426 c -0.85767,-1.9808 0.17988,-14.7163 -1.30738,-10.5942 2.0237,-6.6903 0.05782,-21.2588 2.97131,-15.8334 -0.49789,16.4787 -0.32122,36.1035 -0.34371,56.38 -0.0096,10.1383 -0.07067,20.4402 -0.29231,30.5946 -0.10922,5.0787 -0.26019,10.1189 -0.46256,15.0821 l -0.34692,7.3838 -0.43686,4.3018 c 0.38867,-1.5313 0.77736,-2.7576 1.16604,-3.679 -0.29232,1.1075 -0.46899,2.3756 -0.56536,3.541 0.85124,0.0867 1.75709,0.1124 2.61154,0.0963 l 3.49491,-0.138 8.48671,-0.4623 c 5.45435,-0.2183 10.78986,-0.0193 17.77966,1.9808 l -2.14576,-2.3468 c 9.09704,-0.6678 17.41349,3.3869 26.90239,0.9053 l -0.9187,0.9631 c 2.512,0 3.5013,-0.4334 6.0518,-0.4462 l -1.0086,0.4302 c 6.6204,0.9598 10.7095,0.8347 17.2561,0.1829 0.4497,-0.7511 -3.0645,-0.3145 -5.0978,-0.52 3.0066,-0.7641 8.159,0.8315 13.2568,0.8218 3.9992,-0.6581 -0.0546,-1.0787 -0.6038,-1.3997 15.2934,1.0466 22.2414,-1.435 33.0602,2.0771 1.0472,0.6389 -3.9575,1.1878 1.6157,1.5024 -10.1056,1.0883 -18.2647,-0.2953 -27.4709,-1.2423 l 2.5505,0 c -7.2982,-3.4094 -5.5411,0.7705 -17.2754,-0.6999 3.0998,1.3837 8.1976,1.3612 10.2342,2.1092 -13.5332,2.61 -19.3665,-1.984 -28.3126,1.3547 l 0.9894,0.1028 c -1.998,0.3306 -5.5925,-0.305 -8.6538,-0.6164 1.0055,-0.4366 4.0314,-0.6581 6.0679,-0.9792 -3.0998,-0.3242 -4.677,-1.817 -5.7113,-2.4527 -3.4756,1.5057 -4.6128,-0.7319 -10.1314,0.0225 -1.96264,1.3933 4.6128,1.2713 6.6751,2.0193 l -6.6397,-0.947 c -6.0872,-0.0931 -5.99404,1.5153 -9.00391,2.2697 -5.16203,-1.0626 3.00987,-0.7544 -1.1532,-2.2473 -2.51195,0.6678 -8.22009,1.0081 -15.04604,1.0916 -6.70715,0.0866 -15.19385,-0.0835 -20.86985,-0.427 0.20237,-3.9648 0.46577,-6.7225 0.77093,-9.9842 -0.20237,4.5619 -1.49047,1.6341 -1.26562,6.9472 -0.32122,-1.7689 0.40796,-8.9151 1.48084,-8.9825 0.94761,-9.1816 0.27304,-20.8287 -0.70669,-29.3875 l 1.07288,2.4848 c 1.8117,-7.1944 -1.32986,-18.1705 -0.28589,-30.8995 l 0.0257,0.2665 c 0.22807,-4.0964 2.84925,-7.5957 2.30638,-15.0918 -1.27847,2.0899 -1.17246,6.1189 -2.46057,5.708" /><path
             id="path220"
             style="fill:#afb12e;fill-opacity:1;fill-rule:nonzero;stroke:none"
             d="m 57.82508,360.2965 -1.48726,4.1414 c -0.33407,-4.5619 1.58042,-10.2538 2.55051,-9.2747 -0.31801,3.0787 0.34049,7.0949 -0.51717,7.6342 -0.21522,-0.504 -0.74845,-0.4494 -0.54608,-2.5009" /><path
             id="path222"
             style="fill:#afb12e;fill-opacity:1;fill-rule:nonzero;stroke:none"
             d="m 58.06503,275.1144 c 0.34692,-1.6694 0.90585,-1.2103 1.32666,-1.9262 -0.18632,18.0357 -0.787,40.2833 0.38546,47.468 0.44329,6.0644 -1.80848,7.1848 -2.33207,14.8254 l 1.51617,3.4447 c -0.95724,4.1253 0.68099,16.7323 -1.79564,12.2603 -0.21843,-0.4559 1.16925,-3.5892 0.7356,-7.1109 l -0.85766,0.5682 0.29552,-8.135 -1.06003,2.6036 c -1.5226,-11.1078 3.19937,-7.7915 2.2068,-21.4258 l -2.14898,0.0931 c -0.12207,-9.1077 0.61032,-13.7082 -0.69384,-21.7372 0,0 1.07931,-0.0706 0.64886,1.4832 0.10922,1.5056 0.97652,3.4575 1.61575,2.4206 1.67679,-13.7724 -1.28167,2.1445 -2.16182,-7.4769 1.47441,-11.7306 2.71112,-34.1067 0.97972,-40.5948 1.30096,5.5186 2.67258,-2.6741 2.55372,-9.2554 -0.75487,-3.0049 -1.27846,2.0803 -1.92412,3.1526 -0.22485,-3.0595 -0.76451,-5.5507 -0.4465,-8.5941 1.18532,3.9584 2.78822,1.3548 3.51739,-5.7529 1.32986,15.6215 -2.60833,28.0006 -2.36099,43.6895" /><path
             id="path224"
             style="fill:#afb12e;fill-opacity:1;fill-rule:nonzero;stroke:none"
             d="m 59.87834,270.4777 c -0.06746,1.6052 -0.2634,2.3275 -0.48505,2.7127 l 0.04818,-6.2505 0.43687,3.5378 z" /></g></g></g><g
       id="g226"><g
         clip-path="url(#clipPath230)"
         id="g228"><g
           transform="translate(60,139)"
           id="g234"><text
             id="text236"
             style="font-variant:normal;font-weight:normal;font-size:90px;font-family:Marydale;-inkscape-font-specification:Marydale;writing-mode:lr-tb;fill:#a3a50f;fill-opacity:1;fill-rule:nonzero;stroke:none"
             transform="scale(1,-1)"><tspan
               id="tspan238"
               y="0"
               x="0 55.889999 88.830002 119.61 155.25 197.91 241.64999 278.37 312.92999 348.03 413.64001 446.04001 465.20999 483.84 516.78003 549.71997 586.44 621 639.09003">Southern California</tspan></text>
</g></g></g></g></svg>