<?xml version="1.0" encoding="UTF-8"?>
<svg width="180px" height="149px" viewBox="0 0 180 149" version="1.1" xmlns="http://www.w3.org/2000/svg" xmlns:xlink="http://www.w3.org/1999/xlink">
    <!-- Generator: Sketch 46.2 (44496) - http://www.bohemiancoding.com/sketch -->
    <title>people</title>
    <desc>Created with Sketch.</desc>
    <defs>
        <polygon id="path-1" points="175.095155 106 0.529239482 106 0.529239482 0.44718094 175.095155 0.44718094"></polygon>
        <polygon id="path-3" points="0.941974928 107 45.0447186 107 45.0447186 0.807614671 0.941974928 0.807614671"></polygon>
        <polygon id="path-5" points="0.340390588 69 14.9722095 69 14.9722095 0.0980482834 0.340390588 0.0980482834"></polygon>
        <polygon id="path-7" points="0.256694368 70 20.6625859 70 20.6625859 0.751030484 0.256694368 0.751030484 0.256694368 70"></polygon>
        <polygon id="path-9" points="0.768594504 67 10.9113111 67 10.9113111 0.897848859 0.768594504 0.897848859 0.768594504 67"></polygon>
    </defs>
    <g id="Page-1" stroke="none" stroke-width="1" fill="none" fill-rule="evenodd">
        <g id="cassy_colors" transform="translate(-383.000000, -518.000000)">
            <g id="people" transform="translate(383.000000, 518.000000)">
                <g id="Group-155" transform="translate(1.000000, 43.000000)">
                    <mask id="mask-2" fill="white">
                        <use xlink:href="#path-1"></use>
                    </mask>
                    <g id="Clip-154"></g>
                    <path d="M41.5206097,80.5047291 C27.9782479,76.1957611 21.0945501,69.1525434 20.8705778,59.3797517 C21.6868559,50.1399703 25.0475016,43.0958175 30.9546378,38.2491636 C35.1336845,44.5227891 38.6556752,58.6092244 41.5206097,80.5047291 M172.453106,18.8270141 C157.762223,12.2635058 157.977703,-4.75261627 100.633369,2.00539407 L56.4694325,16.0918293 C-23.2615147,26.2321177 -9.21176542,86.8026673 45.2283593,100.551529 L48.405369,120.658176 L163.083422,125.711489 L162.031496,106.569871 C172.795964,59.0758423 178.912212,43.683064 172.453106,18.8270141" id="Fill-153" fill="#505243" mask="url(#mask-2)"></path>
                </g>
                <g id="Group-158" transform="translate(134.000000, 42.000000)">
                    <mask id="mask-4" fill="white">
                        <use xlink:href="#path-3"></use>
                    </mask>
                    <g id="Clip-157"></g>
                    <path d="M29.6443941,101.852353 C59.63545,2.67221584 20.6706422,8.83082329 0.941974928,4.54242764 L3.62645785,0.807614671 C40.8005489,6.38271605 59.9135578,16.4294938 31.0996832,109.636174 L29.6443941,101.852353 Z" id="Fill-156" fill="#FFFFFF" mask="url(#mask-4)"></path>
                </g>
                <path d="M108.26815,42.7878839 C96.5324273,43.3227645 89.5011838,46.4684608 86.7063069,47.4512571 L85.8889673,51.9949366 C88.0066199,51.4619263 103.601884,44.1316311 110.082219,45.6362165 L108.26815,42.7878839 Z" id="Fill-159" fill="#FFFFFF"></path>
                <path d="M100.674004,28.5311659 C104.968752,42.651265 117.31058,50.2144015 126.860715,47.9607963 C136.411912,45.7053208 142.805206,33.7181983 138.51152,19.5990343 C134.415269,6.13350936 123.645492,1.59731064 113.487129,3.99585727 C103.328765,6.3934688 96.5777525,15.066576 100.674004,28.5311659 M141.902948,18.7985837 C137.386351,3.95190729 124.900162,-1.89998543 112.578502,1.00819392 C100.256842,3.91730838 92.7659778,14.4849402 97.2825752,29.3316165 C101.799173,44.179228 115.448744,53.856639 127.769342,50.9475245 C140.091002,48.0393452 146.418484,33.64526 141.902948,18.7985837" id="Fill-161" fill="#FFFFFF"></path>
                <path d="M55.8741342,57.6431633 C0.706895684,62.0587333 -23.58932,113.458699 31.2499212,138.227784 C-17.5091626,109.176849 4.88594244,64.4797225 57.2508738,60.2427577 L55.8741342,57.6431633 Z" id="Fill-163" fill="#FFFFFF"></path>
                <path d="M47.0931471,43.3075223 C47.3712549,29.2547508 56.9797718,21.6280271 68.6433141,21.8075674 C80.3057948,21.9871078 89.6064826,29.9037143 89.3273133,43.9564858 C89.0481441,58.0101924 79.3695695,69.256711 67.7060272,69.0781058 C56.0435465,68.8985655 46.8150393,57.3612289 47.0931471,43.3075223" id="Fill-165" fill="#FFFFFF"></path>
                <path d="M86.1180347,43.9074862 C85.8526647,57.2720198 76.8024862,66.3893023 67.7618611,66.2499715 C58.7222974,66.1106407 50.0383295,56.7212424 50.3036995,43.3567089 C50.5563317,30.6112154 58.9717452,24.4872069 68.586631,24.6358887 C78.2015169,24.7836355 86.3696055,31.1619928 86.1180347,43.9074862" id="Fill-167" fill="#505243"></path>
                <path d="M35.3432004,52.0809664 C35.3432004,52.0809664 45.8624672,61.8247698 43.6386666,63.3013021 C43.6386666,63.3013021 42.4179646,65.569869 41.1091597,66.6181227 C42.7406545,74.1681677 24.2295048,78.3368698 22.3888985,77.4073746 C20.5493536,76.4797495 18.2045443,73.738019 17.7428005,71.9753444 C17.2810567,70.2136049 14.0902478,64.961115 14.0902478,64.961115 L35.3432004,52.0809664 Z" id="Fill-169" fill="#FFFFFF"></path>
                <path d="M16.5081931,65.4988944 C16.7767476,65.9589665 17.0909456,66.5069386 17.4136356,67.084834 C18.2362826,68.5604312 19.2659182,70.501711 19.5557022,71.6070062 C19.8964373,72.9077385 21.9068804,75.2754266 23.3144029,75.9861071 C23.5564203,76.1076709 41.381854,70.9496267 38.1316022,64.9219341 C40.2375785,64.5572428 42.518699,61.9922473 42.518699,61.9922473 C42.5346212,61.9819612 37.5392964,56.7341468 35.0458798,54.2383492 L16.5081931,65.4988944 Z" id="Fill-171" fill="#505243"></path>
                <g id="Group-175" transform="translate(93.000000, 80.000000)">
                    <mask id="mask-6" fill="white">
                        <use xlink:href="#path-5"></use>
                    </mask>
                    <g id="Clip-174"></g>
                    <path d="M2.83206277,0.0980482834 C0.216576052,5.7582443 -0.418188988,12.8959076 1.30140861,19.3060586 L12.7590237,93.3131448 L14.9722095,90.6864323 L4.61853361,19.5388999 C3.34794205,13.5112073 3.50928701,7.11227764 5.33078669,2.06457599 L2.83206277,0.0980482834 Z" id="Fill-173" fill="#FFFFFF" mask="url(#mask-6)"></path>
                </g>
                <g id="Group-178" transform="translate(30.000000, 79.000000)">
                    <mask id="mask-8" fill="white">
                        <use xlink:href="#path-7"></use>
                    </mask>
                    <g id="Clip-177"></g>
                    <path d="M1.51667113,0.751030484 C5.80186589,5.55747481 9.17100341,12.6857871 9.52341477,19.2661273 L20.6625859,85.4753654 L17.712733,83.4882654 L6.40797097,20.2947438 C5.74242301,14.1913076 3.58655713,8.08039053 0.256694368,3.669496 L1.51667113,0.751030484 Z" id="Fill-176" fill="#FFFFFF" mask="url(#mask-8)"></path>
                </g>
                <path d="M31.4487364,79.7163381 C11.9546562,98.3614146 20.6035952,115.165268 37.9948836,123.583091 L30.9795622,137.876185 L33.4262736,139.588364 L41.0540689,123.265155 C24.5756534,114.995078 13.7506804,103.464287 33.2850968,82.3168676 L31.4487364,79.7163381 Z" id="Fill-179" fill="#FFFFFF"></path>
                <path d="M31.5819521,139.564986 C31.5819521,139.564986 44.0702643,145.307471 44.9905675,143.194132 L46.7398865,139.179722 C46.7398865,139.179722 53.9621965,127.026151 52.5599814,125.82454 C51.1567048,124.622929 47.7992436,123.48771 45.9076862,123.574675 C44.0161289,123.662575 37.9147418,122.504914 37.9147418,122.504914 L31.5819521,139.564986 Z M39.071755,124.257302 C39.602495,124.349878 40.2340756,124.457415 40.8985621,124.561212 C42.5937457,124.829587 44.8111774,125.140042 45.997912,125.085806 C47.3937582,125.020349 50.2905371,125.990054 51.3626319,126.909263 C51.5473295,127.067296 45.8864566,137.354396 45.2187857,138.478393 L43.3877327,142.652706 C43.3813638,142.665797 36.8256633,140.097061 33.6783751,138.785108 L39.071755,124.257302 Z" id="Fill-181" fill="#FFFFFF"></path>
                <path d="M151.958879,38.682208 C151.958879,38.682208 143.38849,48.1538956 145.514634,49.3246482 C145.514634,49.3246482 146.811763,51.2752791 148.081293,52.1252904 C147.289429,59.0132805 164.270986,61.4735441 165.839853,60.5131903 C167.407659,59.5528366 169.268434,56.9298645 169.525312,55.3168068 C169.78219,53.7037491 172.17795,48.7701304 172.17795,48.7701304 L151.958879,38.682208 Z" id="Fill-183" fill="#FFFFFF"></path>
                <path d="M170.055839,49.419468 C169.856281,49.8505518 169.622756,50.3639249 169.384984,50.9053512 C168.777818,52.2855675 168.027351,54.099673 167.866006,55.1114576 C167.676001,56.3018474 166.08272,58.5666739 164.883247,59.300732 C164.67732,59.4269713 148.222257,56.0306667 150.601034,50.3975887 C148.677632,50.2161782 146.402881,48.0719804 146.402881,48.0719804 C146.389081,48.0644995 150.402537,43.009317 152.418288,40.5967438 L170.055839,49.419468 Z" id="Fill-185" fill="#505243"></path>
                <path d="M39.0713304,124.257115 C39.6020704,124.350626 40.233651,124.457228 40.899199,124.561025 C42.5933211,124.8294 44.8107528,125.139855 45.9974874,125.085619 C47.3933336,125.020162 50.2901126,125.990802 51.3632688,126.909076 C51.5469049,127.067108 45.886032,137.354208 45.2194226,138.478206 L43.3873081,142.652519 C43.3820007,142.666545 36.8263002,140.096874 33.6779506,138.784921 L39.0713304,124.257115 Z" id="Fill-187" fill="#505243"></path>
                <path d="M100.674004,28.5311659 C104.968752,42.651265 117.31058,50.2144015 126.860715,47.9607963 C136.411912,45.7053208 142.805206,33.7181983 138.51152,19.5990343 C134.415269,6.13350936 123.645492,1.59731064 113.487129,3.99585727 C103.328765,6.3934688 96.5777525,15.066576 100.674004,28.5311659" id="Fill-189" fill="#505243"></path>
                <g id="Group-193" transform="translate(156.000000, 82.000000)">
                    <mask id="mask-10" fill="white">
                        <use xlink:href="#path-9"></use>
                    </mask>
                    <g id="Clip-192"></g>
                    <path d="M4.34074992,0.897848859 C1.39301996,6.42993536 -0.069699476,14.0435676 1.26670384,20.5247866 L7.32138576,87.2445926 L10.9113111,85.1536958 L4.56578368,20.9091151 C3.65503384,14.8309268 4.19532716,8.448829 6.31297976,3.49089752 L4.34074992,0.897848859 Z" id="Fill-191" fill="#FFFFFF" mask="url(#mask-10)"></path>
                </g>
            </g>
        </g>
    </g>
</svg>